%TF.GenerationSoftware,KiCad,Pcbnew,10.0.5-10.0.5~ubuntu24.04.1*%
%TF.CreationDate,2026-08-04T17:47:32-03:00*%
%TF.ProjectId,openems_ecu,6f70656e-656d-4735-9f65-63752e6b6963,R0.6.0*%
%TF.SameCoordinates,Original*%
%TF.FileFunction,Other,User*%
%FSLAX46Y46*%
G04 Gerber Fmt 4.6, Leading zero omitted, Abs format (unit mm)*
G04 Created by KiCad (PCBNEW 10.0.5-10.0.5~ubuntu24.04.1) date 2026-08-04 17:47:32*
%MOMM*%
%LPD*%
G01*
G04 APERTURE LIST*
%ADD10C,0.050000*%
G04 APERTURE END LIST*
%TO.C,D15*%
D10*
X87801903Y-30623223D02*
X90276777Y-33098097D01*
X90276777Y-33098097D02*
X95226525Y-28148349D01*
X92751651Y-25673475D02*
X87801903Y-30623223D01*
X95226525Y-28148349D02*
X92751651Y-25673475D01*
%TO.C,D20*%
X85387689Y-26937437D02*
X87862563Y-29412311D01*
X87862563Y-29412311D02*
X92812311Y-24462563D01*
X90337437Y-21987689D02*
X85387689Y-26937437D01*
X92812311Y-24462563D02*
X90337437Y-21987689D01*
%TO.C,FID5*%
X91834400Y-58648600D02*
G75*
G02*
X90334400Y-58648600I-750000J0D01*
G01*
X90334400Y-58648600D02*
G75*
G02*
X91834400Y-58648600I750000J0D01*
G01*
%TO.C,FID6*%
X61100000Y-65450000D02*
G75*
G02*
X59600000Y-65450000I-750000J0D01*
G01*
X59600000Y-65450000D02*
G75*
G02*
X61100000Y-65450000I750000J0D01*
G01*
%TO.C,NT3*%
X58200000Y-72400000D02*
X59200000Y-72400000D01*
X58200000Y-74400000D02*
X58200000Y-72400000D01*
X59200000Y-72400000D02*
X59200000Y-74400000D01*
X59200000Y-74400000D02*
X58200000Y-74400000D01*
%TO.C,TP1*%
X49379000Y-67183000D02*
G75*
G02*
X46379000Y-67183000I-1500000J0D01*
G01*
X46379000Y-67183000D02*
G75*
G02*
X49379000Y-67183000I1500000J0D01*
G01*
%TO.C,D4*%
X39525000Y-27742000D02*
X39525000Y-34742000D01*
X39525000Y-34742000D02*
X43025000Y-34742000D01*
X43025000Y-27742000D02*
X39525000Y-27742000D01*
X43025000Y-34742000D02*
X43025000Y-27742000D01*
%TO.C,D5*%
X32187000Y-25809000D02*
X32187000Y-29309000D01*
X32187000Y-29309000D02*
X39187000Y-29309000D01*
X39187000Y-25809000D02*
X32187000Y-25809000D01*
X39187000Y-29309000D02*
X39187000Y-25809000D01*
%TO.C,D6*%
X32187000Y-22253000D02*
X32187000Y-25753000D01*
X32187000Y-25753000D02*
X39187000Y-25753000D01*
X39187000Y-22253000D02*
X32187000Y-22253000D01*
X39187000Y-25753000D02*
X39187000Y-22253000D01*
%TO.C,D3*%
X32187000Y-29365000D02*
X32187000Y-32865000D01*
X32187000Y-32865000D02*
X39187000Y-32865000D01*
X39187000Y-29365000D02*
X32187000Y-29365000D01*
X39187000Y-32865000D02*
X39187000Y-29365000D01*
%TO.C,J17*%
X89950000Y-77600000D02*
X89950000Y-75200000D01*
X89950000Y-77600000D02*
X92700000Y-77600000D01*
X92700000Y-75200000D02*
X89950000Y-75200000D01*
X92700000Y-75200000D02*
X92700000Y-77600000D01*
%TO.C,J15*%
X74250000Y-61600000D02*
X74250000Y-59200000D01*
X74250000Y-61600000D02*
X77000000Y-61600000D01*
X77000000Y-59200000D02*
X74250000Y-59200000D01*
X77000000Y-59200000D02*
X77000000Y-61600000D01*
%TO.C,R21*%
X54180447Y-27487177D02*
X55212823Y-28519553D01*
X55212823Y-28519553D02*
X57305859Y-26426517D01*
X56273483Y-25394141D02*
X54180447Y-27487177D01*
X57305859Y-26426517D02*
X56273483Y-25394141D01*
%TO.C,R80*%
X56280447Y-27587177D02*
X57312823Y-28619553D01*
X57312823Y-28619553D02*
X59405859Y-26526517D01*
X58373483Y-25494141D02*
X56280447Y-27587177D01*
X59405859Y-26526517D02*
X58373483Y-25494141D01*
%TO.C,R33*%
X52080447Y-27387177D02*
X53112823Y-28419553D01*
X53112823Y-28419553D02*
X55205859Y-26326517D01*
X54173483Y-25294141D02*
X52080447Y-27387177D01*
X55205859Y-26326517D02*
X54173483Y-25294141D01*
%TO.C,R81*%
X58280447Y-27887177D02*
X59312823Y-28919553D01*
X59312823Y-28919553D02*
X61405859Y-26826517D01*
X60373483Y-25794141D02*
X58280447Y-27887177D01*
X61405859Y-26826517D02*
X60373483Y-25794141D01*
%TD*%
M02*
