%TF.GenerationSoftware,KiCad,Pcbnew,10.0.5-10.0.5~ubuntu24.04.1*%
%TF.CreationDate,2026-08-04T17:47:32-03:00*%
%TF.ProjectId,openems_ecu,6f70656e-656d-4735-9f65-63752e6b6963,R0.6.0*%
%TF.SameCoordinates,Original*%
%TF.FileFunction,AssemblyDrawing,Bot*%
%FSLAX46Y46*%
G04 Gerber Fmt 4.6, Leading zero omitted, Abs format (unit mm)*
G04 Created by KiCad (PCBNEW 10.0.5-10.0.5~ubuntu24.04.1) date 2026-08-04 17:47:32*
%MOMM*%
%LPD*%
G01*
G04 APERTURE LIST*
%ADD10C,0.150000*%
%ADD11C,0.040000*%
%ADD12C,0.060000*%
%ADD13C,0.100000*%
%ADD14C,0.120000*%
G04 APERTURE END LIST*
D10*
X94287123Y-29875750D02*
X94219779Y-30010437D01*
X94219779Y-30010437D02*
X94051420Y-30178796D01*
X94051420Y-30178796D02*
X93950405Y-30212468D01*
X93950405Y-30212468D02*
X93883061Y-30212468D01*
X93883061Y-30212468D02*
X93782046Y-30178796D01*
X93782046Y-30178796D02*
X93714703Y-30111453D01*
X93714703Y-30111453D02*
X93681031Y-30010437D01*
X93681031Y-30010437D02*
X93681031Y-29943094D01*
X93681031Y-29943094D02*
X93714703Y-29842079D01*
X93714703Y-29842079D02*
X93815718Y-29673720D01*
X93815718Y-29673720D02*
X93849390Y-29572704D01*
X93849390Y-29572704D02*
X93849390Y-29505361D01*
X93849390Y-29505361D02*
X93815718Y-29404346D01*
X93815718Y-29404346D02*
X93748374Y-29337002D01*
X93748374Y-29337002D02*
X93647359Y-29303330D01*
X93647359Y-29303330D02*
X93580016Y-29303330D01*
X93580016Y-29303330D02*
X93479000Y-29337002D01*
X93479000Y-29337002D02*
X93310642Y-29505361D01*
X93310642Y-29505361D02*
X93243298Y-29640048D01*
X93613687Y-30549185D02*
X93546344Y-30683872D01*
X93546344Y-30683872D02*
X93377985Y-30852231D01*
X93377985Y-30852231D02*
X93276970Y-30885903D01*
X93276970Y-30885903D02*
X93209626Y-30885903D01*
X93209626Y-30885903D02*
X93108611Y-30852231D01*
X93108611Y-30852231D02*
X93041268Y-30784888D01*
X93041268Y-30784888D02*
X93007596Y-30683872D01*
X93007596Y-30683872D02*
X93007596Y-30616529D01*
X93007596Y-30616529D02*
X93041268Y-30515514D01*
X93041268Y-30515514D02*
X93142283Y-30347155D01*
X93142283Y-30347155D02*
X93175955Y-30246140D01*
X93175955Y-30246140D02*
X93175955Y-30178796D01*
X93175955Y-30178796D02*
X93142283Y-30077781D01*
X93142283Y-30077781D02*
X93074939Y-30010437D01*
X93074939Y-30010437D02*
X92973924Y-29976766D01*
X92973924Y-29976766D02*
X92906581Y-29976766D01*
X92906581Y-29976766D02*
X92805565Y-30010437D01*
X92805565Y-30010437D02*
X92637207Y-30178796D01*
X92637207Y-30178796D02*
X92569863Y-30313483D01*
X91896428Y-30919575D02*
X92233146Y-30582857D01*
X92233146Y-30582857D02*
X92603535Y-30885903D01*
X92603535Y-30885903D02*
X92536191Y-30885903D01*
X92536191Y-30885903D02*
X92435176Y-30919575D01*
X92435176Y-30919575D02*
X92266817Y-31087933D01*
X92266817Y-31087933D02*
X92233146Y-31188949D01*
X92233146Y-31188949D02*
X92233146Y-31256292D01*
X92233146Y-31256292D02*
X92266817Y-31357307D01*
X92266817Y-31357307D02*
X92435176Y-31525666D01*
X92435176Y-31525666D02*
X92536191Y-31559338D01*
X92536191Y-31559338D02*
X92603535Y-31559338D01*
X92603535Y-31559338D02*
X92704550Y-31525666D01*
X92704550Y-31525666D02*
X92872909Y-31357307D01*
X92872909Y-31357307D02*
X92906581Y-31256292D01*
X92906581Y-31256292D02*
X92906581Y-31188949D01*
X91492367Y-31795040D02*
X91963772Y-32266445D01*
X91391352Y-31357307D02*
X92064787Y-31694025D01*
X92064787Y-31694025D02*
X91627054Y-32131758D01*
X91386301Y-27540613D02*
X90679194Y-26833507D01*
X90679194Y-26833507D02*
X90510835Y-27001865D01*
X90510835Y-27001865D02*
X90443492Y-27136552D01*
X90443492Y-27136552D02*
X90443492Y-27271239D01*
X90443492Y-27271239D02*
X90477164Y-27372255D01*
X90477164Y-27372255D02*
X90578179Y-27540613D01*
X90578179Y-27540613D02*
X90679194Y-27641629D01*
X90679194Y-27641629D02*
X90847553Y-27742644D01*
X90847553Y-27742644D02*
X90948568Y-27776316D01*
X90948568Y-27776316D02*
X91083255Y-27776316D01*
X91083255Y-27776316D02*
X91217942Y-27708972D01*
X91217942Y-27708972D02*
X91386301Y-27540613D01*
X90308805Y-28618109D02*
X90712866Y-28214048D01*
X90510835Y-28416079D02*
X89803729Y-27708972D01*
X89803729Y-27708972D02*
X89972087Y-27742644D01*
X89972087Y-27742644D02*
X90106774Y-27742644D01*
X90106774Y-27742644D02*
X90207790Y-27708972D01*
X88961935Y-28550766D02*
X89298652Y-28214048D01*
X89298652Y-28214048D02*
X89669041Y-28517094D01*
X89669041Y-28517094D02*
X89601698Y-28517094D01*
X89601698Y-28517094D02*
X89500683Y-28550766D01*
X89500683Y-28550766D02*
X89332324Y-28719125D01*
X89332324Y-28719125D02*
X89298652Y-28820140D01*
X89298652Y-28820140D02*
X89298652Y-28887484D01*
X89298652Y-28887484D02*
X89332324Y-28988499D01*
X89332324Y-28988499D02*
X89500683Y-29156858D01*
X89500683Y-29156858D02*
X89601698Y-29190529D01*
X89601698Y-29190529D02*
X89669041Y-29190529D01*
X89669041Y-29190529D02*
X89770057Y-29156858D01*
X89770057Y-29156858D02*
X89938415Y-28988499D01*
X89938415Y-28988499D02*
X89972087Y-28887484D01*
X89972087Y-28887484D02*
X89972087Y-28820140D01*
X92792148Y-26967781D02*
X92724804Y-27102468D01*
X92724804Y-27102468D02*
X92556445Y-27270827D01*
X92556445Y-27270827D02*
X92455430Y-27304499D01*
X92455430Y-27304499D02*
X92388086Y-27304499D01*
X92388086Y-27304499D02*
X92287071Y-27270827D01*
X92287071Y-27270827D02*
X92219728Y-27203484D01*
X92219728Y-27203484D02*
X92186056Y-27102468D01*
X92186056Y-27102468D02*
X92186056Y-27035125D01*
X92186056Y-27035125D02*
X92219728Y-26934110D01*
X92219728Y-26934110D02*
X92320743Y-26765751D01*
X92320743Y-26765751D02*
X92354415Y-26664735D01*
X92354415Y-26664735D02*
X92354415Y-26597392D01*
X92354415Y-26597392D02*
X92320743Y-26496377D01*
X92320743Y-26496377D02*
X92253399Y-26429033D01*
X92253399Y-26429033D02*
X92152384Y-26395361D01*
X92152384Y-26395361D02*
X92085041Y-26395361D01*
X92085041Y-26395361D02*
X91984025Y-26429033D01*
X91984025Y-26429033D02*
X91815667Y-26597392D01*
X91815667Y-26597392D02*
X91748323Y-26732079D01*
X92118712Y-27641216D02*
X92051369Y-27775903D01*
X92051369Y-27775903D02*
X91883010Y-27944262D01*
X91883010Y-27944262D02*
X91781995Y-27977934D01*
X91781995Y-27977934D02*
X91714651Y-27977934D01*
X91714651Y-27977934D02*
X91613636Y-27944262D01*
X91613636Y-27944262D02*
X91546293Y-27876919D01*
X91546293Y-27876919D02*
X91512621Y-27775903D01*
X91512621Y-27775903D02*
X91512621Y-27708560D01*
X91512621Y-27708560D02*
X91546293Y-27607545D01*
X91546293Y-27607545D02*
X91647308Y-27439186D01*
X91647308Y-27439186D02*
X91680980Y-27338171D01*
X91680980Y-27338171D02*
X91680980Y-27270827D01*
X91680980Y-27270827D02*
X91647308Y-27169812D01*
X91647308Y-27169812D02*
X91579964Y-27102468D01*
X91579964Y-27102468D02*
X91478949Y-27068797D01*
X91478949Y-27068797D02*
X91411606Y-27068797D01*
X91411606Y-27068797D02*
X91310590Y-27102468D01*
X91310590Y-27102468D02*
X91142232Y-27270827D01*
X91142232Y-27270827D02*
X91074888Y-27405514D01*
X90401453Y-28011606D02*
X90738171Y-27674888D01*
X90738171Y-27674888D02*
X91108560Y-27977934D01*
X91108560Y-27977934D02*
X91041216Y-27977934D01*
X91041216Y-27977934D02*
X90940201Y-28011606D01*
X90940201Y-28011606D02*
X90771842Y-28179964D01*
X90771842Y-28179964D02*
X90738171Y-28280980D01*
X90738171Y-28280980D02*
X90738171Y-28348323D01*
X90738171Y-28348323D02*
X90771842Y-28449338D01*
X90771842Y-28449338D02*
X90940201Y-28617697D01*
X90940201Y-28617697D02*
X91041216Y-28651369D01*
X91041216Y-28651369D02*
X91108560Y-28651369D01*
X91108560Y-28651369D02*
X91209575Y-28617697D01*
X91209575Y-28617697D02*
X91377934Y-28449338D01*
X91377934Y-28449338D02*
X91411606Y-28348323D01*
X91411606Y-28348323D02*
X91411606Y-28280980D01*
X89997392Y-28887071D02*
X90468797Y-29358476D01*
X89896377Y-28449338D02*
X90569812Y-28786056D01*
X90569812Y-28786056D02*
X90132079Y-29223789D01*
X88158915Y-23041655D02*
X87451808Y-22334549D01*
X87451808Y-22334549D02*
X87283449Y-22502907D01*
X87283449Y-22502907D02*
X87216106Y-22637594D01*
X87216106Y-22637594D02*
X87216106Y-22772281D01*
X87216106Y-22772281D02*
X87249778Y-22873297D01*
X87249778Y-22873297D02*
X87350793Y-23041655D01*
X87350793Y-23041655D02*
X87451808Y-23142671D01*
X87451808Y-23142671D02*
X87620167Y-23243686D01*
X87620167Y-23243686D02*
X87721182Y-23277358D01*
X87721182Y-23277358D02*
X87855869Y-23277358D01*
X87855869Y-23277358D02*
X87990556Y-23210014D01*
X87990556Y-23210014D02*
X88158915Y-23041655D01*
X86845717Y-23075327D02*
X86778373Y-23075327D01*
X86778373Y-23075327D02*
X86677358Y-23108999D01*
X86677358Y-23108999D02*
X86508999Y-23277358D01*
X86508999Y-23277358D02*
X86475327Y-23378373D01*
X86475327Y-23378373D02*
X86475327Y-23445716D01*
X86475327Y-23445716D02*
X86508999Y-23546732D01*
X86508999Y-23546732D02*
X86576343Y-23614075D01*
X86576343Y-23614075D02*
X86711030Y-23681419D01*
X86711030Y-23681419D02*
X87519152Y-23681419D01*
X87519152Y-23681419D02*
X87081419Y-24119151D01*
X85936579Y-23849778D02*
X85869236Y-23917121D01*
X85869236Y-23917121D02*
X85835564Y-24018136D01*
X85835564Y-24018136D02*
X85835564Y-24085480D01*
X85835564Y-24085480D02*
X85869236Y-24186495D01*
X85869236Y-24186495D02*
X85970251Y-24354854D01*
X85970251Y-24354854D02*
X86138610Y-24523213D01*
X86138610Y-24523213D02*
X86306968Y-24624228D01*
X86306968Y-24624228D02*
X86407984Y-24657900D01*
X86407984Y-24657900D02*
X86475327Y-24657900D01*
X86475327Y-24657900D02*
X86576342Y-24624228D01*
X86576342Y-24624228D02*
X86643686Y-24556884D01*
X86643686Y-24556884D02*
X86677358Y-24455869D01*
X86677358Y-24455869D02*
X86677358Y-24388526D01*
X86677358Y-24388526D02*
X86643686Y-24287510D01*
X86643686Y-24287510D02*
X86542671Y-24119152D01*
X86542671Y-24119152D02*
X86374312Y-23950793D01*
X86374312Y-23950793D02*
X86205953Y-23849778D01*
X86205953Y-23849778D02*
X86104938Y-23816106D01*
X86104938Y-23816106D02*
X86037594Y-23816106D01*
X86037594Y-23816106D02*
X85936579Y-23849778D01*
X93465352Y-57079609D02*
X93798685Y-57079609D01*
X93798685Y-57603419D02*
X93798685Y-56603419D01*
X93798685Y-56603419D02*
X93322495Y-56603419D01*
X92941542Y-57603419D02*
X92941542Y-56936752D01*
X92941542Y-56603419D02*
X92989161Y-56651038D01*
X92989161Y-56651038D02*
X92941542Y-56698657D01*
X92941542Y-56698657D02*
X92893923Y-56651038D01*
X92893923Y-56651038D02*
X92941542Y-56603419D01*
X92941542Y-56603419D02*
X92941542Y-56698657D01*
X92036781Y-57603419D02*
X92036781Y-56603419D01*
X92036781Y-57555800D02*
X92132019Y-57603419D01*
X92132019Y-57603419D02*
X92322495Y-57603419D01*
X92322495Y-57603419D02*
X92417733Y-57555800D01*
X92417733Y-57555800D02*
X92465352Y-57508180D01*
X92465352Y-57508180D02*
X92512971Y-57412942D01*
X92512971Y-57412942D02*
X92512971Y-57127228D01*
X92512971Y-57127228D02*
X92465352Y-57031990D01*
X92465352Y-57031990D02*
X92417733Y-56984371D01*
X92417733Y-56984371D02*
X92322495Y-56936752D01*
X92322495Y-56936752D02*
X92132019Y-56936752D01*
X92132019Y-56936752D02*
X92036781Y-56984371D01*
X91132019Y-56936752D02*
X91132019Y-57603419D01*
X91560590Y-56936752D02*
X91560590Y-57460561D01*
X91560590Y-57460561D02*
X91512971Y-57555800D01*
X91512971Y-57555800D02*
X91417733Y-57603419D01*
X91417733Y-57603419D02*
X91274876Y-57603419D01*
X91274876Y-57603419D02*
X91179638Y-57555800D01*
X91179638Y-57555800D02*
X91132019Y-57508180D01*
X90227257Y-57555800D02*
X90322495Y-57603419D01*
X90322495Y-57603419D02*
X90512971Y-57603419D01*
X90512971Y-57603419D02*
X90608209Y-57555800D01*
X90608209Y-57555800D02*
X90655828Y-57508180D01*
X90655828Y-57508180D02*
X90703447Y-57412942D01*
X90703447Y-57412942D02*
X90703447Y-57127228D01*
X90703447Y-57127228D02*
X90655828Y-57031990D01*
X90655828Y-57031990D02*
X90608209Y-56984371D01*
X90608209Y-56984371D02*
X90512971Y-56936752D01*
X90512971Y-56936752D02*
X90322495Y-56936752D01*
X90322495Y-56936752D02*
X90227257Y-56984371D01*
X89798685Y-57603419D02*
X89798685Y-56936752D01*
X89798685Y-56603419D02*
X89846304Y-56651038D01*
X89846304Y-56651038D02*
X89798685Y-56698657D01*
X89798685Y-56698657D02*
X89751066Y-56651038D01*
X89751066Y-56651038D02*
X89798685Y-56603419D01*
X89798685Y-56603419D02*
X89798685Y-56698657D01*
X88893924Y-57603419D02*
X88893924Y-57079609D01*
X88893924Y-57079609D02*
X88941543Y-56984371D01*
X88941543Y-56984371D02*
X89036781Y-56936752D01*
X89036781Y-56936752D02*
X89227257Y-56936752D01*
X89227257Y-56936752D02*
X89322495Y-56984371D01*
X88893924Y-57555800D02*
X88989162Y-57603419D01*
X88989162Y-57603419D02*
X89227257Y-57603419D01*
X89227257Y-57603419D02*
X89322495Y-57555800D01*
X89322495Y-57555800D02*
X89370114Y-57460561D01*
X89370114Y-57460561D02*
X89370114Y-57365323D01*
X89370114Y-57365323D02*
X89322495Y-57270085D01*
X89322495Y-57270085D02*
X89227257Y-57222466D01*
X89227257Y-57222466D02*
X88989162Y-57222466D01*
X88989162Y-57222466D02*
X88893924Y-57174847D01*
X88274876Y-57603419D02*
X88370114Y-57555800D01*
X88370114Y-57555800D02*
X88417733Y-57460561D01*
X88417733Y-57460561D02*
X88417733Y-56603419D01*
D11*
X91298685Y-58634281D02*
X91365351Y-58634281D01*
X91365351Y-58739043D02*
X91365351Y-58539043D01*
X91365351Y-58539043D02*
X91270113Y-58539043D01*
X91193922Y-58739043D02*
X91193922Y-58539043D01*
X91098684Y-58739043D02*
X91098684Y-58539043D01*
X91098684Y-58539043D02*
X91051065Y-58539043D01*
X91051065Y-58539043D02*
X91022494Y-58548567D01*
X91022494Y-58548567D02*
X91003446Y-58567615D01*
X91003446Y-58567615D02*
X90993923Y-58586662D01*
X90993923Y-58586662D02*
X90984399Y-58624758D01*
X90984399Y-58624758D02*
X90984399Y-58653329D01*
X90984399Y-58653329D02*
X90993923Y-58691424D01*
X90993923Y-58691424D02*
X91003446Y-58710472D01*
X91003446Y-58710472D02*
X91022494Y-58729520D01*
X91022494Y-58729520D02*
X91051065Y-58739043D01*
X91051065Y-58739043D02*
X91098684Y-58739043D01*
X90803446Y-58539043D02*
X90898684Y-58539043D01*
X90898684Y-58539043D02*
X90908208Y-58634281D01*
X90908208Y-58634281D02*
X90898684Y-58624758D01*
X90898684Y-58624758D02*
X90879637Y-58615234D01*
X90879637Y-58615234D02*
X90832018Y-58615234D01*
X90832018Y-58615234D02*
X90812970Y-58624758D01*
X90812970Y-58624758D02*
X90803446Y-58634281D01*
X90803446Y-58634281D02*
X90793923Y-58653329D01*
X90793923Y-58653329D02*
X90793923Y-58700948D01*
X90793923Y-58700948D02*
X90803446Y-58719996D01*
X90803446Y-58719996D02*
X90812970Y-58729520D01*
X90812970Y-58729520D02*
X90832018Y-58739043D01*
X90832018Y-58739043D02*
X90879637Y-58739043D01*
X90879637Y-58739043D02*
X90898684Y-58729520D01*
X90898684Y-58729520D02*
X90908208Y-58719996D01*
D10*
X62730952Y-63881009D02*
X63064285Y-63881009D01*
X63064285Y-64404819D02*
X63064285Y-63404819D01*
X63064285Y-63404819D02*
X62588095Y-63404819D01*
X62207142Y-64404819D02*
X62207142Y-63738152D01*
X62207142Y-63404819D02*
X62254761Y-63452438D01*
X62254761Y-63452438D02*
X62207142Y-63500057D01*
X62207142Y-63500057D02*
X62159523Y-63452438D01*
X62159523Y-63452438D02*
X62207142Y-63404819D01*
X62207142Y-63404819D02*
X62207142Y-63500057D01*
X61302381Y-64404819D02*
X61302381Y-63404819D01*
X61302381Y-64357200D02*
X61397619Y-64404819D01*
X61397619Y-64404819D02*
X61588095Y-64404819D01*
X61588095Y-64404819D02*
X61683333Y-64357200D01*
X61683333Y-64357200D02*
X61730952Y-64309580D01*
X61730952Y-64309580D02*
X61778571Y-64214342D01*
X61778571Y-64214342D02*
X61778571Y-63928628D01*
X61778571Y-63928628D02*
X61730952Y-63833390D01*
X61730952Y-63833390D02*
X61683333Y-63785771D01*
X61683333Y-63785771D02*
X61588095Y-63738152D01*
X61588095Y-63738152D02*
X61397619Y-63738152D01*
X61397619Y-63738152D02*
X61302381Y-63785771D01*
X60397619Y-63738152D02*
X60397619Y-64404819D01*
X60826190Y-63738152D02*
X60826190Y-64261961D01*
X60826190Y-64261961D02*
X60778571Y-64357200D01*
X60778571Y-64357200D02*
X60683333Y-64404819D01*
X60683333Y-64404819D02*
X60540476Y-64404819D01*
X60540476Y-64404819D02*
X60445238Y-64357200D01*
X60445238Y-64357200D02*
X60397619Y-64309580D01*
X59492857Y-64357200D02*
X59588095Y-64404819D01*
X59588095Y-64404819D02*
X59778571Y-64404819D01*
X59778571Y-64404819D02*
X59873809Y-64357200D01*
X59873809Y-64357200D02*
X59921428Y-64309580D01*
X59921428Y-64309580D02*
X59969047Y-64214342D01*
X59969047Y-64214342D02*
X59969047Y-63928628D01*
X59969047Y-63928628D02*
X59921428Y-63833390D01*
X59921428Y-63833390D02*
X59873809Y-63785771D01*
X59873809Y-63785771D02*
X59778571Y-63738152D01*
X59778571Y-63738152D02*
X59588095Y-63738152D01*
X59588095Y-63738152D02*
X59492857Y-63785771D01*
X59064285Y-64404819D02*
X59064285Y-63738152D01*
X59064285Y-63404819D02*
X59111904Y-63452438D01*
X59111904Y-63452438D02*
X59064285Y-63500057D01*
X59064285Y-63500057D02*
X59016666Y-63452438D01*
X59016666Y-63452438D02*
X59064285Y-63404819D01*
X59064285Y-63404819D02*
X59064285Y-63500057D01*
X58159524Y-64404819D02*
X58159524Y-63881009D01*
X58159524Y-63881009D02*
X58207143Y-63785771D01*
X58207143Y-63785771D02*
X58302381Y-63738152D01*
X58302381Y-63738152D02*
X58492857Y-63738152D01*
X58492857Y-63738152D02*
X58588095Y-63785771D01*
X58159524Y-64357200D02*
X58254762Y-64404819D01*
X58254762Y-64404819D02*
X58492857Y-64404819D01*
X58492857Y-64404819D02*
X58588095Y-64357200D01*
X58588095Y-64357200D02*
X58635714Y-64261961D01*
X58635714Y-64261961D02*
X58635714Y-64166723D01*
X58635714Y-64166723D02*
X58588095Y-64071485D01*
X58588095Y-64071485D02*
X58492857Y-64023866D01*
X58492857Y-64023866D02*
X58254762Y-64023866D01*
X58254762Y-64023866D02*
X58159524Y-63976247D01*
X57540476Y-64404819D02*
X57635714Y-64357200D01*
X57635714Y-64357200D02*
X57683333Y-64261961D01*
X57683333Y-64261961D02*
X57683333Y-63404819D01*
D11*
X60564285Y-65435681D02*
X60630951Y-65435681D01*
X60630951Y-65540443D02*
X60630951Y-65340443D01*
X60630951Y-65340443D02*
X60535713Y-65340443D01*
X60459522Y-65540443D02*
X60459522Y-65340443D01*
X60364284Y-65540443D02*
X60364284Y-65340443D01*
X60364284Y-65340443D02*
X60316665Y-65340443D01*
X60316665Y-65340443D02*
X60288094Y-65349967D01*
X60288094Y-65349967D02*
X60269046Y-65369015D01*
X60269046Y-65369015D02*
X60259523Y-65388062D01*
X60259523Y-65388062D02*
X60249999Y-65426158D01*
X60249999Y-65426158D02*
X60249999Y-65454729D01*
X60249999Y-65454729D02*
X60259523Y-65492824D01*
X60259523Y-65492824D02*
X60269046Y-65511872D01*
X60269046Y-65511872D02*
X60288094Y-65530920D01*
X60288094Y-65530920D02*
X60316665Y-65540443D01*
X60316665Y-65540443D02*
X60364284Y-65540443D01*
X60078570Y-65340443D02*
X60116665Y-65340443D01*
X60116665Y-65340443D02*
X60135713Y-65349967D01*
X60135713Y-65349967D02*
X60145237Y-65359491D01*
X60145237Y-65359491D02*
X60164284Y-65388062D01*
X60164284Y-65388062D02*
X60173808Y-65426158D01*
X60173808Y-65426158D02*
X60173808Y-65502348D01*
X60173808Y-65502348D02*
X60164284Y-65521396D01*
X60164284Y-65521396D02*
X60154761Y-65530920D01*
X60154761Y-65530920D02*
X60135713Y-65540443D01*
X60135713Y-65540443D02*
X60097618Y-65540443D01*
X60097618Y-65540443D02*
X60078570Y-65530920D01*
X60078570Y-65530920D02*
X60069046Y-65521396D01*
X60069046Y-65521396D02*
X60059523Y-65502348D01*
X60059523Y-65502348D02*
X60059523Y-65454729D01*
X60059523Y-65454729D02*
X60069046Y-65435681D01*
X60069046Y-65435681D02*
X60078570Y-65426158D01*
X60078570Y-65426158D02*
X60097618Y-65416634D01*
X60097618Y-65416634D02*
X60135713Y-65416634D01*
X60135713Y-65416634D02*
X60154761Y-65426158D01*
X60154761Y-65426158D02*
X60164284Y-65435681D01*
X60164284Y-65435681D02*
X60173808Y-65454729D01*
D10*
X57669104Y-65042856D02*
X57669104Y-65519046D01*
X57954819Y-64947618D02*
X56954819Y-65280951D01*
X56954819Y-65280951D02*
X57954819Y-65614284D01*
X57288152Y-65947618D02*
X57954819Y-65947618D01*
X57383390Y-65947618D02*
X57335771Y-65995237D01*
X57335771Y-65995237D02*
X57288152Y-66090475D01*
X57288152Y-66090475D02*
X57288152Y-66233332D01*
X57288152Y-66233332D02*
X57335771Y-66328570D01*
X57335771Y-66328570D02*
X57431009Y-66376189D01*
X57431009Y-66376189D02*
X57954819Y-66376189D01*
X57954819Y-67280951D02*
X57431009Y-67280951D01*
X57431009Y-67280951D02*
X57335771Y-67233332D01*
X57335771Y-67233332D02*
X57288152Y-67138094D01*
X57288152Y-67138094D02*
X57288152Y-66947618D01*
X57288152Y-66947618D02*
X57335771Y-66852380D01*
X57907200Y-67280951D02*
X57954819Y-67185713D01*
X57954819Y-67185713D02*
X57954819Y-66947618D01*
X57954819Y-66947618D02*
X57907200Y-66852380D01*
X57907200Y-66852380D02*
X57811961Y-66804761D01*
X57811961Y-66804761D02*
X57716723Y-66804761D01*
X57716723Y-66804761D02*
X57621485Y-66852380D01*
X57621485Y-66852380D02*
X57573866Y-66947618D01*
X57573866Y-66947618D02*
X57573866Y-67185713D01*
X57573866Y-67185713D02*
X57526247Y-67280951D01*
X57954819Y-67899999D02*
X57907200Y-67804761D01*
X57907200Y-67804761D02*
X57811961Y-67757142D01*
X57811961Y-67757142D02*
X56954819Y-67757142D01*
X57954819Y-68423809D02*
X57907200Y-68328571D01*
X57907200Y-68328571D02*
X57859580Y-68280952D01*
X57859580Y-68280952D02*
X57764342Y-68233333D01*
X57764342Y-68233333D02*
X57478628Y-68233333D01*
X57478628Y-68233333D02*
X57383390Y-68280952D01*
X57383390Y-68280952D02*
X57335771Y-68328571D01*
X57335771Y-68328571D02*
X57288152Y-68423809D01*
X57288152Y-68423809D02*
X57288152Y-68566666D01*
X57288152Y-68566666D02*
X57335771Y-68661904D01*
X57335771Y-68661904D02*
X57383390Y-68709523D01*
X57383390Y-68709523D02*
X57478628Y-68757142D01*
X57478628Y-68757142D02*
X57764342Y-68757142D01*
X57764342Y-68757142D02*
X57859580Y-68709523D01*
X57859580Y-68709523D02*
X57907200Y-68661904D01*
X57907200Y-68661904D02*
X57954819Y-68566666D01*
X57954819Y-68566666D02*
X57954819Y-68423809D01*
X57288152Y-69614285D02*
X58097676Y-69614285D01*
X58097676Y-69614285D02*
X58192914Y-69566666D01*
X58192914Y-69566666D02*
X58240533Y-69519047D01*
X58240533Y-69519047D02*
X58288152Y-69423809D01*
X58288152Y-69423809D02*
X58288152Y-69280952D01*
X58288152Y-69280952D02*
X58240533Y-69185714D01*
X57907200Y-69614285D02*
X57954819Y-69519047D01*
X57954819Y-69519047D02*
X57954819Y-69328571D01*
X57954819Y-69328571D02*
X57907200Y-69233333D01*
X57907200Y-69233333D02*
X57859580Y-69185714D01*
X57859580Y-69185714D02*
X57764342Y-69138095D01*
X57764342Y-69138095D02*
X57478628Y-69138095D01*
X57478628Y-69138095D02*
X57383390Y-69185714D01*
X57383390Y-69185714D02*
X57335771Y-69233333D01*
X57335771Y-69233333D02*
X57288152Y-69328571D01*
X57288152Y-69328571D02*
X57288152Y-69519047D01*
X57288152Y-69519047D02*
X57335771Y-69614285D01*
X57002438Y-71376190D02*
X56954819Y-71280952D01*
X56954819Y-71280952D02*
X56954819Y-71138095D01*
X56954819Y-71138095D02*
X57002438Y-70995238D01*
X57002438Y-70995238D02*
X57097676Y-70900000D01*
X57097676Y-70900000D02*
X57192914Y-70852381D01*
X57192914Y-70852381D02*
X57383390Y-70804762D01*
X57383390Y-70804762D02*
X57526247Y-70804762D01*
X57526247Y-70804762D02*
X57716723Y-70852381D01*
X57716723Y-70852381D02*
X57811961Y-70900000D01*
X57811961Y-70900000D02*
X57907200Y-70995238D01*
X57907200Y-70995238D02*
X57954819Y-71138095D01*
X57954819Y-71138095D02*
X57954819Y-71233333D01*
X57954819Y-71233333D02*
X57907200Y-71376190D01*
X57907200Y-71376190D02*
X57859580Y-71423809D01*
X57859580Y-71423809D02*
X57526247Y-71423809D01*
X57526247Y-71423809D02*
X57526247Y-71233333D01*
X57954819Y-71852381D02*
X57288152Y-71852381D01*
X57478628Y-71852381D02*
X57383390Y-71900000D01*
X57383390Y-71900000D02*
X57335771Y-71947619D01*
X57335771Y-71947619D02*
X57288152Y-72042857D01*
X57288152Y-72042857D02*
X57288152Y-72138095D01*
X57954819Y-72614286D02*
X57907200Y-72519048D01*
X57907200Y-72519048D02*
X57859580Y-72471429D01*
X57859580Y-72471429D02*
X57764342Y-72423810D01*
X57764342Y-72423810D02*
X57478628Y-72423810D01*
X57478628Y-72423810D02*
X57383390Y-72471429D01*
X57383390Y-72471429D02*
X57335771Y-72519048D01*
X57335771Y-72519048D02*
X57288152Y-72614286D01*
X57288152Y-72614286D02*
X57288152Y-72757143D01*
X57288152Y-72757143D02*
X57335771Y-72852381D01*
X57335771Y-72852381D02*
X57383390Y-72900000D01*
X57383390Y-72900000D02*
X57478628Y-72947619D01*
X57478628Y-72947619D02*
X57764342Y-72947619D01*
X57764342Y-72947619D02*
X57859580Y-72900000D01*
X57859580Y-72900000D02*
X57907200Y-72852381D01*
X57907200Y-72852381D02*
X57954819Y-72757143D01*
X57954819Y-72757143D02*
X57954819Y-72614286D01*
X57288152Y-73804762D02*
X57954819Y-73804762D01*
X57288152Y-73376191D02*
X57811961Y-73376191D01*
X57811961Y-73376191D02*
X57907200Y-73423810D01*
X57907200Y-73423810D02*
X57954819Y-73519048D01*
X57954819Y-73519048D02*
X57954819Y-73661905D01*
X57954819Y-73661905D02*
X57907200Y-73757143D01*
X57907200Y-73757143D02*
X57859580Y-73804762D01*
X57288152Y-74280953D02*
X57954819Y-74280953D01*
X57383390Y-74280953D02*
X57335771Y-74328572D01*
X57335771Y-74328572D02*
X57288152Y-74423810D01*
X57288152Y-74423810D02*
X57288152Y-74566667D01*
X57288152Y-74566667D02*
X57335771Y-74661905D01*
X57335771Y-74661905D02*
X57431009Y-74709524D01*
X57431009Y-74709524D02*
X57954819Y-74709524D01*
X57954819Y-75614286D02*
X56954819Y-75614286D01*
X57907200Y-75614286D02*
X57954819Y-75519048D01*
X57954819Y-75519048D02*
X57954819Y-75328572D01*
X57954819Y-75328572D02*
X57907200Y-75233334D01*
X57907200Y-75233334D02*
X57859580Y-75185715D01*
X57859580Y-75185715D02*
X57764342Y-75138096D01*
X57764342Y-75138096D02*
X57478628Y-75138096D01*
X57478628Y-75138096D02*
X57383390Y-75185715D01*
X57383390Y-75185715D02*
X57335771Y-75233334D01*
X57335771Y-75233334D02*
X57288152Y-75328572D01*
X57288152Y-75328572D02*
X57288152Y-75519048D01*
X57288152Y-75519048D02*
X57335771Y-75614286D01*
X57954819Y-76852382D02*
X56954819Y-76852382D01*
X56954819Y-76852382D02*
X57954819Y-77423810D01*
X57954819Y-77423810D02*
X56954819Y-77423810D01*
X57907200Y-78280953D02*
X57954819Y-78185715D01*
X57954819Y-78185715D02*
X57954819Y-77995239D01*
X57954819Y-77995239D02*
X57907200Y-77900001D01*
X57907200Y-77900001D02*
X57811961Y-77852382D01*
X57811961Y-77852382D02*
X57431009Y-77852382D01*
X57431009Y-77852382D02*
X57335771Y-77900001D01*
X57335771Y-77900001D02*
X57288152Y-77995239D01*
X57288152Y-77995239D02*
X57288152Y-78185715D01*
X57288152Y-78185715D02*
X57335771Y-78280953D01*
X57335771Y-78280953D02*
X57431009Y-78328572D01*
X57431009Y-78328572D02*
X57526247Y-78328572D01*
X57526247Y-78328572D02*
X57621485Y-77852382D01*
X57288152Y-78614287D02*
X57288152Y-78995239D01*
X56954819Y-78757144D02*
X57811961Y-78757144D01*
X57811961Y-78757144D02*
X57907200Y-78804763D01*
X57907200Y-78804763D02*
X57954819Y-78900001D01*
X57954819Y-78900001D02*
X57954819Y-78995239D01*
X56954819Y-79947621D02*
X56954819Y-80519049D01*
X57954819Y-80233335D02*
X56954819Y-80233335D01*
X57954819Y-80852383D02*
X57288152Y-80852383D01*
X56954819Y-80852383D02*
X57002438Y-80804764D01*
X57002438Y-80804764D02*
X57050057Y-80852383D01*
X57050057Y-80852383D02*
X57002438Y-80900002D01*
X57002438Y-80900002D02*
X56954819Y-80852383D01*
X56954819Y-80852383D02*
X57050057Y-80852383D01*
X57907200Y-81709525D02*
X57954819Y-81614287D01*
X57954819Y-81614287D02*
X57954819Y-81423811D01*
X57954819Y-81423811D02*
X57907200Y-81328573D01*
X57907200Y-81328573D02*
X57811961Y-81280954D01*
X57811961Y-81280954D02*
X57431009Y-81280954D01*
X57431009Y-81280954D02*
X57335771Y-81328573D01*
X57335771Y-81328573D02*
X57288152Y-81423811D01*
X57288152Y-81423811D02*
X57288152Y-81614287D01*
X57288152Y-81614287D02*
X57335771Y-81709525D01*
X57335771Y-81709525D02*
X57431009Y-81757144D01*
X57431009Y-81757144D02*
X57526247Y-81757144D01*
X57526247Y-81757144D02*
X57621485Y-81280954D01*
X48664713Y-64587819D02*
X48093285Y-64587819D01*
X48378999Y-65587819D02*
X48378999Y-64587819D01*
X47759951Y-65587819D02*
X47759951Y-64587819D01*
X47759951Y-64587819D02*
X47378999Y-64587819D01*
X47378999Y-64587819D02*
X47283761Y-64635438D01*
X47283761Y-64635438D02*
X47236142Y-64683057D01*
X47236142Y-64683057D02*
X47188523Y-64778295D01*
X47188523Y-64778295D02*
X47188523Y-64921152D01*
X47188523Y-64921152D02*
X47236142Y-65016390D01*
X47236142Y-65016390D02*
X47283761Y-65064009D01*
X47283761Y-65064009D02*
X47378999Y-65111628D01*
X47378999Y-65111628D02*
X47759951Y-65111628D01*
X49140904Y-68637819D02*
X48569476Y-68637819D01*
X48855190Y-69637819D02*
X48855190Y-68637819D01*
X48236142Y-69637819D02*
X48236142Y-68637819D01*
X48236142Y-68637819D02*
X47855190Y-68637819D01*
X47855190Y-68637819D02*
X47759952Y-68685438D01*
X47759952Y-68685438D02*
X47712333Y-68733057D01*
X47712333Y-68733057D02*
X47664714Y-68828295D01*
X47664714Y-68828295D02*
X47664714Y-68971152D01*
X47664714Y-68971152D02*
X47712333Y-69066390D01*
X47712333Y-69066390D02*
X47759952Y-69114009D01*
X47759952Y-69114009D02*
X47855190Y-69161628D01*
X47855190Y-69161628D02*
X48236142Y-69161628D01*
X46712333Y-69637819D02*
X47283761Y-69637819D01*
X46998047Y-69637819D02*
X46998047Y-68637819D01*
X46998047Y-68637819D02*
X47093285Y-68780676D01*
X47093285Y-68780676D02*
X47188523Y-68875914D01*
X47188523Y-68875914D02*
X47283761Y-68923533D01*
X44282200Y-29527714D02*
X44329819Y-29670571D01*
X44329819Y-29670571D02*
X44329819Y-29908666D01*
X44329819Y-29908666D02*
X44282200Y-30003904D01*
X44282200Y-30003904D02*
X44234580Y-30051523D01*
X44234580Y-30051523D02*
X44139342Y-30099142D01*
X44139342Y-30099142D02*
X44044104Y-30099142D01*
X44044104Y-30099142D02*
X43948866Y-30051523D01*
X43948866Y-30051523D02*
X43901247Y-30003904D01*
X43901247Y-30003904D02*
X43853628Y-29908666D01*
X43853628Y-29908666D02*
X43806009Y-29718190D01*
X43806009Y-29718190D02*
X43758390Y-29622952D01*
X43758390Y-29622952D02*
X43710771Y-29575333D01*
X43710771Y-29575333D02*
X43615533Y-29527714D01*
X43615533Y-29527714D02*
X43520295Y-29527714D01*
X43520295Y-29527714D02*
X43425057Y-29575333D01*
X43425057Y-29575333D02*
X43377438Y-29622952D01*
X43377438Y-29622952D02*
X43329819Y-29718190D01*
X43329819Y-29718190D02*
X43329819Y-29956285D01*
X43329819Y-29956285D02*
X43377438Y-30099142D01*
X44282200Y-30480095D02*
X44329819Y-30622952D01*
X44329819Y-30622952D02*
X44329819Y-30861047D01*
X44329819Y-30861047D02*
X44282200Y-30956285D01*
X44282200Y-30956285D02*
X44234580Y-31003904D01*
X44234580Y-31003904D02*
X44139342Y-31051523D01*
X44139342Y-31051523D02*
X44044104Y-31051523D01*
X44044104Y-31051523D02*
X43948866Y-31003904D01*
X43948866Y-31003904D02*
X43901247Y-30956285D01*
X43901247Y-30956285D02*
X43853628Y-30861047D01*
X43853628Y-30861047D02*
X43806009Y-30670571D01*
X43806009Y-30670571D02*
X43758390Y-30575333D01*
X43758390Y-30575333D02*
X43710771Y-30527714D01*
X43710771Y-30527714D02*
X43615533Y-30480095D01*
X43615533Y-30480095D02*
X43520295Y-30480095D01*
X43520295Y-30480095D02*
X43425057Y-30527714D01*
X43425057Y-30527714D02*
X43377438Y-30575333D01*
X43377438Y-30575333D02*
X43329819Y-30670571D01*
X43329819Y-30670571D02*
X43329819Y-30908666D01*
X43329819Y-30908666D02*
X43377438Y-31051523D01*
X43329819Y-31956285D02*
X43329819Y-31480095D01*
X43329819Y-31480095D02*
X43806009Y-31432476D01*
X43806009Y-31432476D02*
X43758390Y-31480095D01*
X43758390Y-31480095D02*
X43710771Y-31575333D01*
X43710771Y-31575333D02*
X43710771Y-31813428D01*
X43710771Y-31813428D02*
X43758390Y-31908666D01*
X43758390Y-31908666D02*
X43806009Y-31956285D01*
X43806009Y-31956285D02*
X43901247Y-32003904D01*
X43901247Y-32003904D02*
X44139342Y-32003904D01*
X44139342Y-32003904D02*
X44234580Y-31956285D01*
X44234580Y-31956285D02*
X44282200Y-31908666D01*
X44282200Y-31908666D02*
X44329819Y-31813428D01*
X44329819Y-31813428D02*
X44329819Y-31575333D01*
X44329819Y-31575333D02*
X44282200Y-31480095D01*
X44282200Y-31480095D02*
X44234580Y-31432476D01*
X43663152Y-32861047D02*
X44329819Y-32861047D01*
X43282200Y-32622952D02*
X43996485Y-32384857D01*
X43996485Y-32384857D02*
X43996485Y-33003904D01*
X39229819Y-30503905D02*
X38229819Y-30503905D01*
X38229819Y-30503905D02*
X38229819Y-30742000D01*
X38229819Y-30742000D02*
X38277438Y-30884857D01*
X38277438Y-30884857D02*
X38372676Y-30980095D01*
X38372676Y-30980095D02*
X38467914Y-31027714D01*
X38467914Y-31027714D02*
X38658390Y-31075333D01*
X38658390Y-31075333D02*
X38801247Y-31075333D01*
X38801247Y-31075333D02*
X38991723Y-31027714D01*
X38991723Y-31027714D02*
X39086961Y-30980095D01*
X39086961Y-30980095D02*
X39182200Y-30884857D01*
X39182200Y-30884857D02*
X39229819Y-30742000D01*
X39229819Y-30742000D02*
X39229819Y-30503905D01*
X38563152Y-31932476D02*
X39229819Y-31932476D01*
X38182200Y-31694381D02*
X38896485Y-31456286D01*
X38896485Y-31456286D02*
X38896485Y-32075333D01*
X37401285Y-30566200D02*
X37258428Y-30613819D01*
X37258428Y-30613819D02*
X37020333Y-30613819D01*
X37020333Y-30613819D02*
X36925095Y-30566200D01*
X36925095Y-30566200D02*
X36877476Y-30518580D01*
X36877476Y-30518580D02*
X36829857Y-30423342D01*
X36829857Y-30423342D02*
X36829857Y-30328104D01*
X36829857Y-30328104D02*
X36877476Y-30232866D01*
X36877476Y-30232866D02*
X36925095Y-30185247D01*
X36925095Y-30185247D02*
X37020333Y-30137628D01*
X37020333Y-30137628D02*
X37210809Y-30090009D01*
X37210809Y-30090009D02*
X37306047Y-30042390D01*
X37306047Y-30042390D02*
X37353666Y-29994771D01*
X37353666Y-29994771D02*
X37401285Y-29899533D01*
X37401285Y-29899533D02*
X37401285Y-29804295D01*
X37401285Y-29804295D02*
X37353666Y-29709057D01*
X37353666Y-29709057D02*
X37306047Y-29661438D01*
X37306047Y-29661438D02*
X37210809Y-29613819D01*
X37210809Y-29613819D02*
X36972714Y-29613819D01*
X36972714Y-29613819D02*
X36829857Y-29661438D01*
X36448904Y-30566200D02*
X36306047Y-30613819D01*
X36306047Y-30613819D02*
X36067952Y-30613819D01*
X36067952Y-30613819D02*
X35972714Y-30566200D01*
X35972714Y-30566200D02*
X35925095Y-30518580D01*
X35925095Y-30518580D02*
X35877476Y-30423342D01*
X35877476Y-30423342D02*
X35877476Y-30328104D01*
X35877476Y-30328104D02*
X35925095Y-30232866D01*
X35925095Y-30232866D02*
X35972714Y-30185247D01*
X35972714Y-30185247D02*
X36067952Y-30137628D01*
X36067952Y-30137628D02*
X36258428Y-30090009D01*
X36258428Y-30090009D02*
X36353666Y-30042390D01*
X36353666Y-30042390D02*
X36401285Y-29994771D01*
X36401285Y-29994771D02*
X36448904Y-29899533D01*
X36448904Y-29899533D02*
X36448904Y-29804295D01*
X36448904Y-29804295D02*
X36401285Y-29709057D01*
X36401285Y-29709057D02*
X36353666Y-29661438D01*
X36353666Y-29661438D02*
X36258428Y-29613819D01*
X36258428Y-29613819D02*
X36020333Y-29613819D01*
X36020333Y-29613819D02*
X35877476Y-29661438D01*
X34972714Y-29613819D02*
X35448904Y-29613819D01*
X35448904Y-29613819D02*
X35496523Y-30090009D01*
X35496523Y-30090009D02*
X35448904Y-30042390D01*
X35448904Y-30042390D02*
X35353666Y-29994771D01*
X35353666Y-29994771D02*
X35115571Y-29994771D01*
X35115571Y-29994771D02*
X35020333Y-30042390D01*
X35020333Y-30042390D02*
X34972714Y-30090009D01*
X34972714Y-30090009D02*
X34925095Y-30185247D01*
X34925095Y-30185247D02*
X34925095Y-30423342D01*
X34925095Y-30423342D02*
X34972714Y-30518580D01*
X34972714Y-30518580D02*
X35020333Y-30566200D01*
X35020333Y-30566200D02*
X35115571Y-30613819D01*
X35115571Y-30613819D02*
X35353666Y-30613819D01*
X35353666Y-30613819D02*
X35448904Y-30566200D01*
X35448904Y-30566200D02*
X35496523Y-30518580D01*
X34067952Y-29947152D02*
X34067952Y-30613819D01*
X34306047Y-29566200D02*
X34544142Y-30280485D01*
X34544142Y-30280485D02*
X33925095Y-30280485D01*
X36425094Y-25513819D02*
X36425094Y-24513819D01*
X36425094Y-24513819D02*
X36186999Y-24513819D01*
X36186999Y-24513819D02*
X36044142Y-24561438D01*
X36044142Y-24561438D02*
X35948904Y-24656676D01*
X35948904Y-24656676D02*
X35901285Y-24751914D01*
X35901285Y-24751914D02*
X35853666Y-24942390D01*
X35853666Y-24942390D02*
X35853666Y-25085247D01*
X35853666Y-25085247D02*
X35901285Y-25275723D01*
X35901285Y-25275723D02*
X35948904Y-25370961D01*
X35948904Y-25370961D02*
X36044142Y-25466200D01*
X36044142Y-25466200D02*
X36186999Y-25513819D01*
X36186999Y-25513819D02*
X36425094Y-25513819D01*
X34948904Y-24513819D02*
X35425094Y-24513819D01*
X35425094Y-24513819D02*
X35472713Y-24990009D01*
X35472713Y-24990009D02*
X35425094Y-24942390D01*
X35425094Y-24942390D02*
X35329856Y-24894771D01*
X35329856Y-24894771D02*
X35091761Y-24894771D01*
X35091761Y-24894771D02*
X34996523Y-24942390D01*
X34996523Y-24942390D02*
X34948904Y-24990009D01*
X34948904Y-24990009D02*
X34901285Y-25085247D01*
X34901285Y-25085247D02*
X34901285Y-25323342D01*
X34901285Y-25323342D02*
X34948904Y-25418580D01*
X34948904Y-25418580D02*
X34996523Y-25466200D01*
X34996523Y-25466200D02*
X35091761Y-25513819D01*
X35091761Y-25513819D02*
X35329856Y-25513819D01*
X35329856Y-25513819D02*
X35425094Y-25466200D01*
X35425094Y-25466200D02*
X35472713Y-25418580D01*
X37401285Y-27010200D02*
X37258428Y-27057819D01*
X37258428Y-27057819D02*
X37020333Y-27057819D01*
X37020333Y-27057819D02*
X36925095Y-27010200D01*
X36925095Y-27010200D02*
X36877476Y-26962580D01*
X36877476Y-26962580D02*
X36829857Y-26867342D01*
X36829857Y-26867342D02*
X36829857Y-26772104D01*
X36829857Y-26772104D02*
X36877476Y-26676866D01*
X36877476Y-26676866D02*
X36925095Y-26629247D01*
X36925095Y-26629247D02*
X37020333Y-26581628D01*
X37020333Y-26581628D02*
X37210809Y-26534009D01*
X37210809Y-26534009D02*
X37306047Y-26486390D01*
X37306047Y-26486390D02*
X37353666Y-26438771D01*
X37353666Y-26438771D02*
X37401285Y-26343533D01*
X37401285Y-26343533D02*
X37401285Y-26248295D01*
X37401285Y-26248295D02*
X37353666Y-26153057D01*
X37353666Y-26153057D02*
X37306047Y-26105438D01*
X37306047Y-26105438D02*
X37210809Y-26057819D01*
X37210809Y-26057819D02*
X36972714Y-26057819D01*
X36972714Y-26057819D02*
X36829857Y-26105438D01*
X36448904Y-27010200D02*
X36306047Y-27057819D01*
X36306047Y-27057819D02*
X36067952Y-27057819D01*
X36067952Y-27057819D02*
X35972714Y-27010200D01*
X35972714Y-27010200D02*
X35925095Y-26962580D01*
X35925095Y-26962580D02*
X35877476Y-26867342D01*
X35877476Y-26867342D02*
X35877476Y-26772104D01*
X35877476Y-26772104D02*
X35925095Y-26676866D01*
X35925095Y-26676866D02*
X35972714Y-26629247D01*
X35972714Y-26629247D02*
X36067952Y-26581628D01*
X36067952Y-26581628D02*
X36258428Y-26534009D01*
X36258428Y-26534009D02*
X36353666Y-26486390D01*
X36353666Y-26486390D02*
X36401285Y-26438771D01*
X36401285Y-26438771D02*
X36448904Y-26343533D01*
X36448904Y-26343533D02*
X36448904Y-26248295D01*
X36448904Y-26248295D02*
X36401285Y-26153057D01*
X36401285Y-26153057D02*
X36353666Y-26105438D01*
X36353666Y-26105438D02*
X36258428Y-26057819D01*
X36258428Y-26057819D02*
X36020333Y-26057819D01*
X36020333Y-26057819D02*
X35877476Y-26105438D01*
X34972714Y-26057819D02*
X35448904Y-26057819D01*
X35448904Y-26057819D02*
X35496523Y-26534009D01*
X35496523Y-26534009D02*
X35448904Y-26486390D01*
X35448904Y-26486390D02*
X35353666Y-26438771D01*
X35353666Y-26438771D02*
X35115571Y-26438771D01*
X35115571Y-26438771D02*
X35020333Y-26486390D01*
X35020333Y-26486390D02*
X34972714Y-26534009D01*
X34972714Y-26534009D02*
X34925095Y-26629247D01*
X34925095Y-26629247D02*
X34925095Y-26867342D01*
X34925095Y-26867342D02*
X34972714Y-26962580D01*
X34972714Y-26962580D02*
X35020333Y-27010200D01*
X35020333Y-27010200D02*
X35115571Y-27057819D01*
X35115571Y-27057819D02*
X35353666Y-27057819D01*
X35353666Y-27057819D02*
X35448904Y-27010200D01*
X35448904Y-27010200D02*
X35496523Y-26962580D01*
X34067952Y-26391152D02*
X34067952Y-27057819D01*
X34306047Y-26010200D02*
X34544142Y-26724485D01*
X34544142Y-26724485D02*
X33925095Y-26724485D01*
X36425094Y-21957819D02*
X36425094Y-20957819D01*
X36425094Y-20957819D02*
X36186999Y-20957819D01*
X36186999Y-20957819D02*
X36044142Y-21005438D01*
X36044142Y-21005438D02*
X35948904Y-21100676D01*
X35948904Y-21100676D02*
X35901285Y-21195914D01*
X35901285Y-21195914D02*
X35853666Y-21386390D01*
X35853666Y-21386390D02*
X35853666Y-21529247D01*
X35853666Y-21529247D02*
X35901285Y-21719723D01*
X35901285Y-21719723D02*
X35948904Y-21814961D01*
X35948904Y-21814961D02*
X36044142Y-21910200D01*
X36044142Y-21910200D02*
X36186999Y-21957819D01*
X36186999Y-21957819D02*
X36425094Y-21957819D01*
X34996523Y-20957819D02*
X35186999Y-20957819D01*
X35186999Y-20957819D02*
X35282237Y-21005438D01*
X35282237Y-21005438D02*
X35329856Y-21053057D01*
X35329856Y-21053057D02*
X35425094Y-21195914D01*
X35425094Y-21195914D02*
X35472713Y-21386390D01*
X35472713Y-21386390D02*
X35472713Y-21767342D01*
X35472713Y-21767342D02*
X35425094Y-21862580D01*
X35425094Y-21862580D02*
X35377475Y-21910200D01*
X35377475Y-21910200D02*
X35282237Y-21957819D01*
X35282237Y-21957819D02*
X35091761Y-21957819D01*
X35091761Y-21957819D02*
X34996523Y-21910200D01*
X34996523Y-21910200D02*
X34948904Y-21862580D01*
X34948904Y-21862580D02*
X34901285Y-21767342D01*
X34901285Y-21767342D02*
X34901285Y-21529247D01*
X34901285Y-21529247D02*
X34948904Y-21434009D01*
X34948904Y-21434009D02*
X34996523Y-21386390D01*
X34996523Y-21386390D02*
X35091761Y-21338771D01*
X35091761Y-21338771D02*
X35282237Y-21338771D01*
X35282237Y-21338771D02*
X35377475Y-21386390D01*
X35377475Y-21386390D02*
X35425094Y-21434009D01*
X35425094Y-21434009D02*
X35472713Y-21529247D01*
X37401285Y-34122200D02*
X37258428Y-34169819D01*
X37258428Y-34169819D02*
X37020333Y-34169819D01*
X37020333Y-34169819D02*
X36925095Y-34122200D01*
X36925095Y-34122200D02*
X36877476Y-34074580D01*
X36877476Y-34074580D02*
X36829857Y-33979342D01*
X36829857Y-33979342D02*
X36829857Y-33884104D01*
X36829857Y-33884104D02*
X36877476Y-33788866D01*
X36877476Y-33788866D02*
X36925095Y-33741247D01*
X36925095Y-33741247D02*
X37020333Y-33693628D01*
X37020333Y-33693628D02*
X37210809Y-33646009D01*
X37210809Y-33646009D02*
X37306047Y-33598390D01*
X37306047Y-33598390D02*
X37353666Y-33550771D01*
X37353666Y-33550771D02*
X37401285Y-33455533D01*
X37401285Y-33455533D02*
X37401285Y-33360295D01*
X37401285Y-33360295D02*
X37353666Y-33265057D01*
X37353666Y-33265057D02*
X37306047Y-33217438D01*
X37306047Y-33217438D02*
X37210809Y-33169819D01*
X37210809Y-33169819D02*
X36972714Y-33169819D01*
X36972714Y-33169819D02*
X36829857Y-33217438D01*
X36448904Y-34122200D02*
X36306047Y-34169819D01*
X36306047Y-34169819D02*
X36067952Y-34169819D01*
X36067952Y-34169819D02*
X35972714Y-34122200D01*
X35972714Y-34122200D02*
X35925095Y-34074580D01*
X35925095Y-34074580D02*
X35877476Y-33979342D01*
X35877476Y-33979342D02*
X35877476Y-33884104D01*
X35877476Y-33884104D02*
X35925095Y-33788866D01*
X35925095Y-33788866D02*
X35972714Y-33741247D01*
X35972714Y-33741247D02*
X36067952Y-33693628D01*
X36067952Y-33693628D02*
X36258428Y-33646009D01*
X36258428Y-33646009D02*
X36353666Y-33598390D01*
X36353666Y-33598390D02*
X36401285Y-33550771D01*
X36401285Y-33550771D02*
X36448904Y-33455533D01*
X36448904Y-33455533D02*
X36448904Y-33360295D01*
X36448904Y-33360295D02*
X36401285Y-33265057D01*
X36401285Y-33265057D02*
X36353666Y-33217438D01*
X36353666Y-33217438D02*
X36258428Y-33169819D01*
X36258428Y-33169819D02*
X36020333Y-33169819D01*
X36020333Y-33169819D02*
X35877476Y-33217438D01*
X34972714Y-33169819D02*
X35448904Y-33169819D01*
X35448904Y-33169819D02*
X35496523Y-33646009D01*
X35496523Y-33646009D02*
X35448904Y-33598390D01*
X35448904Y-33598390D02*
X35353666Y-33550771D01*
X35353666Y-33550771D02*
X35115571Y-33550771D01*
X35115571Y-33550771D02*
X35020333Y-33598390D01*
X35020333Y-33598390D02*
X34972714Y-33646009D01*
X34972714Y-33646009D02*
X34925095Y-33741247D01*
X34925095Y-33741247D02*
X34925095Y-33979342D01*
X34925095Y-33979342D02*
X34972714Y-34074580D01*
X34972714Y-34074580D02*
X35020333Y-34122200D01*
X35020333Y-34122200D02*
X35115571Y-34169819D01*
X35115571Y-34169819D02*
X35353666Y-34169819D01*
X35353666Y-34169819D02*
X35448904Y-34122200D01*
X35448904Y-34122200D02*
X35496523Y-34074580D01*
X34067952Y-33503152D02*
X34067952Y-34169819D01*
X34306047Y-33122200D02*
X34544142Y-33836485D01*
X34544142Y-33836485D02*
X33925095Y-33836485D01*
X36425094Y-29069819D02*
X36425094Y-28069819D01*
X36425094Y-28069819D02*
X36186999Y-28069819D01*
X36186999Y-28069819D02*
X36044142Y-28117438D01*
X36044142Y-28117438D02*
X35948904Y-28212676D01*
X35948904Y-28212676D02*
X35901285Y-28307914D01*
X35901285Y-28307914D02*
X35853666Y-28498390D01*
X35853666Y-28498390D02*
X35853666Y-28641247D01*
X35853666Y-28641247D02*
X35901285Y-28831723D01*
X35901285Y-28831723D02*
X35948904Y-28926961D01*
X35948904Y-28926961D02*
X36044142Y-29022200D01*
X36044142Y-29022200D02*
X36186999Y-29069819D01*
X36186999Y-29069819D02*
X36425094Y-29069819D01*
X35520332Y-28069819D02*
X34901285Y-28069819D01*
X34901285Y-28069819D02*
X35234618Y-28450771D01*
X35234618Y-28450771D02*
X35091761Y-28450771D01*
X35091761Y-28450771D02*
X34996523Y-28498390D01*
X34996523Y-28498390D02*
X34948904Y-28546009D01*
X34948904Y-28546009D02*
X34901285Y-28641247D01*
X34901285Y-28641247D02*
X34901285Y-28879342D01*
X34901285Y-28879342D02*
X34948904Y-28974580D01*
X34948904Y-28974580D02*
X34996523Y-29022200D01*
X34996523Y-29022200D02*
X35091761Y-29069819D01*
X35091761Y-29069819D02*
X35377475Y-29069819D01*
X35377475Y-29069819D02*
X35472713Y-29022200D01*
X35472713Y-29022200D02*
X35520332Y-28974580D01*
X95088095Y-78559580D02*
X95135714Y-78607200D01*
X95135714Y-78607200D02*
X95278571Y-78654819D01*
X95278571Y-78654819D02*
X95373809Y-78654819D01*
X95373809Y-78654819D02*
X95516666Y-78607200D01*
X95516666Y-78607200D02*
X95611904Y-78511961D01*
X95611904Y-78511961D02*
X95659523Y-78416723D01*
X95659523Y-78416723D02*
X95707142Y-78226247D01*
X95707142Y-78226247D02*
X95707142Y-78083390D01*
X95707142Y-78083390D02*
X95659523Y-77892914D01*
X95659523Y-77892914D02*
X95611904Y-77797676D01*
X95611904Y-77797676D02*
X95516666Y-77702438D01*
X95516666Y-77702438D02*
X95373809Y-77654819D01*
X95373809Y-77654819D02*
X95278571Y-77654819D01*
X95278571Y-77654819D02*
X95135714Y-77702438D01*
X95135714Y-77702438D02*
X95088095Y-77750057D01*
X94516666Y-78654819D02*
X94611904Y-78607200D01*
X94611904Y-78607200D02*
X94659523Y-78559580D01*
X94659523Y-78559580D02*
X94707142Y-78464342D01*
X94707142Y-78464342D02*
X94707142Y-78178628D01*
X94707142Y-78178628D02*
X94659523Y-78083390D01*
X94659523Y-78083390D02*
X94611904Y-78035771D01*
X94611904Y-78035771D02*
X94516666Y-77988152D01*
X94516666Y-77988152D02*
X94373809Y-77988152D01*
X94373809Y-77988152D02*
X94278571Y-78035771D01*
X94278571Y-78035771D02*
X94230952Y-78083390D01*
X94230952Y-78083390D02*
X94183333Y-78178628D01*
X94183333Y-78178628D02*
X94183333Y-78464342D01*
X94183333Y-78464342D02*
X94230952Y-78559580D01*
X94230952Y-78559580D02*
X94278571Y-78607200D01*
X94278571Y-78607200D02*
X94373809Y-78654819D01*
X94373809Y-78654819D02*
X94516666Y-78654819D01*
X93754761Y-77988152D02*
X93754761Y-78654819D01*
X93754761Y-78083390D02*
X93707142Y-78035771D01*
X93707142Y-78035771D02*
X93611904Y-77988152D01*
X93611904Y-77988152D02*
X93469047Y-77988152D01*
X93469047Y-77988152D02*
X93373809Y-78035771D01*
X93373809Y-78035771D02*
X93326190Y-78131009D01*
X93326190Y-78131009D02*
X93326190Y-78654819D01*
X92849999Y-77988152D02*
X92849999Y-78654819D01*
X92849999Y-78083390D02*
X92802380Y-78035771D01*
X92802380Y-78035771D02*
X92707142Y-77988152D01*
X92707142Y-77988152D02*
X92564285Y-77988152D01*
X92564285Y-77988152D02*
X92469047Y-78035771D01*
X92469047Y-78035771D02*
X92421428Y-78131009D01*
X92421428Y-78131009D02*
X92421428Y-78654819D01*
X92183333Y-78750057D02*
X91421428Y-78750057D01*
X90992856Y-77654819D02*
X90897618Y-77654819D01*
X90897618Y-77654819D02*
X90802380Y-77702438D01*
X90802380Y-77702438D02*
X90754761Y-77750057D01*
X90754761Y-77750057D02*
X90707142Y-77845295D01*
X90707142Y-77845295D02*
X90659523Y-78035771D01*
X90659523Y-78035771D02*
X90659523Y-78273866D01*
X90659523Y-78273866D02*
X90707142Y-78464342D01*
X90707142Y-78464342D02*
X90754761Y-78559580D01*
X90754761Y-78559580D02*
X90802380Y-78607200D01*
X90802380Y-78607200D02*
X90897618Y-78654819D01*
X90897618Y-78654819D02*
X90992856Y-78654819D01*
X90992856Y-78654819D02*
X91088094Y-78607200D01*
X91088094Y-78607200D02*
X91135713Y-78559580D01*
X91135713Y-78559580D02*
X91183332Y-78464342D01*
X91183332Y-78464342D02*
X91230951Y-78273866D01*
X91230951Y-78273866D02*
X91230951Y-78035771D01*
X91230951Y-78035771D02*
X91183332Y-77845295D01*
X91183332Y-77845295D02*
X91135713Y-77750057D01*
X91135713Y-77750057D02*
X91088094Y-77702438D01*
X91088094Y-77702438D02*
X90992856Y-77654819D01*
X89707142Y-78654819D02*
X90278570Y-78654819D01*
X89992856Y-78654819D02*
X89992856Y-77654819D01*
X89992856Y-77654819D02*
X90088094Y-77797676D01*
X90088094Y-77797676D02*
X90183332Y-77892914D01*
X90183332Y-77892914D02*
X90278570Y-77940533D01*
X89373808Y-78654819D02*
X88849999Y-77988152D01*
X89373808Y-77988152D02*
X88849999Y-78654819D01*
X88278570Y-77654819D02*
X88183332Y-77654819D01*
X88183332Y-77654819D02*
X88088094Y-77702438D01*
X88088094Y-77702438D02*
X88040475Y-77750057D01*
X88040475Y-77750057D02*
X87992856Y-77845295D01*
X87992856Y-77845295D02*
X87945237Y-78035771D01*
X87945237Y-78035771D02*
X87945237Y-78273866D01*
X87945237Y-78273866D02*
X87992856Y-78464342D01*
X87992856Y-78464342D02*
X88040475Y-78559580D01*
X88040475Y-78559580D02*
X88088094Y-78607200D01*
X88088094Y-78607200D02*
X88183332Y-78654819D01*
X88183332Y-78654819D02*
X88278570Y-78654819D01*
X88278570Y-78654819D02*
X88373808Y-78607200D01*
X88373808Y-78607200D02*
X88421427Y-78559580D01*
X88421427Y-78559580D02*
X88469046Y-78464342D01*
X88469046Y-78464342D02*
X88516665Y-78273866D01*
X88516665Y-78273866D02*
X88516665Y-78035771D01*
X88516665Y-78035771D02*
X88469046Y-77845295D01*
X88469046Y-77845295D02*
X88421427Y-77750057D01*
X88421427Y-77750057D02*
X88373808Y-77702438D01*
X88373808Y-77702438D02*
X88278570Y-77654819D01*
X86992856Y-78654819D02*
X87564284Y-78654819D01*
X87278570Y-78654819D02*
X87278570Y-77654819D01*
X87278570Y-77654819D02*
X87373808Y-77797676D01*
X87373808Y-77797676D02*
X87469046Y-77892914D01*
X87469046Y-77892914D02*
X87564284Y-77940533D01*
X92159523Y-74054819D02*
X92159523Y-74769104D01*
X92159523Y-74769104D02*
X92207142Y-74911961D01*
X92207142Y-74911961D02*
X92302380Y-75007200D01*
X92302380Y-75007200D02*
X92445237Y-75054819D01*
X92445237Y-75054819D02*
X92540475Y-75054819D01*
X91159523Y-75054819D02*
X91730951Y-75054819D01*
X91445237Y-75054819D02*
X91445237Y-74054819D01*
X91445237Y-74054819D02*
X91540475Y-74197676D01*
X91540475Y-74197676D02*
X91635713Y-74292914D01*
X91635713Y-74292914D02*
X91730951Y-74340533D01*
X90826189Y-74054819D02*
X90159523Y-74054819D01*
X90159523Y-74054819D02*
X90588094Y-75054819D01*
X79388095Y-62559580D02*
X79435714Y-62607200D01*
X79435714Y-62607200D02*
X79578571Y-62654819D01*
X79578571Y-62654819D02*
X79673809Y-62654819D01*
X79673809Y-62654819D02*
X79816666Y-62607200D01*
X79816666Y-62607200D02*
X79911904Y-62511961D01*
X79911904Y-62511961D02*
X79959523Y-62416723D01*
X79959523Y-62416723D02*
X80007142Y-62226247D01*
X80007142Y-62226247D02*
X80007142Y-62083390D01*
X80007142Y-62083390D02*
X79959523Y-61892914D01*
X79959523Y-61892914D02*
X79911904Y-61797676D01*
X79911904Y-61797676D02*
X79816666Y-61702438D01*
X79816666Y-61702438D02*
X79673809Y-61654819D01*
X79673809Y-61654819D02*
X79578571Y-61654819D01*
X79578571Y-61654819D02*
X79435714Y-61702438D01*
X79435714Y-61702438D02*
X79388095Y-61750057D01*
X78816666Y-62654819D02*
X78911904Y-62607200D01*
X78911904Y-62607200D02*
X78959523Y-62559580D01*
X78959523Y-62559580D02*
X79007142Y-62464342D01*
X79007142Y-62464342D02*
X79007142Y-62178628D01*
X79007142Y-62178628D02*
X78959523Y-62083390D01*
X78959523Y-62083390D02*
X78911904Y-62035771D01*
X78911904Y-62035771D02*
X78816666Y-61988152D01*
X78816666Y-61988152D02*
X78673809Y-61988152D01*
X78673809Y-61988152D02*
X78578571Y-62035771D01*
X78578571Y-62035771D02*
X78530952Y-62083390D01*
X78530952Y-62083390D02*
X78483333Y-62178628D01*
X78483333Y-62178628D02*
X78483333Y-62464342D01*
X78483333Y-62464342D02*
X78530952Y-62559580D01*
X78530952Y-62559580D02*
X78578571Y-62607200D01*
X78578571Y-62607200D02*
X78673809Y-62654819D01*
X78673809Y-62654819D02*
X78816666Y-62654819D01*
X78054761Y-61988152D02*
X78054761Y-62654819D01*
X78054761Y-62083390D02*
X78007142Y-62035771D01*
X78007142Y-62035771D02*
X77911904Y-61988152D01*
X77911904Y-61988152D02*
X77769047Y-61988152D01*
X77769047Y-61988152D02*
X77673809Y-62035771D01*
X77673809Y-62035771D02*
X77626190Y-62131009D01*
X77626190Y-62131009D02*
X77626190Y-62654819D01*
X77149999Y-61988152D02*
X77149999Y-62654819D01*
X77149999Y-62083390D02*
X77102380Y-62035771D01*
X77102380Y-62035771D02*
X77007142Y-61988152D01*
X77007142Y-61988152D02*
X76864285Y-61988152D01*
X76864285Y-61988152D02*
X76769047Y-62035771D01*
X76769047Y-62035771D02*
X76721428Y-62131009D01*
X76721428Y-62131009D02*
X76721428Y-62654819D01*
X76483333Y-62750057D02*
X75721428Y-62750057D01*
X75292856Y-61654819D02*
X75197618Y-61654819D01*
X75197618Y-61654819D02*
X75102380Y-61702438D01*
X75102380Y-61702438D02*
X75054761Y-61750057D01*
X75054761Y-61750057D02*
X75007142Y-61845295D01*
X75007142Y-61845295D02*
X74959523Y-62035771D01*
X74959523Y-62035771D02*
X74959523Y-62273866D01*
X74959523Y-62273866D02*
X75007142Y-62464342D01*
X75007142Y-62464342D02*
X75054761Y-62559580D01*
X75054761Y-62559580D02*
X75102380Y-62607200D01*
X75102380Y-62607200D02*
X75197618Y-62654819D01*
X75197618Y-62654819D02*
X75292856Y-62654819D01*
X75292856Y-62654819D02*
X75388094Y-62607200D01*
X75388094Y-62607200D02*
X75435713Y-62559580D01*
X75435713Y-62559580D02*
X75483332Y-62464342D01*
X75483332Y-62464342D02*
X75530951Y-62273866D01*
X75530951Y-62273866D02*
X75530951Y-62035771D01*
X75530951Y-62035771D02*
X75483332Y-61845295D01*
X75483332Y-61845295D02*
X75435713Y-61750057D01*
X75435713Y-61750057D02*
X75388094Y-61702438D01*
X75388094Y-61702438D02*
X75292856Y-61654819D01*
X74007142Y-62654819D02*
X74578570Y-62654819D01*
X74292856Y-62654819D02*
X74292856Y-61654819D01*
X74292856Y-61654819D02*
X74388094Y-61797676D01*
X74388094Y-61797676D02*
X74483332Y-61892914D01*
X74483332Y-61892914D02*
X74578570Y-61940533D01*
X73673808Y-62654819D02*
X73149999Y-61988152D01*
X73673808Y-61988152D02*
X73149999Y-62654819D01*
X72578570Y-61654819D02*
X72483332Y-61654819D01*
X72483332Y-61654819D02*
X72388094Y-61702438D01*
X72388094Y-61702438D02*
X72340475Y-61750057D01*
X72340475Y-61750057D02*
X72292856Y-61845295D01*
X72292856Y-61845295D02*
X72245237Y-62035771D01*
X72245237Y-62035771D02*
X72245237Y-62273866D01*
X72245237Y-62273866D02*
X72292856Y-62464342D01*
X72292856Y-62464342D02*
X72340475Y-62559580D01*
X72340475Y-62559580D02*
X72388094Y-62607200D01*
X72388094Y-62607200D02*
X72483332Y-62654819D01*
X72483332Y-62654819D02*
X72578570Y-62654819D01*
X72578570Y-62654819D02*
X72673808Y-62607200D01*
X72673808Y-62607200D02*
X72721427Y-62559580D01*
X72721427Y-62559580D02*
X72769046Y-62464342D01*
X72769046Y-62464342D02*
X72816665Y-62273866D01*
X72816665Y-62273866D02*
X72816665Y-62035771D01*
X72816665Y-62035771D02*
X72769046Y-61845295D01*
X72769046Y-61845295D02*
X72721427Y-61750057D01*
X72721427Y-61750057D02*
X72673808Y-61702438D01*
X72673808Y-61702438D02*
X72578570Y-61654819D01*
X71292856Y-62654819D02*
X71864284Y-62654819D01*
X71578570Y-62654819D02*
X71578570Y-61654819D01*
X71578570Y-61654819D02*
X71673808Y-61797676D01*
X71673808Y-61797676D02*
X71769046Y-61892914D01*
X71769046Y-61892914D02*
X71864284Y-61940533D01*
X76459523Y-58054819D02*
X76459523Y-58769104D01*
X76459523Y-58769104D02*
X76507142Y-58911961D01*
X76507142Y-58911961D02*
X76602380Y-59007200D01*
X76602380Y-59007200D02*
X76745237Y-59054819D01*
X76745237Y-59054819D02*
X76840475Y-59054819D01*
X75459523Y-59054819D02*
X76030951Y-59054819D01*
X75745237Y-59054819D02*
X75745237Y-58054819D01*
X75745237Y-58054819D02*
X75840475Y-58197676D01*
X75840475Y-58197676D02*
X75935713Y-58292914D01*
X75935713Y-58292914D02*
X76030951Y-58340533D01*
X74554761Y-58054819D02*
X75030951Y-58054819D01*
X75030951Y-58054819D02*
X75078570Y-58531009D01*
X75078570Y-58531009D02*
X75030951Y-58483390D01*
X75030951Y-58483390D02*
X74935713Y-58435771D01*
X74935713Y-58435771D02*
X74697618Y-58435771D01*
X74697618Y-58435771D02*
X74602380Y-58483390D01*
X74602380Y-58483390D02*
X74554761Y-58531009D01*
X74554761Y-58531009D02*
X74507142Y-58626247D01*
X74507142Y-58626247D02*
X74507142Y-58864342D01*
X74507142Y-58864342D02*
X74554761Y-58959580D01*
X74554761Y-58959580D02*
X74602380Y-59007200D01*
X74602380Y-59007200D02*
X74697618Y-59054819D01*
X74697618Y-59054819D02*
X74935713Y-59054819D01*
X74935713Y-59054819D02*
X75030951Y-59007200D01*
X75030951Y-59007200D02*
X75078570Y-58959580D01*
X54733713Y-25172958D02*
X54666370Y-25240301D01*
X54666370Y-25240301D02*
X54632698Y-25341316D01*
X54632698Y-25341316D02*
X54632698Y-25408660D01*
X54632698Y-25408660D02*
X54666370Y-25509675D01*
X54666370Y-25509675D02*
X54767385Y-25678034D01*
X54767385Y-25678034D02*
X54935744Y-25846393D01*
X54935744Y-25846393D02*
X55104102Y-25947408D01*
X55104102Y-25947408D02*
X55205118Y-25981080D01*
X55205118Y-25981080D02*
X55272461Y-25981080D01*
X55272461Y-25981080D02*
X55373476Y-25947408D01*
X55373476Y-25947408D02*
X55440820Y-25880064D01*
X55440820Y-25880064D02*
X55474492Y-25779049D01*
X55474492Y-25779049D02*
X55474492Y-25711706D01*
X55474492Y-25711706D02*
X55440820Y-25610690D01*
X55440820Y-25610690D02*
X55339805Y-25442332D01*
X55339805Y-25442332D02*
X55171446Y-25273973D01*
X55171446Y-25273973D02*
X55003087Y-25172958D01*
X55003087Y-25172958D02*
X54902072Y-25139286D01*
X54902072Y-25139286D02*
X54834728Y-25139286D01*
X54834728Y-25139286D02*
X54733713Y-25172958D01*
X54498011Y-26822873D02*
X54396996Y-26250454D01*
X54902072Y-26418812D02*
X54194965Y-25711706D01*
X54194965Y-25711706D02*
X53925591Y-25981080D01*
X53925591Y-25981080D02*
X53891919Y-26082095D01*
X53891919Y-26082095D02*
X53891919Y-26149438D01*
X53891919Y-26149438D02*
X53925591Y-26250454D01*
X53925591Y-26250454D02*
X54026606Y-26351469D01*
X54026606Y-26351469D02*
X54127622Y-26385141D01*
X54127622Y-26385141D02*
X54194965Y-26385141D01*
X54194965Y-26385141D02*
X54295980Y-26351469D01*
X54295980Y-26351469D02*
X54565354Y-26082095D01*
D12*
X56053622Y-26903662D02*
X56013216Y-26674694D01*
X56215246Y-26742037D02*
X55932404Y-26459194D01*
X55932404Y-26459194D02*
X55824654Y-26566944D01*
X55824654Y-26566944D02*
X55811185Y-26607350D01*
X55811185Y-26607350D02*
X55811185Y-26634288D01*
X55811185Y-26634288D02*
X55824654Y-26674694D01*
X55824654Y-26674694D02*
X55865060Y-26715100D01*
X55865060Y-26715100D02*
X55905466Y-26728568D01*
X55905466Y-26728568D02*
X55932404Y-26728568D01*
X55932404Y-26728568D02*
X55972810Y-26715100D01*
X55972810Y-26715100D02*
X56080559Y-26607350D01*
X55689967Y-26755506D02*
X55663030Y-26755506D01*
X55663030Y-26755506D02*
X55622624Y-26768975D01*
X55622624Y-26768975D02*
X55555280Y-26836318D01*
X55555280Y-26836318D02*
X55541811Y-26876724D01*
X55541811Y-26876724D02*
X55541811Y-26903662D01*
X55541811Y-26903662D02*
X55555280Y-26944068D01*
X55555280Y-26944068D02*
X55582217Y-26971005D01*
X55582217Y-26971005D02*
X55636092Y-26997942D01*
X55636092Y-26997942D02*
X55959341Y-26997942D01*
X55959341Y-26997942D02*
X55784248Y-27173036D01*
X55514874Y-27442409D02*
X55676499Y-27280785D01*
X55595686Y-27361597D02*
X55312844Y-27078754D01*
X55312844Y-27078754D02*
X55380187Y-27092223D01*
X55380187Y-27092223D02*
X55434062Y-27092223D01*
X55434062Y-27092223D02*
X55474468Y-27078754D01*
D10*
X56833713Y-25272958D02*
X56766370Y-25340301D01*
X56766370Y-25340301D02*
X56732698Y-25441316D01*
X56732698Y-25441316D02*
X56732698Y-25508660D01*
X56732698Y-25508660D02*
X56766370Y-25609675D01*
X56766370Y-25609675D02*
X56867385Y-25778034D01*
X56867385Y-25778034D02*
X57035744Y-25946393D01*
X57035744Y-25946393D02*
X57204102Y-26047408D01*
X57204102Y-26047408D02*
X57305118Y-26081080D01*
X57305118Y-26081080D02*
X57372461Y-26081080D01*
X57372461Y-26081080D02*
X57473476Y-26047408D01*
X57473476Y-26047408D02*
X57540820Y-25980064D01*
X57540820Y-25980064D02*
X57574492Y-25879049D01*
X57574492Y-25879049D02*
X57574492Y-25811706D01*
X57574492Y-25811706D02*
X57540820Y-25710690D01*
X57540820Y-25710690D02*
X57439805Y-25542332D01*
X57439805Y-25542332D02*
X57271446Y-25373973D01*
X57271446Y-25373973D02*
X57103087Y-25272958D01*
X57103087Y-25272958D02*
X57002072Y-25239286D01*
X57002072Y-25239286D02*
X56934728Y-25239286D01*
X56934728Y-25239286D02*
X56833713Y-25272958D01*
X56598011Y-26922873D02*
X56496996Y-26350454D01*
X57002072Y-26518812D02*
X56294965Y-25811706D01*
X56294965Y-25811706D02*
X56025591Y-26081080D01*
X56025591Y-26081080D02*
X55991919Y-26182095D01*
X55991919Y-26182095D02*
X55991919Y-26249438D01*
X55991919Y-26249438D02*
X56025591Y-26350454D01*
X56025591Y-26350454D02*
X56126606Y-26451469D01*
X56126606Y-26451469D02*
X56227622Y-26485141D01*
X56227622Y-26485141D02*
X56294965Y-26485141D01*
X56294965Y-26485141D02*
X56395980Y-26451469D01*
X56395980Y-26451469D02*
X56665354Y-26182095D01*
D12*
X58153622Y-27003662D02*
X58113216Y-26774694D01*
X58315246Y-26842037D02*
X58032404Y-26559194D01*
X58032404Y-26559194D02*
X57924654Y-26666944D01*
X57924654Y-26666944D02*
X57911185Y-26707350D01*
X57911185Y-26707350D02*
X57911185Y-26734288D01*
X57911185Y-26734288D02*
X57924654Y-26774694D01*
X57924654Y-26774694D02*
X57965060Y-26815100D01*
X57965060Y-26815100D02*
X58005466Y-26828568D01*
X58005466Y-26828568D02*
X58032404Y-26828568D01*
X58032404Y-26828568D02*
X58072810Y-26815100D01*
X58072810Y-26815100D02*
X58180559Y-26707350D01*
X57830373Y-27003662D02*
X57843842Y-26963255D01*
X57843842Y-26963255D02*
X57843842Y-26936318D01*
X57843842Y-26936318D02*
X57830373Y-26895912D01*
X57830373Y-26895912D02*
X57816904Y-26882443D01*
X57816904Y-26882443D02*
X57776498Y-26868975D01*
X57776498Y-26868975D02*
X57749561Y-26868975D01*
X57749561Y-26868975D02*
X57709155Y-26882443D01*
X57709155Y-26882443D02*
X57655280Y-26936318D01*
X57655280Y-26936318D02*
X57641811Y-26976724D01*
X57641811Y-26976724D02*
X57641811Y-27003662D01*
X57641811Y-27003662D02*
X57655280Y-27044068D01*
X57655280Y-27044068D02*
X57668749Y-27057536D01*
X57668749Y-27057536D02*
X57709155Y-27071005D01*
X57709155Y-27071005D02*
X57736092Y-27071005D01*
X57736092Y-27071005D02*
X57776498Y-27057536D01*
X57776498Y-27057536D02*
X57830373Y-27003662D01*
X57830373Y-27003662D02*
X57870779Y-26990193D01*
X57870779Y-26990193D02*
X57897717Y-26990193D01*
X57897717Y-26990193D02*
X57938123Y-27003662D01*
X57938123Y-27003662D02*
X57991998Y-27057536D01*
X57991998Y-27057536D02*
X58005466Y-27097942D01*
X58005466Y-27097942D02*
X58005466Y-27124880D01*
X58005466Y-27124880D02*
X57991998Y-27165286D01*
X57991998Y-27165286D02*
X57938123Y-27219161D01*
X57938123Y-27219161D02*
X57897717Y-27232629D01*
X57897717Y-27232629D02*
X57870779Y-27232629D01*
X57870779Y-27232629D02*
X57830373Y-27219161D01*
X57830373Y-27219161D02*
X57776498Y-27165286D01*
X57776498Y-27165286D02*
X57763030Y-27124880D01*
X57763030Y-27124880D02*
X57763030Y-27097942D01*
X57763030Y-27097942D02*
X57776498Y-27057536D01*
X57426312Y-27165286D02*
X57399375Y-27192223D01*
X57399375Y-27192223D02*
X57385906Y-27232629D01*
X57385906Y-27232629D02*
X57385906Y-27259567D01*
X57385906Y-27259567D02*
X57399375Y-27299973D01*
X57399375Y-27299973D02*
X57439781Y-27367316D01*
X57439781Y-27367316D02*
X57507125Y-27434660D01*
X57507125Y-27434660D02*
X57574468Y-27475066D01*
X57574468Y-27475066D02*
X57614874Y-27488535D01*
X57614874Y-27488535D02*
X57641812Y-27488535D01*
X57641812Y-27488535D02*
X57682218Y-27475066D01*
X57682218Y-27475066D02*
X57709155Y-27448128D01*
X57709155Y-27448128D02*
X57722624Y-27407722D01*
X57722624Y-27407722D02*
X57722624Y-27380785D01*
X57722624Y-27380785D02*
X57709155Y-27340379D01*
X57709155Y-27340379D02*
X57668749Y-27273035D01*
X57668749Y-27273035D02*
X57601405Y-27205692D01*
X57601405Y-27205692D02*
X57534062Y-27165286D01*
X57534062Y-27165286D02*
X57493656Y-27151817D01*
X57493656Y-27151817D02*
X57466718Y-27151817D01*
X57466718Y-27151817D02*
X57426312Y-27165286D01*
D10*
X52633713Y-25072958D02*
X52566370Y-25140301D01*
X52566370Y-25140301D02*
X52532698Y-25241316D01*
X52532698Y-25241316D02*
X52532698Y-25308660D01*
X52532698Y-25308660D02*
X52566370Y-25409675D01*
X52566370Y-25409675D02*
X52667385Y-25578034D01*
X52667385Y-25578034D02*
X52835744Y-25746393D01*
X52835744Y-25746393D02*
X53004102Y-25847408D01*
X53004102Y-25847408D02*
X53105118Y-25881080D01*
X53105118Y-25881080D02*
X53172461Y-25881080D01*
X53172461Y-25881080D02*
X53273476Y-25847408D01*
X53273476Y-25847408D02*
X53340820Y-25780064D01*
X53340820Y-25780064D02*
X53374492Y-25679049D01*
X53374492Y-25679049D02*
X53374492Y-25611706D01*
X53374492Y-25611706D02*
X53340820Y-25510690D01*
X53340820Y-25510690D02*
X53239805Y-25342332D01*
X53239805Y-25342332D02*
X53071446Y-25173973D01*
X53071446Y-25173973D02*
X52903087Y-25072958D01*
X52903087Y-25072958D02*
X52802072Y-25039286D01*
X52802072Y-25039286D02*
X52734728Y-25039286D01*
X52734728Y-25039286D02*
X52633713Y-25072958D01*
X52398011Y-26722873D02*
X52296996Y-26150454D01*
X52802072Y-26318812D02*
X52094965Y-25611706D01*
X52094965Y-25611706D02*
X51825591Y-25881080D01*
X51825591Y-25881080D02*
X51791919Y-25982095D01*
X51791919Y-25982095D02*
X51791919Y-26049438D01*
X51791919Y-26049438D02*
X51825591Y-26150454D01*
X51825591Y-26150454D02*
X51926606Y-26251469D01*
X51926606Y-26251469D02*
X52027622Y-26285141D01*
X52027622Y-26285141D02*
X52094965Y-26285141D01*
X52094965Y-26285141D02*
X52195980Y-26251469D01*
X52195980Y-26251469D02*
X52465354Y-25982095D01*
D12*
X53953622Y-26803662D02*
X53913216Y-26574694D01*
X54115246Y-26642037D02*
X53832404Y-26359194D01*
X53832404Y-26359194D02*
X53724654Y-26466944D01*
X53724654Y-26466944D02*
X53711185Y-26507350D01*
X53711185Y-26507350D02*
X53711185Y-26534288D01*
X53711185Y-26534288D02*
X53724654Y-26574694D01*
X53724654Y-26574694D02*
X53765060Y-26615100D01*
X53765060Y-26615100D02*
X53805466Y-26628568D01*
X53805466Y-26628568D02*
X53832404Y-26628568D01*
X53832404Y-26628568D02*
X53872810Y-26615100D01*
X53872810Y-26615100D02*
X53980559Y-26507350D01*
X53576498Y-26615100D02*
X53401405Y-26790193D01*
X53401405Y-26790193D02*
X53603436Y-26803662D01*
X53603436Y-26803662D02*
X53563030Y-26844068D01*
X53563030Y-26844068D02*
X53549561Y-26884474D01*
X53549561Y-26884474D02*
X53549561Y-26911411D01*
X53549561Y-26911411D02*
X53563030Y-26951817D01*
X53563030Y-26951817D02*
X53630373Y-27019161D01*
X53630373Y-27019161D02*
X53670779Y-27032629D01*
X53670779Y-27032629D02*
X53697717Y-27032629D01*
X53697717Y-27032629D02*
X53738123Y-27019161D01*
X53738123Y-27019161D02*
X53818935Y-26938349D01*
X53818935Y-26938349D02*
X53832404Y-26897942D01*
X53832404Y-26897942D02*
X53832404Y-26871005D01*
X53307125Y-26884473D02*
X53132031Y-27059567D01*
X53132031Y-27059567D02*
X53334062Y-27073035D01*
X53334062Y-27073035D02*
X53293656Y-27113441D01*
X53293656Y-27113441D02*
X53280187Y-27153848D01*
X53280187Y-27153848D02*
X53280187Y-27180785D01*
X53280187Y-27180785D02*
X53293656Y-27221191D01*
X53293656Y-27221191D02*
X53360999Y-27288535D01*
X53360999Y-27288535D02*
X53401405Y-27302003D01*
X53401405Y-27302003D02*
X53428343Y-27302003D01*
X53428343Y-27302003D02*
X53468749Y-27288535D01*
X53468749Y-27288535D02*
X53549561Y-27207722D01*
X53549561Y-27207722D02*
X53563030Y-27167316D01*
X53563030Y-27167316D02*
X53563030Y-27140379D01*
D10*
X58833713Y-25572958D02*
X58766370Y-25640301D01*
X58766370Y-25640301D02*
X58732698Y-25741316D01*
X58732698Y-25741316D02*
X58732698Y-25808660D01*
X58732698Y-25808660D02*
X58766370Y-25909675D01*
X58766370Y-25909675D02*
X58867385Y-26078034D01*
X58867385Y-26078034D02*
X59035744Y-26246393D01*
X59035744Y-26246393D02*
X59204102Y-26347408D01*
X59204102Y-26347408D02*
X59305118Y-26381080D01*
X59305118Y-26381080D02*
X59372461Y-26381080D01*
X59372461Y-26381080D02*
X59473476Y-26347408D01*
X59473476Y-26347408D02*
X59540820Y-26280064D01*
X59540820Y-26280064D02*
X59574492Y-26179049D01*
X59574492Y-26179049D02*
X59574492Y-26111706D01*
X59574492Y-26111706D02*
X59540820Y-26010690D01*
X59540820Y-26010690D02*
X59439805Y-25842332D01*
X59439805Y-25842332D02*
X59271446Y-25673973D01*
X59271446Y-25673973D02*
X59103087Y-25572958D01*
X59103087Y-25572958D02*
X59002072Y-25539286D01*
X59002072Y-25539286D02*
X58934728Y-25539286D01*
X58934728Y-25539286D02*
X58833713Y-25572958D01*
X58598011Y-27222873D02*
X58496996Y-26650454D01*
X59002072Y-26818812D02*
X58294965Y-26111706D01*
X58294965Y-26111706D02*
X58025591Y-26381080D01*
X58025591Y-26381080D02*
X57991919Y-26482095D01*
X57991919Y-26482095D02*
X57991919Y-26549438D01*
X57991919Y-26549438D02*
X58025591Y-26650454D01*
X58025591Y-26650454D02*
X58126606Y-26751469D01*
X58126606Y-26751469D02*
X58227622Y-26785141D01*
X58227622Y-26785141D02*
X58294965Y-26785141D01*
X58294965Y-26785141D02*
X58395980Y-26751469D01*
X58395980Y-26751469D02*
X58665354Y-26482095D01*
D12*
X60153622Y-27303662D02*
X60113216Y-27074694D01*
X60315246Y-27142037D02*
X60032404Y-26859194D01*
X60032404Y-26859194D02*
X59924654Y-26966944D01*
X59924654Y-26966944D02*
X59911185Y-27007350D01*
X59911185Y-27007350D02*
X59911185Y-27034288D01*
X59911185Y-27034288D02*
X59924654Y-27074694D01*
X59924654Y-27074694D02*
X59965060Y-27115100D01*
X59965060Y-27115100D02*
X60005466Y-27128568D01*
X60005466Y-27128568D02*
X60032404Y-27128568D01*
X60032404Y-27128568D02*
X60072810Y-27115100D01*
X60072810Y-27115100D02*
X60180559Y-27007350D01*
X59830373Y-27303662D02*
X59843842Y-27263255D01*
X59843842Y-27263255D02*
X59843842Y-27236318D01*
X59843842Y-27236318D02*
X59830373Y-27195912D01*
X59830373Y-27195912D02*
X59816904Y-27182443D01*
X59816904Y-27182443D02*
X59776498Y-27168975D01*
X59776498Y-27168975D02*
X59749561Y-27168975D01*
X59749561Y-27168975D02*
X59709155Y-27182443D01*
X59709155Y-27182443D02*
X59655280Y-27236318D01*
X59655280Y-27236318D02*
X59641811Y-27276724D01*
X59641811Y-27276724D02*
X59641811Y-27303662D01*
X59641811Y-27303662D02*
X59655280Y-27344068D01*
X59655280Y-27344068D02*
X59668749Y-27357536D01*
X59668749Y-27357536D02*
X59709155Y-27371005D01*
X59709155Y-27371005D02*
X59736092Y-27371005D01*
X59736092Y-27371005D02*
X59776498Y-27357536D01*
X59776498Y-27357536D02*
X59830373Y-27303662D01*
X59830373Y-27303662D02*
X59870779Y-27290193D01*
X59870779Y-27290193D02*
X59897717Y-27290193D01*
X59897717Y-27290193D02*
X59938123Y-27303662D01*
X59938123Y-27303662D02*
X59991998Y-27357536D01*
X59991998Y-27357536D02*
X60005466Y-27397942D01*
X60005466Y-27397942D02*
X60005466Y-27424880D01*
X60005466Y-27424880D02*
X59991998Y-27465286D01*
X59991998Y-27465286D02*
X59938123Y-27519161D01*
X59938123Y-27519161D02*
X59897717Y-27532629D01*
X59897717Y-27532629D02*
X59870779Y-27532629D01*
X59870779Y-27532629D02*
X59830373Y-27519161D01*
X59830373Y-27519161D02*
X59776498Y-27465286D01*
X59776498Y-27465286D02*
X59763030Y-27424880D01*
X59763030Y-27424880D02*
X59763030Y-27397942D01*
X59763030Y-27397942D02*
X59776498Y-27357536D01*
X59614874Y-27842409D02*
X59776499Y-27680785D01*
X59695686Y-27761597D02*
X59412844Y-27478754D01*
X59412844Y-27478754D02*
X59480187Y-27492223D01*
X59480187Y-27492223D02*
X59534062Y-27492223D01*
X59534062Y-27492223D02*
X59574468Y-27478754D01*
%TO.C,D15*%
D13*
X88827208Y-29951471D02*
X90948529Y-32072792D01*
X88827208Y-29951471D02*
X92079899Y-26698780D01*
X90948529Y-32072792D02*
X94201220Y-28820101D01*
X91160547Y-29740895D02*
X90454699Y-30446743D01*
X91408403Y-28361528D02*
X92539915Y-29493040D01*
X91690383Y-30270730D02*
X90594791Y-29175139D01*
X91974159Y-28927284D02*
X90594791Y-29175139D01*
X91974159Y-28927284D02*
X91690383Y-30270730D01*
X91974159Y-28927284D02*
X92611757Y-28289686D01*
X94201220Y-28820101D02*
X92079899Y-26698780D01*
%TO.C,D20*%
X86412994Y-26265685D02*
X88534315Y-28387006D01*
X86412994Y-26265685D02*
X89665685Y-23012994D01*
X88534315Y-28387006D02*
X91787006Y-25134315D01*
X88746333Y-26055109D02*
X88040485Y-26760957D01*
X88994189Y-24675742D02*
X90125701Y-25807254D01*
X89276169Y-26584944D02*
X88180577Y-25489353D01*
X89559945Y-25241498D02*
X88180577Y-25489353D01*
X89559945Y-25241498D02*
X89276169Y-26584944D01*
X89559945Y-25241498D02*
X90197543Y-24603900D01*
X91787006Y-25134315D02*
X89665685Y-23012994D01*
%TO.C,FID5*%
X91584400Y-58648600D02*
G75*
G02*
X90584400Y-58648600I-500000J0D01*
G01*
X90584400Y-58648600D02*
G75*
G02*
X91584400Y-58648600I500000J0D01*
G01*
%TO.C,FID6*%
X60850000Y-65450000D02*
G75*
G02*
X59850000Y-65450000I-500000J0D01*
G01*
X59850000Y-65450000D02*
G75*
G02*
X60850000Y-65450000I500000J0D01*
G01*
%TO.C,D4*%
X39775000Y-33542000D02*
X39775000Y-28942000D01*
X39775000Y-33542000D02*
X42775000Y-33542000D01*
X40475920Y-30592560D02*
X42076120Y-30592560D01*
X41276020Y-30592560D02*
X40475920Y-31743180D01*
X41276020Y-30592560D02*
X41276020Y-29690860D01*
X41276020Y-30592560D02*
X42025320Y-31743180D01*
X41276020Y-31743180D02*
X41276020Y-32741400D01*
X42025320Y-31743180D02*
X40475920Y-31743180D01*
X42775000Y-28942000D02*
X39775000Y-28942000D01*
X42775000Y-33542000D02*
X42775000Y-28942000D01*
%TO.C,D5*%
X33387000Y-26059000D02*
X33387000Y-29059000D01*
X33387000Y-26059000D02*
X37987000Y-26059000D01*
X33387000Y-29059000D02*
X37987000Y-29059000D01*
X35185820Y-27560020D02*
X34187600Y-27560020D01*
X35185820Y-28309320D02*
X35185820Y-26759920D01*
X36336440Y-26759920D02*
X36336440Y-28360120D01*
X36336440Y-27560020D02*
X35185820Y-26759920D01*
X36336440Y-27560020D02*
X35185820Y-28309320D01*
X36336440Y-27560020D02*
X37238140Y-27560020D01*
X37987000Y-29059000D02*
X37987000Y-26059000D01*
%TO.C,D6*%
X33387000Y-22503000D02*
X33387000Y-25503000D01*
X33387000Y-22503000D02*
X37987000Y-22503000D01*
X33387000Y-25503000D02*
X37987000Y-25503000D01*
X35185820Y-24004020D02*
X34187600Y-24004020D01*
X35185820Y-24753320D02*
X35185820Y-23203920D01*
X36336440Y-23203920D02*
X36336440Y-24804120D01*
X36336440Y-24004020D02*
X35185820Y-23203920D01*
X36336440Y-24004020D02*
X35185820Y-24753320D01*
X36336440Y-24004020D02*
X37238140Y-24004020D01*
X37987000Y-25503000D02*
X37987000Y-22503000D01*
%TO.C,D3*%
X33387000Y-29615000D02*
X33387000Y-32615000D01*
X33387000Y-29615000D02*
X37987000Y-29615000D01*
X33387000Y-32615000D02*
X37987000Y-32615000D01*
X35185820Y-31116020D02*
X34187600Y-31116020D01*
X35185820Y-31865320D02*
X35185820Y-30315920D01*
X36336440Y-30315920D02*
X36336440Y-31916120D01*
X36336440Y-31116020D02*
X35185820Y-30315920D01*
X36336440Y-31116020D02*
X35185820Y-31865320D01*
X36336440Y-31116020D02*
X37238140Y-31116020D01*
X37987000Y-32615000D02*
X37987000Y-29615000D01*
%TO.C,J17*%
D14*
X90450000Y-76150000D02*
X90450000Y-76650000D01*
X90450000Y-76650000D02*
X92200000Y-76650000D01*
X92200000Y-76150000D02*
X90450000Y-76150000D01*
X92200000Y-76650000D02*
X92200000Y-76150000D01*
%TO.C,J15*%
X74750000Y-60150000D02*
X74750000Y-60650000D01*
X74750000Y-60650000D02*
X76500000Y-60650000D01*
X76500000Y-60150000D02*
X74750000Y-60150000D01*
X76500000Y-60650000D02*
X76500000Y-60150000D01*
%TO.C,R21*%
D13*
X54894625Y-27239690D02*
X55460310Y-27805375D01*
X55460310Y-27805375D02*
X56591681Y-26674004D01*
X56025996Y-26108319D02*
X54894625Y-27239690D01*
X56591681Y-26674004D02*
X56025996Y-26108319D01*
%TO.C,R80*%
X56994625Y-27339690D02*
X57560310Y-27905375D01*
X57560310Y-27905375D02*
X58691681Y-26774004D01*
X58125996Y-26208319D02*
X56994625Y-27339690D01*
X58691681Y-26774004D02*
X58125996Y-26208319D01*
%TO.C,R33*%
X52794625Y-27139690D02*
X53360310Y-27705375D01*
X53360310Y-27705375D02*
X54491681Y-26574004D01*
X53925996Y-26008319D02*
X52794625Y-27139690D01*
X54491681Y-26574004D02*
X53925996Y-26008319D01*
%TO.C,R81*%
X58994625Y-27639690D02*
X59560310Y-28205375D01*
X59560310Y-28205375D02*
X60691681Y-27074004D01*
X60125996Y-26508319D02*
X58994625Y-27639690D01*
X60691681Y-27074004D02*
X60125996Y-26508319D01*
%TD*%
M02*
