%TF.GenerationSoftware,KiCad,Pcbnew,10.0.5-10.0.5~ubuntu24.04.1*%
%TF.CreationDate,2026-08-04T17:55:53-03:00*%
%TF.ProjectId,openems_mre_h562,6f70656e-656d-4735-9f6d-72655f683536,R0.6.0*%
%TF.SameCoordinates,Original*%
%TF.FileFunction,Paste,Top*%
%TF.FilePolarity,Positive*%
%FSLAX46Y46*%
G04 Gerber Fmt 4.6, Leading zero omitted, Abs format (unit mm)*
G04 Created by KiCad (PCBNEW 10.0.5-10.0.5~ubuntu24.04.1) date 2026-08-04 17:55:53*
%MOMM*%
%LPD*%
G01*
G04 APERTURE LIST*
G04 Aperture macros list*
%AMRoundRect*
0 Rectangle with rounded corners*
0 $1 Rounding radius*
0 $2 $3 $4 $5 $6 $7 $8 $9 X,Y pos of 4 corners*
0 Add a 4 corners polygon primitive as box body*
4,1,4,$2,$3,$4,$5,$6,$7,$8,$9,$2,$3,0*
0 Add four circle primitives for the rounded corners*
1,1,$1+$1,$2,$3*
1,1,$1+$1,$4,$5*
1,1,$1+$1,$6,$7*
1,1,$1+$1,$8,$9*
0 Add four rect primitives between the rounded corners*
20,1,$1+$1,$2,$3,$4,$5,0*
20,1,$1+$1,$4,$5,$6,$7,0*
20,1,$1+$1,$6,$7,$8,$9,0*
20,1,$1+$1,$8,$9,$2,$3,0*%
G04 Aperture macros list end*
%ADD10RoundRect,0.218750X0.026517X-0.335876X0.335876X-0.026517X-0.026517X0.335876X-0.335876X0.026517X0*%
%ADD11RoundRect,0.218750X-0.218750X-0.256250X0.218750X-0.256250X0.218750X0.256250X-0.218750X0.256250X0*%
%ADD12RoundRect,0.218750X0.218750X0.256250X-0.218750X0.256250X-0.218750X-0.256250X0.218750X-0.256250X0*%
%ADD13RoundRect,0.218750X0.256250X-0.218750X0.256250X0.218750X-0.256250X0.218750X-0.256250X-0.218750X0*%
%ADD14RoundRect,0.218750X-0.256250X0.218750X-0.256250X-0.218750X0.256250X-0.218750X0.256250X0.218750X0*%
%ADD15R,0.900000X1.200000*%
%ADD16R,1.060000X0.650000*%
%ADD17R,1.450000X0.450000*%
%ADD18RoundRect,0.147500X-0.147500X-0.172500X0.147500X-0.172500X0.147500X0.172500X-0.147500X0.172500X0*%
%ADD19R,0.500000X0.800000*%
%ADD20R,0.400000X0.800000*%
%ADD21RoundRect,0.147500X0.147500X0.172500X-0.147500X0.172500X-0.147500X-0.172500X0.147500X-0.172500X0*%
%ADD22R,0.450000X0.600000*%
%ADD23RoundRect,0.243750X-0.243750X-0.456250X0.243750X-0.456250X0.243750X0.456250X-0.243750X0.456250X0*%
%ADD24R,0.800000X0.500000*%
%ADD25R,0.800000X0.400000*%
%ADD26R,2.000000X2.400000*%
%ADD27RoundRect,0.250000X-0.625000X0.375000X-0.625000X-0.375000X0.625000X-0.375000X0.625000X0.375000X0*%
%ADD28R,0.900000X0.800000*%
%ADD29R,1.800000X2.500000*%
%ADD30RoundRect,0.150000X0.150000X-0.825000X0.150000X0.825000X-0.150000X0.825000X-0.150000X-0.825000X0*%
%ADD31R,1.000000X1.800000*%
%ADD32R,1.500000X2.000000*%
%ADD33R,3.800000X2.000000*%
%ADD34R,3.050000X2.750000*%
%ADD35R,2.200000X1.200000*%
%ADD36R,0.800000X0.900000*%
%ADD37R,1.500000X1.500000*%
%ADD38RoundRect,0.243750X-0.456250X0.243750X-0.456250X-0.243750X0.456250X-0.243750X0.456250X0.243750X0*%
%ADD39RoundRect,0.200000X0.200000X0.800000X-0.200000X0.800000X-0.200000X-0.800000X0.200000X-0.800000X0*%
%ADD40RoundRect,0.200000X-0.200000X-0.800000X0.200000X-0.800000X0.200000X0.800000X-0.200000X0.800000X0*%
%ADD41RoundRect,0.150000X0.150000X-0.725000X0.150000X0.725000X-0.150000X0.725000X-0.150000X-0.725000X0*%
%ADD42R,1.950000X1.160000*%
%ADD43R,2.000000X0.650000*%
%ADD44RoundRect,0.075000X-0.550000X-0.075000X0.550000X-0.075000X0.550000X0.075000X-0.550000X0.075000X0*%
%ADD45RoundRect,0.075000X-0.075000X-0.550000X0.075000X-0.550000X0.075000X0.550000X-0.075000X0.550000X0*%
%ADD46R,8.500000X8.500000*%
%ADD47RoundRect,0.250000X1.950000X1.000000X-1.950000X1.000000X-1.950000X-1.000000X1.950000X-1.000000X0*%
%ADD48RoundRect,0.075000X0.075000X-0.725000X0.075000X0.725000X-0.075000X0.725000X-0.075000X-0.725000X0*%
%ADD49RoundRect,0.075000X0.725000X-0.075000X0.725000X0.075000X-0.725000X0.075000X-0.725000X-0.075000X0*%
%ADD50RoundRect,0.243750X0.494975X0.150260X0.150260X0.494975X-0.494975X-0.150260X-0.150260X-0.494975X0*%
%ADD51R,1.200000X0.900000*%
%ADD52R,1.000000X3.000000*%
%ADD53RoundRect,0.237500X0.287500X0.237500X-0.287500X0.237500X-0.287500X-0.237500X0.287500X-0.237500X0*%
%ADD54RoundRect,0.147500X0.226274X0.017678X0.017678X0.226274X-0.226274X-0.017678X-0.017678X-0.226274X0*%
%ADD55RoundRect,0.147500X0.172500X-0.147500X0.172500X0.147500X-0.172500X0.147500X-0.172500X-0.147500X0*%
%ADD56RoundRect,0.218750X-0.026517X0.335876X-0.335876X0.026517X0.026517X-0.335876X0.335876X-0.026517X0*%
%ADD57RoundRect,0.243750X-0.150260X0.494975X-0.494975X0.150260X0.150260X-0.494975X0.494975X-0.150260X0*%
%ADD58R,1.000000X3.150000*%
%ADD59R,3.300000X2.500000*%
%ADD60RoundRect,0.243750X0.243750X0.456250X-0.243750X0.456250X-0.243750X-0.456250X0.243750X-0.456250X0*%
%ADD61R,1.100000X0.850000*%
%ADD62R,1.100000X0.750000*%
%ADD63R,1.000000X1.200000*%
%ADD64R,1.350000X1.550000*%
%ADD65R,1.350000X1.900000*%
%ADD66R,1.800000X1.170000*%
%ADD67RoundRect,0.225000X-0.225000X-0.250000X0.225000X-0.250000X0.225000X0.250000X-0.225000X0.250000X0*%
G04 APERTURE END LIST*
D10*
%TO.C,C1*%
X83743153Y-58556847D03*
X84856847Y-57443153D03*
%TD*%
D11*
%TO.C,C7*%
X69725000Y-56500000D03*
X71300000Y-56500000D03*
%TD*%
D12*
%TO.C,C11*%
X85087500Y-92500000D03*
X83512500Y-92500000D03*
%TD*%
%TO.C,C10*%
X85116300Y-97030500D03*
X83541300Y-97030500D03*
%TD*%
D11*
%TO.C,C12*%
X69824500Y-51800000D03*
X71399500Y-51800000D03*
%TD*%
%TO.C,C21*%
X51003000Y-100950000D03*
X52578000Y-100950000D03*
%TD*%
%TO.C,C39*%
X26009500Y-101790500D03*
X27584500Y-101790500D03*
%TD*%
D13*
%TO.C,R4*%
X73800000Y-77500000D03*
X73800000Y-75925000D03*
%TD*%
D11*
%TO.C,R9*%
X69824500Y-50292000D03*
X71399500Y-50292000D03*
%TD*%
%TO.C,R17*%
X73412500Y-42500000D03*
X74987500Y-42500000D03*
%TD*%
D14*
%TO.C,R13*%
X71374000Y-47212500D03*
X71374000Y-48787500D03*
%TD*%
D12*
%TO.C,C22*%
X55905500Y-100950000D03*
X54330500Y-100950000D03*
%TD*%
%TO.C,C38*%
X28473500Y-104203500D03*
X26898500Y-104203500D03*
%TD*%
D14*
%TO.C,C37*%
X64389000Y-111099500D03*
X64389000Y-112674500D03*
%TD*%
D15*
%TO.C,D17*%
X54103000Y-104902000D03*
X57403000Y-104902000D03*
%TD*%
D16*
%TO.C,D16*%
X59733000Y-111318000D03*
X59733000Y-112268000D03*
X59733000Y-113218000D03*
X61933000Y-113218000D03*
X61933000Y-112268000D03*
X61933000Y-111318000D03*
%TD*%
D14*
%TO.C,R47*%
X57277000Y-111099500D03*
X57277000Y-112674500D03*
%TD*%
%TO.C,R48*%
X65786000Y-104292300D03*
X65786000Y-105867300D03*
%TD*%
D13*
%TO.C,C27*%
X63627000Y-97307500D03*
X63627000Y-95732500D03*
%TD*%
D14*
%TO.C,C32*%
X63601600Y-78612900D03*
X63601600Y-80187900D03*
%TD*%
D11*
%TO.C,C33*%
X45112500Y-76800000D03*
X46687500Y-76800000D03*
%TD*%
D12*
%TO.C,C34*%
X26187500Y-87884000D03*
X24612500Y-87884000D03*
%TD*%
D17*
%TO.C,U35*%
X57306000Y-64942000D03*
X57306000Y-64292000D03*
X57306000Y-63642000D03*
X57306000Y-62992000D03*
X57306000Y-62342000D03*
X57306000Y-61692000D03*
X57306000Y-61042000D03*
X51406000Y-61042000D03*
X51406000Y-61692000D03*
X51406000Y-62342000D03*
X51406000Y-62992000D03*
X51406000Y-63642000D03*
X51406000Y-64292000D03*
X51406000Y-64942000D03*
%TD*%
D13*
%TO.C,C78*%
X40640000Y-61341100D03*
X40640000Y-59766100D03*
%TD*%
D12*
%TO.C,R139*%
X46482000Y-43180000D03*
X44907000Y-43180000D03*
%TD*%
%TO.C,R45*%
X44092000Y-89281800D03*
X42517000Y-89281800D03*
%TD*%
D13*
%TO.C,C25*%
X65125600Y-80187900D03*
X65125600Y-78612900D03*
%TD*%
%TO.C,C31*%
X63804800Y-92735500D03*
X63804800Y-91160500D03*
%TD*%
D18*
%TO.C,R31*%
X63015000Y-30861000D03*
X63985000Y-30861000D03*
%TD*%
D11*
%TO.C,C19*%
X38785700Y-42418000D03*
X40360700Y-42418000D03*
%TD*%
%TO.C,R42*%
X38785700Y-40894000D03*
X40360700Y-40894000D03*
%TD*%
D14*
%TO.C,C17*%
X40665400Y-63347500D03*
X40665400Y-64922500D03*
%TD*%
D12*
%TO.C,R50*%
X26187500Y-84734400D03*
X24612500Y-84734400D03*
%TD*%
D19*
%TO.C,RN3*%
X58858000Y-42026000D03*
D20*
X58058000Y-42026000D03*
X57258000Y-42026000D03*
D19*
X56458000Y-42026000D03*
X56458000Y-43826000D03*
D20*
X57258000Y-43826000D03*
X58058000Y-43826000D03*
D19*
X58858000Y-43826000D03*
%TD*%
D21*
%TO.C,R56*%
X65890000Y-30861000D03*
X64920000Y-30861000D03*
%TD*%
D18*
%TO.C,R58*%
X65174000Y-35814000D03*
X66144000Y-35814000D03*
%TD*%
D17*
%TO.C,U8*%
X67720000Y-64942000D03*
X67720000Y-64292000D03*
X67720000Y-63642000D03*
X67720000Y-62992000D03*
X67720000Y-62342000D03*
X67720000Y-61692000D03*
X67720000Y-61042000D03*
X61820000Y-61042000D03*
X61820000Y-61692000D03*
X61820000Y-62342000D03*
X61820000Y-62992000D03*
X61820000Y-63642000D03*
X61820000Y-64292000D03*
X61820000Y-64942000D03*
%TD*%
D11*
%TO.C,C35*%
X73612500Y-40900000D03*
X75187500Y-40900000D03*
%TD*%
%TO.C,C36*%
X26898500Y-105727500D03*
X28473500Y-105727500D03*
%TD*%
%TO.C,R14*%
X60324900Y-41275000D03*
X61899900Y-41275000D03*
%TD*%
D12*
%TO.C,R27*%
X55092700Y-42316400D03*
X53517700Y-42316400D03*
%TD*%
D14*
%TO.C,C5*%
X69800000Y-53425000D03*
X69800000Y-55000000D03*
%TD*%
D22*
%TO.C,D34*%
X24050000Y-46000000D03*
X24050000Y-48100000D03*
%TD*%
D23*
%TO.C,D21*%
X37712500Y-97050000D03*
X39587500Y-97050000D03*
%TD*%
%TO.C,D22*%
X37696000Y-98950000D03*
X39571000Y-98950000D03*
%TD*%
%TO.C,D23*%
X37696000Y-95150000D03*
X39571000Y-95150000D03*
%TD*%
%TO.C,D27*%
X37696000Y-93250000D03*
X39571000Y-93250000D03*
%TD*%
D14*
%TO.C,D31*%
X94600000Y-51362500D03*
X94600000Y-52937500D03*
%TD*%
%TO.C,D35*%
X26250000Y-34362500D03*
X26250000Y-35937500D03*
%TD*%
D24*
%TO.C,RN1*%
X35963000Y-96831000D03*
D25*
X35963000Y-96031000D03*
X35963000Y-95231000D03*
D24*
X35963000Y-94431000D03*
X34163000Y-94431000D03*
D25*
X34163000Y-95231000D03*
X34163000Y-96031000D03*
D24*
X34163000Y-96831000D03*
%TD*%
D26*
%TO.C,X1*%
X55317000Y-98200000D03*
X51617000Y-98200000D03*
%TD*%
D11*
%TO.C,D28*%
X63612500Y-74400000D03*
X65187500Y-74400000D03*
%TD*%
D12*
%TO.C,C8*%
X85116300Y-93982500D03*
X83541300Y-93982500D03*
%TD*%
%TO.C,C9*%
X85116300Y-95506500D03*
X83541300Y-95506500D03*
%TD*%
D14*
%TO.C,C15*%
X43000000Y-41962500D03*
X43000000Y-43537500D03*
%TD*%
D12*
%TO.C,R43*%
X37998500Y-109855000D03*
X36423500Y-109855000D03*
%TD*%
D13*
%TO.C,R1*%
X40081200Y-56108700D03*
X40081200Y-54533700D03*
%TD*%
D27*
%TO.C,R120*%
X24658800Y-54900000D03*
X24658800Y-57700000D03*
%TD*%
D14*
%TO.C,R16*%
X38582600Y-54533700D03*
X38582600Y-56108700D03*
%TD*%
D13*
%TO.C,R51*%
X24700000Y-35937500D03*
X24700000Y-34362500D03*
%TD*%
D18*
%TO.C,R40*%
X53109000Y-41097200D03*
X54079000Y-41097200D03*
%TD*%
D11*
%TO.C,R18*%
X73412500Y-44000000D03*
X74987500Y-44000000D03*
%TD*%
D12*
%TO.C,C26*%
X46685300Y-75311000D03*
X45110300Y-75311000D03*
%TD*%
D13*
%TO.C,C24*%
X60579000Y-97841000D03*
X60579000Y-96266000D03*
%TD*%
D11*
%TO.C,C6*%
X69570500Y-58100000D03*
X71145500Y-58100000D03*
%TD*%
D13*
%TO.C,R49*%
X97600000Y-49887500D03*
X97600000Y-48312500D03*
%TD*%
D17*
%TO.C,U36*%
X57943960Y-53168000D03*
X57943960Y-53818000D03*
X57943960Y-54468000D03*
X57943960Y-55118000D03*
X57943960Y-55768000D03*
X57943960Y-56418000D03*
X57943960Y-57068000D03*
X63843960Y-57068000D03*
X63843960Y-56418000D03*
X63843960Y-55768000D03*
X63843960Y-55118000D03*
X63843960Y-54468000D03*
X63843960Y-53818000D03*
X63843960Y-53168000D03*
%TD*%
D28*
%TO.C,D1*%
X96186500Y-81150500D03*
X96186500Y-79250500D03*
X94186500Y-80200500D03*
%TD*%
D29*
%TO.C,D36*%
X96000000Y-89250000D03*
X96000000Y-85250000D03*
%TD*%
D30*
%TO.C,U31*%
X24358600Y-65009800D03*
X25628600Y-65009800D03*
X26898600Y-65009800D03*
X28168600Y-65009800D03*
X28168600Y-60059800D03*
X26898600Y-60059800D03*
X25628600Y-60059800D03*
X24358600Y-60059800D03*
%TD*%
D14*
%TO.C,C28*%
X46990000Y-100050000D03*
X46990000Y-101625000D03*
%TD*%
D31*
%TO.C,Y2*%
X47010000Y-98100000D03*
X49510000Y-98100000D03*
%TD*%
D11*
%TO.C,C20*%
X33375500Y-109855000D03*
X34950500Y-109855000D03*
%TD*%
D32*
%TO.C,U5*%
X25300000Y-99050000D03*
X27600000Y-99050000D03*
D33*
X27600000Y-92750000D03*
D32*
X29900000Y-99050000D03*
%TD*%
D16*
%TO.C,D13*%
X64152600Y-49545200D03*
X64152600Y-50495200D03*
X64152600Y-51445200D03*
X66352600Y-51445200D03*
X66352600Y-50495200D03*
X66352600Y-49545200D03*
%TD*%
%TO.C,D40*%
X51051640Y-51394400D03*
X51051640Y-50444400D03*
X51051640Y-49494400D03*
X48851640Y-49494400D03*
X48851640Y-50444400D03*
X48851640Y-51394400D03*
%TD*%
D13*
%TO.C,C44*%
X49530000Y-101625000D03*
X49530000Y-100050000D03*
%TD*%
D12*
%TO.C,D29*%
X57687500Y-73000000D03*
X56112500Y-73000000D03*
%TD*%
D16*
%TO.C,D39*%
X61488500Y-51445200D03*
X61488500Y-50495200D03*
X61488500Y-49545200D03*
X59288500Y-49545200D03*
X59288500Y-50495200D03*
X59288500Y-51445200D03*
%TD*%
D19*
%TO.C,RN5*%
X31400000Y-67050000D03*
D20*
X30600000Y-67050000D03*
X29800000Y-67050000D03*
D19*
X29000000Y-67050000D03*
X29000000Y-68850000D03*
D20*
X29800000Y-68850000D03*
X30600000Y-68850000D03*
D19*
X31400000Y-68850000D03*
%TD*%
D12*
%TO.C,C79*%
X56032500Y-59436000D03*
X54457500Y-59436000D03*
%TD*%
D27*
%TO.C,R121*%
X26958800Y-54900000D03*
X26958800Y-57700000D03*
%TD*%
%TO.C,R122*%
X29258800Y-54900000D03*
X29258800Y-57700000D03*
%TD*%
%TO.C,R123*%
X31558800Y-54900000D03*
X31558800Y-57700000D03*
%TD*%
%TO.C,R124*%
X33858800Y-54900000D03*
X33858800Y-57700000D03*
%TD*%
%TO.C,R125*%
X36158800Y-54900000D03*
X36158800Y-57700000D03*
%TD*%
D30*
%TO.C,U32*%
X29794200Y-65009800D03*
X31064200Y-65009800D03*
X32334200Y-65009800D03*
X33604200Y-65009800D03*
X33604200Y-60059800D03*
X32334200Y-60059800D03*
X31064200Y-60059800D03*
X29794200Y-60059800D03*
%TD*%
%TO.C,U33*%
X35229800Y-65009800D03*
X36499800Y-65009800D03*
X37769800Y-65009800D03*
X39039800Y-65009800D03*
X39039800Y-60059800D03*
X37769800Y-60059800D03*
X36499800Y-60059800D03*
X35229800Y-60059800D03*
%TD*%
D12*
%TO.C,C40*%
X66637000Y-59436000D03*
X65062000Y-59436000D03*
%TD*%
D16*
%TO.C,D38*%
X53891000Y-49469000D03*
X53891000Y-50419000D03*
X53891000Y-51369000D03*
X56091000Y-51369000D03*
X56091000Y-50419000D03*
X56091000Y-49469000D03*
%TD*%
D19*
%TO.C,RN13*%
X51873000Y-42407000D03*
D20*
X51073000Y-42407000D03*
X50273000Y-42407000D03*
D19*
X49473000Y-42407000D03*
X49473000Y-44207000D03*
D20*
X50273000Y-44207000D03*
X51073000Y-44207000D03*
D19*
X51873000Y-44207000D03*
%TD*%
D17*
%TO.C,U46*%
X46902580Y-53226420D03*
X46902580Y-53876420D03*
X46902580Y-54526420D03*
X46902580Y-55176420D03*
X46902580Y-55826420D03*
X46902580Y-56476420D03*
X46902580Y-57126420D03*
X52802580Y-57126420D03*
X52802580Y-56476420D03*
X52802580Y-55826420D03*
X52802580Y-55176420D03*
X52802580Y-54526420D03*
X52802580Y-53876420D03*
X52802580Y-53226420D03*
%TD*%
D13*
%TO.C,R26*%
X60900000Y-68187500D03*
X60900000Y-66612500D03*
%TD*%
%TO.C,R32*%
X59400000Y-68187500D03*
X59400000Y-66612500D03*
%TD*%
%TO.C,R35*%
X57900000Y-68187500D03*
X57900000Y-66612500D03*
%TD*%
%TO.C,R38*%
X62400000Y-71187500D03*
X62400000Y-69612500D03*
%TD*%
%TO.C,R39*%
X60900000Y-71187500D03*
X60900000Y-69612500D03*
%TD*%
%TO.C,R46*%
X57900000Y-71187500D03*
X57900000Y-69612500D03*
%TD*%
%TO.C,R44*%
X59400000Y-71187500D03*
X59400000Y-69612500D03*
%TD*%
%TO.C,R5*%
X62400000Y-68187500D03*
X62400000Y-66612500D03*
%TD*%
D34*
%TO.C,Q1*%
X92881000Y-94995000D03*
X92881000Y-98045000D03*
X96231000Y-94995000D03*
X96231000Y-98045000D03*
D35*
X88256000Y-94240000D03*
X88256000Y-98800000D03*
%TD*%
D13*
%TO.C,R55*%
X66900000Y-68187500D03*
X66900000Y-66612500D03*
%TD*%
%TO.C,R57*%
X65400000Y-68187500D03*
X65400000Y-66612500D03*
%TD*%
%TO.C,R59*%
X63900000Y-68187500D03*
X63900000Y-66612500D03*
%TD*%
%TO.C,R60*%
X68400000Y-71187500D03*
X68400000Y-69612500D03*
%TD*%
%TO.C,R61*%
X66900000Y-71187500D03*
X66900000Y-69612500D03*
%TD*%
%TO.C,R62*%
X65400000Y-71187500D03*
X65400000Y-69612500D03*
%TD*%
%TO.C,R63*%
X63900000Y-71187500D03*
X63900000Y-69612500D03*
%TD*%
%TO.C,R53*%
X68400000Y-68187500D03*
X68400000Y-66612500D03*
%TD*%
D12*
%TO.C,D19*%
X26187500Y-86309200D03*
X24612500Y-86309200D03*
%TD*%
D13*
%TO.C,R64*%
X56400000Y-68187500D03*
X56400000Y-66612500D03*
%TD*%
%TO.C,R65*%
X54900000Y-68187500D03*
X54900000Y-66612500D03*
%TD*%
%TO.C,R66*%
X53400000Y-68187500D03*
X53400000Y-66612500D03*
%TD*%
%TO.C,R67*%
X51900000Y-68187500D03*
X51900000Y-66612500D03*
%TD*%
%TO.C,R68*%
X56400000Y-71187500D03*
X56400000Y-69612500D03*
%TD*%
%TO.C,R69*%
X54900000Y-71187500D03*
X54900000Y-69612500D03*
%TD*%
%TO.C,R70*%
X53400000Y-71187500D03*
X53400000Y-69612500D03*
%TD*%
%TO.C,R71*%
X51900000Y-71187500D03*
X51900000Y-69612500D03*
%TD*%
%TO.C,R72*%
X50400000Y-68187500D03*
X50400000Y-66612500D03*
%TD*%
%TO.C,R75*%
X45900000Y-68187500D03*
X45900000Y-66612500D03*
%TD*%
%TO.C,R76*%
X50400000Y-71187500D03*
X50400000Y-69612500D03*
%TD*%
%TO.C,R77*%
X48900000Y-71187500D03*
X48900000Y-69612500D03*
%TD*%
%TO.C,R78*%
X47400000Y-71187500D03*
X47400000Y-69612500D03*
%TD*%
%TO.C,R79*%
X45900000Y-71187500D03*
X45900000Y-69612500D03*
%TD*%
D11*
%TO.C,C82*%
X59283500Y-58801000D03*
X60858500Y-58801000D03*
%TD*%
%TO.C,R28*%
X56100001Y-74500000D03*
X57675001Y-74500000D03*
%TD*%
D36*
%TO.C,D2*%
X86650000Y-84500000D03*
X84750000Y-84500000D03*
X85700000Y-86500000D03*
%TD*%
D29*
%TO.C,D37*%
X91789200Y-89250000D03*
X91789200Y-85250000D03*
%TD*%
D14*
%TO.C,C41*%
X86900000Y-79095500D03*
X86900000Y-80670500D03*
%TD*%
%TO.C,C13*%
X83566000Y-79095500D03*
X83566000Y-80670500D03*
%TD*%
%TO.C,C14*%
X91998800Y-79095500D03*
X91998800Y-80670500D03*
%TD*%
%TO.C,R20*%
X90512900Y-79095500D03*
X90512900Y-80670500D03*
%TD*%
D23*
%TO.C,R22*%
X84862500Y-82800000D03*
X86737500Y-82800000D03*
%TD*%
D13*
%TO.C,R6*%
X89027000Y-80670500D03*
X89027000Y-79095500D03*
%TD*%
%TO.C,R8*%
X85100000Y-80687500D03*
X85100000Y-79112500D03*
%TD*%
D36*
%TO.C,D42*%
X68250000Y-91300000D03*
X66350000Y-91300000D03*
X67300000Y-93300000D03*
%TD*%
D37*
%TO.C,SW1*%
X32828400Y-88442800D03*
X40628400Y-88442800D03*
%TD*%
D36*
%TO.C,U7*%
X71850000Y-91300000D03*
X69950000Y-91300000D03*
X70900000Y-93300000D03*
%TD*%
D38*
%TO.C,C43*%
X93100000Y-75700000D03*
X93100000Y-77575000D03*
%TD*%
D19*
%TO.C,RN6*%
X26900000Y-67050000D03*
D20*
X26100000Y-67050000D03*
X25300000Y-67050000D03*
D19*
X24500000Y-67050000D03*
X24500000Y-68850000D03*
D20*
X25300000Y-68850000D03*
X26100000Y-68850000D03*
D19*
X26900000Y-68850000D03*
%TD*%
D13*
%TO.C,R36*%
X94600000Y-49887500D03*
X94600000Y-48312500D03*
%TD*%
D12*
%TO.C,C30*%
X44170700Y-91897200D03*
X42595700Y-91897200D03*
%TD*%
D13*
%TO.C,C18*%
X41554400Y-56108700D03*
X41554400Y-54533700D03*
%TD*%
D22*
%TO.C,D43*%
X90400000Y-51200000D03*
X90400000Y-49100000D03*
%TD*%
D39*
%TO.C,SW3*%
X38828400Y-83900000D03*
X34628400Y-83900000D03*
%TD*%
D40*
%TO.C,SW4*%
X34628400Y-88700000D03*
X38828400Y-88700000D03*
%TD*%
D13*
%TO.C,C80*%
X47244000Y-51206500D03*
X47244000Y-49631500D03*
%TD*%
%TO.C,R74*%
X47400000Y-68187500D03*
X47400000Y-66612500D03*
%TD*%
%TO.C,R73*%
X48900000Y-68187500D03*
X48900000Y-66612500D03*
%TD*%
D21*
%TO.C,R24*%
X65890000Y-33401000D03*
X64920000Y-33401000D03*
%TD*%
D41*
%TO.C,U9*%
X78595000Y-52875000D03*
X79865000Y-52875000D03*
X81135000Y-52875000D03*
X82405000Y-52875000D03*
X82405000Y-47725000D03*
X81135000Y-47725000D03*
X79865000Y-47725000D03*
X78595000Y-47725000D03*
%TD*%
D14*
%TO.C,C4*%
X71400000Y-53425000D03*
X71400000Y-55000000D03*
%TD*%
%TO.C,D33*%
X97600000Y-51412500D03*
X97600000Y-52987500D03*
%TD*%
D41*
%TO.C,U10*%
X84195000Y-52875000D03*
X85465000Y-52875000D03*
X86735000Y-52875000D03*
X88005000Y-52875000D03*
X88005000Y-47725000D03*
X86735000Y-47725000D03*
X85465000Y-47725000D03*
X84195000Y-47725000D03*
%TD*%
D13*
%TO.C,C29*%
X62103000Y-97307500D03*
X62103000Y-95732500D03*
%TD*%
D14*
%TO.C,R12*%
X69850000Y-47212500D03*
X69850000Y-48787500D03*
%TD*%
D42*
%TO.C,U4*%
X39225000Y-51561000D03*
X39225000Y-50101000D03*
X39225000Y-48641000D03*
X39225000Y-47181000D03*
X39225000Y-45721000D03*
X36975000Y-51561000D03*
X36975000Y-50101000D03*
X36975000Y-48641000D03*
X36975000Y-47181000D03*
X36975000Y-45721000D03*
D43*
X42900000Y-51141000D03*
X42900000Y-50141000D03*
X42900000Y-49141000D03*
X42900000Y-48141000D03*
X42900000Y-47141000D03*
X42900000Y-46141000D03*
X33300000Y-46141000D03*
X33300000Y-47141000D03*
X33300000Y-48141000D03*
X33300000Y-49141000D03*
X33300000Y-50141000D03*
X33300000Y-51141000D03*
%TD*%
D44*
%TO.C,U2*%
X75600000Y-62403000D03*
X75600000Y-62903000D03*
X75600000Y-63403000D03*
X75600000Y-63903000D03*
X75600000Y-64403000D03*
X75600000Y-64903000D03*
X75600000Y-65403000D03*
X75600000Y-65903000D03*
X75600000Y-66403000D03*
X75600000Y-66903000D03*
X75600000Y-67403000D03*
X75600000Y-67903000D03*
X75600000Y-68403000D03*
X75600000Y-68903000D03*
X75600000Y-69403000D03*
X75600000Y-69903000D03*
X75600000Y-70403000D03*
X75600000Y-70903000D03*
X75600000Y-71403000D03*
X75600000Y-71903000D03*
X75600000Y-72403000D03*
X75600000Y-72903000D03*
X75600000Y-73403000D03*
X75600000Y-73903000D03*
X75600000Y-74403000D03*
D45*
X77500000Y-76303000D03*
X78000000Y-76303000D03*
X78500000Y-76303000D03*
X79000000Y-76303000D03*
X79500000Y-76303000D03*
X80000000Y-76303000D03*
X80500000Y-76303000D03*
X81000000Y-76303000D03*
X81500000Y-76303000D03*
X82000000Y-76303000D03*
X82500000Y-76303000D03*
X83000000Y-76303000D03*
X83500000Y-76303000D03*
X84000000Y-76303000D03*
X84500000Y-76303000D03*
X85000000Y-76303000D03*
X85500000Y-76303000D03*
X86000000Y-76303000D03*
X86500000Y-76303000D03*
X87000000Y-76303000D03*
X87500000Y-76303000D03*
X88000000Y-76303000D03*
X88500000Y-76303000D03*
X89000000Y-76303000D03*
X89500000Y-76303000D03*
D44*
X91400000Y-74403000D03*
X91400000Y-73903000D03*
X91400000Y-73403000D03*
X91400000Y-72903000D03*
X91400000Y-72403000D03*
X91400000Y-71903000D03*
X91400000Y-71403000D03*
X91400000Y-70903000D03*
X91400000Y-70403000D03*
X91400000Y-69903000D03*
X91400000Y-69403000D03*
X91400000Y-68903000D03*
X91400000Y-68403000D03*
X91400000Y-67903000D03*
X91400000Y-67403000D03*
X91400000Y-66903000D03*
X91400000Y-66403000D03*
X91400000Y-65903000D03*
X91400000Y-65403000D03*
X91400000Y-64903000D03*
X91400000Y-64403000D03*
X91400000Y-63903000D03*
X91400000Y-63403000D03*
X91400000Y-62903000D03*
X91400000Y-62403000D03*
D45*
X89500000Y-60503000D03*
X89000000Y-60503000D03*
X88500000Y-60503000D03*
X88000000Y-60503000D03*
X87500000Y-60503000D03*
X87000000Y-60503000D03*
X86500000Y-60503000D03*
X86000000Y-60503000D03*
X85500000Y-60503000D03*
X85000000Y-60503000D03*
X84500000Y-60503000D03*
X84000000Y-60503000D03*
X83500000Y-60503000D03*
X83000000Y-60503000D03*
X82500000Y-60503000D03*
X82000000Y-60503000D03*
X81500000Y-60503000D03*
X81000000Y-60503000D03*
X80500000Y-60503000D03*
X80000000Y-60503000D03*
X79500000Y-60503000D03*
X79000000Y-60503000D03*
X78500000Y-60503000D03*
X78000000Y-60503000D03*
X77500000Y-60503000D03*
D46*
X83500000Y-68403000D03*
%TD*%
D22*
%TO.C,D30*%
X94600000Y-54300000D03*
X94600000Y-56400000D03*
%TD*%
D47*
%TO.C,C2*%
X81600000Y-88900000D03*
X74200000Y-88900000D03*
%TD*%
D48*
%TO.C,U1*%
X48086800Y-93959600D03*
X48586800Y-93959600D03*
X49086800Y-93959600D03*
X49586800Y-93959600D03*
X50086800Y-93959600D03*
X50586800Y-93959600D03*
X51086800Y-93959600D03*
X51586800Y-93959600D03*
X52086800Y-93959600D03*
X52586800Y-93959600D03*
X53086800Y-93959600D03*
X53586800Y-93959600D03*
X54086800Y-93959600D03*
X54586800Y-93959600D03*
X55086800Y-93959600D03*
X55586800Y-93959600D03*
X56086800Y-93959600D03*
X56586800Y-93959600D03*
X57086800Y-93959600D03*
X57586800Y-93959600D03*
X58086800Y-93959600D03*
X58586800Y-93959600D03*
X59086800Y-93959600D03*
X59586800Y-93959600D03*
X60086800Y-93959600D03*
D49*
X61761800Y-92284600D03*
X61761800Y-91784600D03*
X61761800Y-91284600D03*
X61761800Y-90784600D03*
X61761800Y-90284600D03*
X61761800Y-89784600D03*
X61761800Y-89284600D03*
X61761800Y-88784600D03*
X61761800Y-88284600D03*
X61761800Y-87784600D03*
X61761800Y-87284600D03*
X61761800Y-86784600D03*
X61761800Y-86284600D03*
X61761800Y-85784600D03*
X61761800Y-85284600D03*
X61761800Y-84784600D03*
X61761800Y-84284600D03*
X61761800Y-83784600D03*
X61761800Y-83284600D03*
X61761800Y-82784600D03*
X61761800Y-82284600D03*
X61761800Y-81784600D03*
X61761800Y-81284600D03*
X61761800Y-80784600D03*
X61761800Y-80284600D03*
D48*
X60086800Y-78609600D03*
X59586800Y-78609600D03*
X59086800Y-78609600D03*
X58586800Y-78609600D03*
X58086800Y-78609600D03*
X57586800Y-78609600D03*
X57086800Y-78609600D03*
X56586800Y-78609600D03*
X56086800Y-78609600D03*
X55586800Y-78609600D03*
X55086800Y-78609600D03*
X54586800Y-78609600D03*
X54086800Y-78609600D03*
X53586800Y-78609600D03*
X53086800Y-78609600D03*
X52586800Y-78609600D03*
X52086800Y-78609600D03*
X51586800Y-78609600D03*
X51086800Y-78609600D03*
X50586800Y-78609600D03*
X50086800Y-78609600D03*
X49586800Y-78609600D03*
X49086800Y-78609600D03*
X48586800Y-78609600D03*
X48086800Y-78609600D03*
D49*
X46411800Y-80284600D03*
X46411800Y-80784600D03*
X46411800Y-81284600D03*
X46411800Y-81784600D03*
X46411800Y-82284600D03*
X46411800Y-82784600D03*
X46411800Y-83284600D03*
X46411800Y-83784600D03*
X46411800Y-84284600D03*
X46411800Y-84784600D03*
X46411800Y-85284600D03*
X46411800Y-85784600D03*
X46411800Y-86284600D03*
X46411800Y-86784600D03*
X46411800Y-87284600D03*
X46411800Y-87784600D03*
X46411800Y-88284600D03*
X46411800Y-88784600D03*
X46411800Y-89284600D03*
X46411800Y-89784600D03*
X46411800Y-90284600D03*
X46411800Y-90784600D03*
X46411800Y-91284600D03*
X46411800Y-91784600D03*
X46411800Y-92284600D03*
%TD*%
D12*
%TO.C,R29*%
X62087500Y-74400000D03*
X60512500Y-74400000D03*
%TD*%
D50*
%TO.C,R3*%
X74041000Y-60401200D03*
X72715174Y-59075374D03*
%TD*%
D14*
%TO.C,R82*%
X77500000Y-78312500D03*
X77500000Y-79887500D03*
%TD*%
D27*
%TO.C,R10*%
X90600000Y-52700000D03*
X90600000Y-55500000D03*
%TD*%
D14*
%TO.C,R141*%
X46355000Y-44678500D03*
X46355000Y-46253500D03*
%TD*%
D51*
%TO.C,D7*%
X54483000Y-110108000D03*
X54483000Y-106808000D03*
%TD*%
D14*
%TO.C,R83*%
X75400000Y-75912500D03*
X75400000Y-77487500D03*
%TD*%
%TO.C,R2*%
X75100000Y-80512500D03*
X75100000Y-82087500D03*
%TD*%
D37*
%TO.C,SW2*%
X40628400Y-84124800D03*
X32828400Y-84124800D03*
%TD*%
D12*
%TO.C,R19*%
X78287500Y-40900000D03*
X76712500Y-40900000D03*
%TD*%
D22*
%TO.C,D32*%
X97100000Y-54250000D03*
X97100000Y-56350000D03*
%TD*%
D52*
%TO.C,J2*%
X51231800Y-111486000D03*
X51231800Y-106446000D03*
X48691800Y-111486000D03*
X48691800Y-106446000D03*
X46151800Y-111486000D03*
X46151800Y-106446000D03*
X43611800Y-111486000D03*
X43611800Y-106446000D03*
X41071800Y-111486000D03*
X41071800Y-106446000D03*
%TD*%
D13*
%TO.C,C23*%
X59055000Y-97841000D03*
X59055000Y-96266000D03*
%TD*%
D53*
%TO.C,FB1*%
X64629000Y-94234000D03*
X62879000Y-94234000D03*
%TD*%
D14*
%TO.C,C42*%
X67450000Y-104612500D03*
X67450000Y-106187500D03*
%TD*%
D21*
%TO.C,R131*%
X58676400Y-33324800D03*
X57706400Y-33324800D03*
%TD*%
D18*
%TO.C,C45*%
X68730000Y-44069000D03*
X69700000Y-44069000D03*
%TD*%
D21*
%TO.C,C46*%
X67795000Y-42799000D03*
X66825000Y-42799000D03*
%TD*%
D18*
%TO.C,C47*%
X66571000Y-44069000D03*
X67541000Y-44069000D03*
%TD*%
D21*
%TO.C,C48*%
X65636000Y-42799000D03*
X64666000Y-42799000D03*
%TD*%
D18*
%TO.C,C49*%
X64158000Y-44069000D03*
X65128000Y-44069000D03*
%TD*%
D21*
%TO.C,C50*%
X63477000Y-42799000D03*
X62507000Y-42799000D03*
%TD*%
D18*
%TO.C,C51*%
X61999000Y-44069000D03*
X62969000Y-44069000D03*
%TD*%
D21*
%TO.C,C16*%
X70081000Y-42799000D03*
X69111000Y-42799000D03*
%TD*%
D54*
%TO.C,R54*%
X69303947Y-36487147D03*
X68618053Y-35801253D03*
%TD*%
D55*
%TO.C,R7*%
X70739000Y-39220000D03*
X70739000Y-38250000D03*
%TD*%
D19*
%TO.C,RN2*%
X69526000Y-39232000D03*
D20*
X68726000Y-39232000D03*
X67926000Y-39232000D03*
D19*
X67126000Y-39232000D03*
X67126000Y-41032000D03*
D20*
X67926000Y-41032000D03*
X68726000Y-41032000D03*
D19*
X69526000Y-41032000D03*
%TD*%
%TO.C,RN4*%
X65716000Y-39232000D03*
D20*
X64916000Y-39232000D03*
X64116000Y-39232000D03*
D19*
X63316000Y-39232000D03*
X63316000Y-41032000D03*
D20*
X64116000Y-41032000D03*
X64916000Y-41032000D03*
D19*
X65716000Y-41032000D03*
%TD*%
D21*
%TO.C,R34*%
X63680200Y-35814000D03*
X62710200Y-35814000D03*
%TD*%
%TO.C,R37*%
X63223000Y-33401000D03*
X62253000Y-33401000D03*
%TD*%
%TO.C,C52*%
X59159000Y-45974000D03*
X58189000Y-45974000D03*
%TD*%
D18*
%TO.C,C53*%
X57681000Y-47244000D03*
X58651000Y-47244000D03*
%TD*%
D21*
%TO.C,C54*%
X56746000Y-45974000D03*
X55776000Y-45974000D03*
%TD*%
D18*
%TO.C,C55*%
X55141000Y-47244000D03*
X56111000Y-47244000D03*
%TD*%
D21*
%TO.C,C56*%
X52809000Y-45974000D03*
X51839000Y-45974000D03*
%TD*%
D18*
%TO.C,C57*%
X51331000Y-47244000D03*
X52301000Y-47244000D03*
%TD*%
D21*
%TO.C,C58*%
X50523000Y-45974000D03*
X49553000Y-45974000D03*
%TD*%
D18*
%TO.C,C59*%
X49045000Y-47244000D03*
X50015000Y-47244000D03*
%TD*%
%TO.C,R11*%
X53109000Y-45008800D03*
X54079000Y-45008800D03*
%TD*%
%TO.C,R41*%
X57731800Y-35839400D03*
X58701800Y-35839400D03*
%TD*%
D14*
%TO.C,R30*%
X69900800Y-69621300D03*
X69900800Y-71196300D03*
%TD*%
D11*
%TO.C,R84*%
X89255500Y-58801000D03*
X90830500Y-58801000D03*
%TD*%
D56*
%TO.C,R85*%
X78280847Y-55069153D03*
X77167153Y-56182847D03*
%TD*%
%TO.C,C3*%
X81056847Y-57443153D03*
X79943153Y-58556847D03*
%TD*%
D57*
%TO.C,R86*%
X80799913Y-55217087D03*
X79474087Y-56542913D03*
%TD*%
D58*
%TO.C,J4*%
X30683200Y-78496400D03*
X30683200Y-73446400D03*
X33223200Y-78496400D03*
X33223200Y-73446400D03*
X35763200Y-78496400D03*
X35763200Y-73446400D03*
X38303200Y-78496400D03*
X38303200Y-73446400D03*
X40843200Y-78496400D03*
X40843200Y-73446400D03*
%TD*%
D54*
%TO.C,R52*%
X70192947Y-35902947D03*
X69507053Y-35217053D03*
%TD*%
D59*
%TO.C,D41*%
X76835000Y-95025000D03*
X76835000Y-101825000D03*
%TD*%
D11*
%TO.C,R15*%
X73612500Y-39400000D03*
X75187500Y-39400000D03*
%TD*%
D60*
%TO.C,D14*%
X64208900Y-104546400D03*
X62333900Y-104546400D03*
%TD*%
D11*
%TO.C,R23*%
X60375700Y-45415200D03*
X61950700Y-45415200D03*
%TD*%
D12*
%TO.C,R25*%
X55105400Y-43789600D03*
X53530400Y-43789600D03*
%TD*%
D61*
%TO.C,J6*%
X79850000Y-106295000D03*
X79850000Y-107395000D03*
X79850000Y-108495000D03*
X79850000Y-109595000D03*
X79850000Y-110695000D03*
X79850000Y-111795000D03*
X79850000Y-112895000D03*
D62*
X79850000Y-113945000D03*
D63*
X73700000Y-103660000D03*
X70000000Y-103660000D03*
D64*
X79725000Y-103835000D03*
D65*
X69025000Y-107160000D03*
X69025000Y-113130000D03*
D66*
X79500000Y-115155000D03*
%TD*%
D67*
%TO.C,C100*%
X43636800Y-91284600D03*
X45186800Y-91284600D03*
%TD*%
M02*
