M48
; DRILL file KiCad 10.0.5-10.0.5~ubuntu24.04.1 date 2026-08-04T17:55:55
; FORMAT={-:-/ absolute / metric / decimal}
; #@! TF.CreationDate,2026-08-04T17:55:55-03:00
; #@! TF.GenerationSoftware,Kicad,Pcbnew,10.0.5-10.0.5~ubuntu24.04.1
; #@! TF.FileFunction,Plated,1,2,PTH
FMAT,2
METRIC
; #@! TA.AperFunction,Plated,PTH,ViaDrill
T1C0.300
; #@! TA.AperFunction,Plated,PTH,ViaDrill
T2C0.434
; #@! TA.AperFunction,Plated,PTH,ComponentDrill
T3C0.500
; #@! TA.AperFunction,Plated,PTH,ComponentDrill
T4C0.700
; #@! TA.AperFunction,Plated,PTH,ComponentDrill
T5C0.950
; #@! TA.AperFunction,Plated,PTH,ComponentDrill
T6C1.150
; #@! TA.AperFunction,Plated,PTH,ComponentDrill
T7C2.200
; #@! TA.AperFunction,Plated,PTH,ComponentDrill
T8C4.000
%
G90
G05
T1
X21.463Y-71.501
X21.463Y-85.725
X21.59Y-44.069
X21.59Y-59.817
X21.59Y-65.532
X21.59Y-77.343
X21.717Y-36.957
X21.717Y-49.53
X21.717Y-54.61
X21.717Y-93.98
X22.954Y-81.046
X22.987Y-104.902
X23.1Y-61.458
X23.241Y-31.877
X23.9Y-89.1
X24.003Y-106.426
X25.0Y-94.75
X25.0Y-96.02
X25.0Y-97.29
X25.248Y-47.701
X25.273Y-27.559
X25.273Y-105.537
X25.527Y-72.644
X25.635Y-95.385
X25.635Y-96.655
X25.857Y-56.312
X26.063Y-52.479
X26.27Y-94.75
X26.27Y-96.02
X26.27Y-97.29
X26.899Y-63.6
X26.905Y-95.385
X26.905Y-96.655
X27.051Y-23.622
X27.051Y-102.997
X27.5Y-84.8
X27.5Y-86.3
X27.5Y-87.8
X27.54Y-94.75
X27.54Y-96.02
X27.54Y-97.29
X28.0Y-68.8
X28.1Y-46.5
X28.175Y-95.385
X28.175Y-96.655
X28.575Y-107.188
X28.81Y-94.75
X28.81Y-96.02
X28.81Y-97.29
X28.996Y-61.404
X29.286Y-79.858
X29.337Y-23.368
X29.413Y-72.695
X29.445Y-95.385
X29.445Y-96.655
X29.464Y-102.489
X29.5Y-46.45
X29.9Y-90.96
X29.972Y-108.585
X30.08Y-94.75
X30.08Y-96.02
X30.08Y-97.29
X30.201Y-50.622
X30.3Y-81.0
X30.4Y-83.4
X30.48Y-112.268
X30.556Y-48.412
X30.556Y-56.312
X30.607Y-89.662
X30.79Y-45.91
X31.115Y-87.503
X31.2Y-84.1
X31.877Y-110.363
X32.0Y-93.0
X32.004Y-101.346
X32.278Y-39.957
X32.334Y-63.6
X32.639Y-81.204
X32.786Y-43.139
X32.817Y-84.176
X32.842Y-41.143
X33.0Y-95.6
X33.3Y-69.8
X33.401Y-115.189
X33.6Y-68.3
X33.6Y-98.7
X33.757Y-52.248
X34.29Y-91.059
X34.595Y-72.39
X34.7Y-98.7
X34.798Y-93.091
X35.05Y-42.5
X35.7Y-101.5
X35.9Y-68.3
X35.9Y-98.7
X35.95Y-42.5
X36.195Y-90.678
X36.449Y-45.212
X36.449Y-46.482
X36.449Y-47.752
X36.449Y-49.022
X36.449Y-50.292
X36.449Y-51.562
X36.449Y-87.884
X36.6Y-102.5
X36.779Y-56.21
X36.8Y-42.5
X36.83Y-84.836
X37.7Y-42.5
X37.7Y-103.6
X37.719Y-45.212
X37.719Y-46.482
X37.719Y-47.752
X37.719Y-49.022
X37.719Y-50.292
X37.719Y-51.562
X37.77Y-63.6
X37.8Y-68.3
X37.897Y-53.797
X38.354Y-90.678
X38.7Y-104.775
X38.9Y-100.8
X38.989Y-45.212
X38.989Y-46.482
X38.989Y-47.752
X38.989Y-49.022
X38.989Y-50.292
X38.989Y-51.562
X39.141Y-63.394
X39.218Y-43.688
X39.446Y-53.24
X39.497Y-71.399
X39.497Y-108.077
X39.522Y-75.997
X39.746Y-62.103
X39.8Y-101.8
X39.8Y-110.871
X39.878Y-104.775
X40.081Y-68.859
X40.259Y-23.368
X40.386Y-43.688
X40.628Y-84.125
X40.64Y-58.801
X40.64Y-88.443
X40.64Y-99.695
X40.7Y-66.2
X40.869Y-79.604
X41.097Y-57.556
X41.097Y-105.689
X41.1Y-101.7
X41.123Y-49.276
X41.145Y-112.014
X41.275Y-62.154
X41.986Y-37.922
X42.0Y-90.34
X42.164Y-45.263
X42.3Y-29.6
X42.747Y-90.246
X42.799Y-24.384
X42.824Y-37.084
X42.862Y-31.813
X42.862Y-33.02
X42.862Y-34.353
X42.862Y-35.623
X42.875Y-75.032
X42.926Y-45.263
X43.076Y-29.568
X43.307Y-79.502
X43.561Y-101.981
X43.561Y-115.189
X43.621Y-112.014
X43.637Y-45.263
X43.685Y-105.664
X43.688Y-96.774
X43.923Y-53.24
X44.044Y-82.082
X44.134Y-53.975
X44.25Y-76.75
X44.509Y-108.788
X44.577Y-60.681
X44.577Y-61.443
X44.577Y-62.332
X44.727Y-82.396
X44.767Y-93.802
X44.9Y-104.775
X44.958Y-78.105
X45.085Y-86.741
X45.105Y-91.218
X45.3Y-39.7
X45.357Y-79.763
X45.72Y-33.274
X45.8Y-39.2
X45.847Y-101.981
X46.0Y-93.9
X46.161Y-112.014
X46.228Y-30.861
X46.228Y-105.664
X46.3Y-38.7
X46.355Y-33.274
X46.355Y-48.768
X46.482Y-23.114
X46.609Y-68.897
X46.631Y-41.347
X46.8Y-38.2
X46.863Y-30.861
X46.99Y-33.147
X47.117Y-35.56
X47.244Y-78.867
X47.3Y-37.7
X47.371Y-34.036
X47.371Y-104.775
X47.567Y-40.286
X47.625Y-34.798
X47.75Y-58.3
X47.752Y-60.274
X47.752Y-63.271
X47.752Y-100.838
X47.777Y-61.874
X47.791Y-87.905
X47.8Y-85.3
X47.8Y-86.3
X47.8Y-87.152
X47.8Y-89.3
X47.879Y-35.814
X47.879Y-41.405
X48.0Y-68.897
X48.184Y-88.573
X48.26Y-91.567
X48.362Y-53.416
X48.387Y-35.179
X48.387Y-101.981
X48.423Y-65.38
X48.514Y-43.612
X48.641Y-100.838
X48.699Y-112.014
X48.702Y-80.138
X48.765Y-105.664
X48.793Y-56.693
X49.022Y-30.861
X49.1Y-55.0
X49.149Y-104.013
X49.225Y-41.123
X49.3Y-25.0
X49.459Y-81.009
X49.523Y-68.897
X49.632Y-59.639
X49.657Y-30.861
X49.682Y-57.48
X49.682Y-58.395
X49.7Y-82.5
X49.784Y-33.274
X49.784Y-46.609
X49.8Y-24.5
X49.9Y-77.0
X49.9Y-104.648
X50.165Y-56.591
X50.168Y-91.721
X50.419Y-30.861
X50.419Y-33.274
X50.44Y-89.605
X50.6Y-77.5
X50.6Y-95.3
X50.673Y-58.649
X50.706Y-90.518
X50.8Y-91.313
X50.825Y-40.132
X50.902Y-57.556
X50.927Y-104.013
X51.054Y-68.897
X51.15Y-54.95
X51.181Y-101.981
X51.181Y-112.014
X51.25Y-52.7
X51.305Y-105.664
X51.308Y-56.693
X51.5Y-36.4
X51.5Y-37.2
X51.8Y-34.4
X51.841Y-40.919
X51.867Y-58.242
X51.943Y-46.609
X51.988Y-80.051
X52.1Y-73.0
X52.324Y-96.367
X52.324Y-113.665
X52.451Y-48.768
X52.476Y-60.35
X52.654Y-43.053
X52.691Y-90.831
X52.697Y-71.965
X52.7Y-26.1
X52.7Y-63.0
X52.705Y-104.14
X52.729Y-80.258
X52.895Y-50.038
X52.9Y-84.35
X52.9Y-86.5
X52.9Y-110.0
X52.932Y-87.869
X52.934Y-64.643
X52.959Y-106.807
X52.987Y-83.37
X53.2Y-25.6
X53.213Y-48.514
X53.34Y-101.981
X53.367Y-80.869
X53.442Y-46.939
X53.467Y-99.949
X53.796Y-81.515
X53.848Y-46.025
X53.899Y-63.83
X54.153Y-64.541
X54.245Y-72.07
X54.3Y-107.9
X54.305Y-62.027
X54.381Y-60.96
X54.4Y-63.0
X54.5Y-109.3
X54.534Y-113.259
X54.61Y-115.443
X54.7Y-33.6
X54.737Y-63.906
X54.844Y-83.058
X54.889Y-40.31
X55.0Y-52.2
X55.0Y-87.2
X55.08Y-44.78
X55.1Y-72.9
X55.118Y-83.947
X55.118Y-101.981
X55.143Y-105.359
X55.245Y-104.013
X55.3Y-73.8
X55.448Y-64.643
X55.6Y-55.05
X55.7Y-72.0
X55.7Y-109.5
X55.829Y-41.25
X55.88Y-46.609
X55.88Y-113.411
X55.9Y-88.1
X56.007Y-104.521
X56.088Y-83.947
X56.261Y-112.649
X56.388Y-39.522
X56.6Y-85.5
X56.7Y-87.3
X56.913Y-50.593
X57.048Y-33.325
X57.277Y-113.665
X57.6Y-106.4
X57.633Y-82.106
X57.658Y-82.931
X57.785Y-49.403
X57.785Y-99.441
X57.785Y-115.443
X57.924Y-80.626
X58.039Y-59.944
X58.039Y-101.854
X58.046Y-79.884
X58.1Y-111.9
X58.166Y-81.407
X58.3Y-103.924
X58.452Y-46.609
X58.7Y-72.0
X58.7Y-72.9
X58.7Y-105.6
X58.826Y-40.056
X59.072Y-80.171
X59.302Y-35.558
X59.69Y-39.065
X59.7Y-55.0
X59.792Y-47.295
X59.8Y-74.7
X59.817Y-97.155
X59.969Y-56.769
X60.071Y-68.961
X60.165Y-71.965
X60.2Y-114.5
X60.3Y-104.0
X60.506Y-84.75
X60.528Y-57.531
X60.566Y-43.193
X60.579Y-91.186
X60.7Y-28.1
X60.8Y-111.6
X60.85Y-52.45
X61.011Y-55.728
X61.036Y-102.006
X61.1Y-105.506
X61.208Y-78.528
X61.214Y-56.693
X61.468Y-38.862
X61.65Y-28.1
X61.665Y-71.965
X61.671Y-57.531
X61.976Y-31.242
X62.001Y-32.639
X62.128Y-56.617
X62.23Y-60.223
X62.245Y-54.976
X62.29Y-35.802
X62.484Y-115.443
X62.55Y-28.1
X62.611Y-49.022
X62.738Y-43.434
X62.865Y-96.647
X63.026Y-90.414
X63.043Y-113.233
X63.1Y-63.0
X63.119Y-91.948
X63.135Y-72.035
X63.208Y-50.05
X63.424Y-101.981
X63.45Y-28.1
X63.6Y-89.927
X63.754Y-112.014
X63.8Y-110.0
X63.957Y-64.186
X64.198Y-89.471
X64.389Y-30.226
X64.389Y-31.75
X64.516Y-68.961
X64.6Y-72.0
X64.628Y-106.224
X64.77Y-90.297
X64.8Y-89.0
X64.872Y-61.925
X64.897Y-43.434
X64.9Y-63.0
X64.948Y-60.808
X64.948Y-64.186
X65.024Y-98.044
X65.168Y-87.81
X65.278Y-95.504
X65.278Y-111.76
X65.4Y-28.1
X65.645Y-87.228
X65.684Y-88.392
X65.7Y-93.386
X65.761Y-104.953
X65.786Y-64.16
X65.913Y-99.441
X65.938Y-45.314
X66.1Y-28.1
X66.167Y-115.443
X66.191Y-71.991
X66.269Y-64.948
X66.599Y-110.287
X66.675Y-36.068
X66.827Y-108.763
X66.95Y-55.05
X66.954Y-47.701
X67.183Y-43.434
X67.183Y-92.329
X67.183Y-98.679
X67.437Y-94.869
X67.494Y-75.845
X67.5Y-75.084
X67.635Y-70.348
X67.818Y-107.569
X67.945Y-113.69
X68.148Y-50.571
X68.199Y-51.689
X68.38Y-96.82
X68.8Y-73.8
X68.9Y-105.6
X68.95Y-70.275
X68.998Y-57.3
X69.0Y-103.8
X69.215Y-93.853
X69.266Y-45.415
X69.3Y-78.5
X69.3Y-80.4
X69.342Y-98.171
X69.418Y-34.036
X69.469Y-43.434
X69.596Y-89.408
X69.723Y-96.266
X69.799Y-82.688
X69.82Y-60.592
X69.9Y-109.5
X69.977Y-40.132
X70.0Y-73.7
X70.0Y-74.6
X70.053Y-68.402
X70.1Y-78.5
X70.288Y-81.011
X70.4Y-54.144
X70.5Y-76.605
X70.626Y-81.893
X70.686Y-80.372
X70.787Y-60.116
X71.368Y-45.668
X71.374Y-54.102
X71.438Y-79.502
X71.438Y-80.772
X71.476Y-59.741
X71.564Y-82.688
X72.145Y-61.565
X72.2Y-45.9
X72.255Y-95.25
X72.257Y-106.8
X72.344Y-60.539
X72.4Y-56.7
X72.4Y-57.7
X72.512Y-107.9
X72.624Y-99.2
X72.839Y-64.515
X73.1Y-112.8
X73.279Y-61.341
X73.457Y-72.111
X73.5Y-79.1
X73.5Y-82.0
X73.596Y-64.323
X73.787Y-115.443
X73.809Y-65.435
X73.9Y-82.688
X73.9Y-110.5
X74.0Y-108.4
X74.373Y-64.391
X74.4Y-72.1
X74.4Y-72.9
X74.4Y-73.7
X74.614Y-74.421
X74.676Y-91.948
X74.676Y-97.4
X74.676Y-98.552
X74.676Y-99.7
X74.691Y-71.406
X74.731Y-59.298
X74.93Y-93.218
X75.1Y-46.0
X75.144Y-55.446
X75.263Y-58.765
X75.311Y-87.376
X75.4Y-79.1
X75.4Y-100.0
X75.679Y-75.01
X75.806Y-54.864
X75.841Y-58.188
X76.1Y-100.0
X76.373Y-57.656
X76.454Y-55.499
X76.7Y-42.0
X76.788Y-64.907
X76.8Y-49.1
X76.8Y-50.3
X76.8Y-51.6
X76.8Y-52.9
X76.8Y-54.2
X76.8Y-100.0
X76.841Y-64.156
X76.86Y-60.02
X76.9Y-46.0
X76.956Y-65.735
X77.114Y-69.088
X77.165Y-54.966
X77.267Y-72.888
X77.292Y-72.136
X77.297Y-73.64
X77.3Y-28.9
X77.3Y-88.0
X77.3Y-89.0
X77.3Y-90.0
X77.319Y-75.132
X77.403Y-74.385
X77.5Y-61.7
X77.5Y-81.1
X77.5Y-82.5
X77.5Y-100.0
X77.6Y-34.5
X77.6Y-37.0
X77.699Y-48.26
X78.055Y-75.291
X78.1Y-29.7
X78.1Y-31.7
X78.1Y-32.4
X78.2Y-100.0
X78.232Y-56.134
X78.384Y-51.384
X78.435Y-62.001
X78.74Y-58.039
X79.019Y-62.636
X79.248Y-61.9
X79.3Y-63.4
X79.6Y-34.5
X79.6Y-37.0
X79.6Y-42.0
X79.9Y-49.1
X79.9Y-49.8
X80.137Y-61.798
X80.137Y-78.74
X80.3Y-86.3
X80.315Y-63.424
X80.391Y-62.56
X80.9Y-85.7
X80.975Y-51.435
X81.0Y-36.8
X81.0Y-61.7
X81.026Y-114.935
X81.153Y-63.525
X81.204Y-62.586
X81.5Y-85.1
X81.559Y-73.838
X81.6Y-30.45
X81.7Y-36.6
X81.7Y-58.8
X82.0Y-45.0
X82.169Y-94.996
X82.25Y-58.25
X82.5Y-30.45
X82.5Y-49.1
X82.5Y-49.8
X82.601Y-73.838
X82.748Y-45.9
X82.8Y-40.1
X82.8Y-57.7
X83.2Y-59.4
X83.4Y-30.45
X83.49Y-54.585
X83.5Y-45.9
X83.566Y-33.782
X83.947Y-86.106
X83.998Y-73.838
X84.023Y-32.512
X84.176Y-51.41
X84.3Y-45.0
X84.3Y-30.45
X84.582Y-90.678
X84.967Y-42.867
X85.0Y-41.7
X85.0Y-44.2
X85.268Y-31.877
X85.3Y-58.8
X85.344Y-98.679
X85.344Y-99.949
X85.344Y-101.219
X85.471Y-78.041
X85.5Y-49.1
X85.5Y-49.8
X85.5Y-57.075
X85.598Y-73.889
X85.702Y-74.781
X85.725Y-100.584
X85.829Y-93.241
X85.85Y-58.25
X85.979Y-99.187
X86.0Y-43.6
X86.106Y-99.949
X86.106Y-101.219
X86.233Y-96.266
X86.3Y-113.7
X86.396Y-57.704
X86.428Y-59.072
X86.487Y-92.456
X86.487Y-97.155
X86.487Y-100.584
X86.5Y-36.9
X86.614Y-51.486
X86.868Y-91.821
X86.868Y-93.091
X86.868Y-99.949
X86.868Y-101.219
X86.919Y-75.057
X87.0Y-77.6
X87.249Y-92.456
X87.249Y-97.663
X87.249Y-100.584
X87.3Y-49.1
X87.3Y-49.8
X87.376Y-73.965
X87.376Y-87.249
X87.418Y-23.199
X87.63Y-91.821
X87.63Y-93.091
X87.63Y-95.377
X87.63Y-99.949
X87.63Y-101.219
X88.011Y-92.456
X88.011Y-100.584
X88.392Y-91.821
X88.392Y-93.091
X88.392Y-95.377
X88.392Y-99.949
X88.392Y-101.219
X88.571Y-65.278
X88.731Y-63.395
X88.733Y-64.147
X88.773Y-92.456
X88.773Y-96.012
X88.773Y-100.584
X88.874Y-62.656
X88.9Y-111.3
X89.154Y-91.821
X89.154Y-93.091
X89.154Y-95.377
X89.154Y-96.647
X89.154Y-97.409
X89.154Y-99.949
X89.154Y-101.219
X89.2Y-23.2
X89.3Y-49.1
X89.3Y-55.2
X89.303Y-62.038
X89.4Y-74.5
X90.17Y-65.913
X90.17Y-92.075
X90.17Y-92.837
X90.17Y-93.599
X90.17Y-94.361
X90.17Y-95.123
X90.17Y-95.885
X90.17Y-96.647
X90.17Y-97.409
X90.17Y-98.171
X90.17Y-98.933
X90.2Y-68.1
X90.2Y-69.6
X90.2Y-72.4
X90.2Y-74.5
X90.221Y-66.664
X90.3Y-70.9
X90.399Y-61.127
X90.4Y-60.3
X90.805Y-54.229
X91.05Y-26.2
X91.186Y-56.896
X91.237Y-90.068
X91.262Y-84.455
X91.262Y-86.106
X91.262Y-88.519
X91.35Y-78.25
X91.6Y-108.8
X91.789Y-85.25
X91.796Y-89.306
X92.1Y-24.6
X92.278Y-84.455
X92.278Y-86.106
X92.278Y-88.544
X92.278Y-90.17
X92.3Y-26.2
X92.55Y-23.3
X92.634Y-102.438
X92.825Y-37.4
X92.88Y-66.398
X92.912Y-94.586
X92.912Y-95.348
X92.912Y-96.11
X92.912Y-96.872
X92.912Y-97.634
X92.912Y-98.396
X93.089Y-64.364
X93.1Y-78.9
X93.1Y-79.7
X93.1Y-80.5
X93.2Y-65.6
X93.22Y-63.623
X93.3Y-23.95
X93.345Y-81.915
X93.674Y-94.586
X93.674Y-95.348
X93.674Y-96.11
X93.674Y-96.872
X93.674Y-97.634
X93.674Y-98.396
X93.85Y-26.35
X93.904Y-102.438
X94.05Y-24.6
X94.25Y-29.25
X94.3Y-73.1
X94.35Y-47.2
X94.452Y-94.248
X94.452Y-95.01
X94.452Y-95.772
X94.452Y-96.534
X94.452Y-97.296
X94.452Y-98.058
X94.452Y-98.82
X94.5Y-37.6
X94.7Y-27.2
X94.8Y-25.2
X95.112Y-78.345
X95.214Y-94.248
X95.214Y-95.01
X95.214Y-95.772
X95.214Y-96.534
X95.214Y-97.296
X95.214Y-98.058
X95.214Y-98.82
X95.428Y-102.438
X95.453Y-88.519
X95.5Y-76.0
X95.504Y-84.455
X95.504Y-86.106
X95.504Y-90.043
X95.631Y-107.442
X95.976Y-94.248
X95.976Y-95.01
X95.976Y-95.772
X95.976Y-96.534
X95.976Y-97.296
X95.976Y-98.058
X95.976Y-98.82
X96.012Y-85.217
X96.012Y-89.281
X96.2Y-76.0
X96.2Y-76.8
X96.342Y-61.976
X96.375Y-58.271
X96.422Y-60.259
X96.444Y-61.011
X96.52Y-84.455
X96.52Y-86.106
X96.52Y-88.519
X96.52Y-90.043
X96.738Y-94.248
X96.738Y-95.01
X96.738Y-95.772
X96.738Y-96.534
X96.738Y-97.296
X96.738Y-98.058
X96.738Y-98.82
X96.778Y-35.707
X96.9Y-76.0
X96.9Y-76.8
X97.155Y-83.312
X97.5Y-80.9
X97.6Y-76.0
X97.663Y-30.48
X97.7Y-35.7
X97.79Y-86.995
X98.1Y-70.4
X98.1Y-71.3
X98.1Y-72.2
X98.1Y-73.1
X98.2Y-77.7
X98.2Y-80.3
X98.679Y-104.902
X98.8Y-79.6
X98.836Y-38.228
X99.01Y-36.035
X99.949Y-85.344
X99.949Y-88.138
T2
X49.5Y-85.3
X62.016Y-79.375
X73.1Y-79.9
X85.975Y-94.911
T3
X69.557Y-86.69
X69.557Y-87.935
T4
X30.734Y-24.003
X30.734Y-27.559
X30.734Y-30.607
X40.093Y-90.551
X41.275Y-36.322
X44.03Y-87.63
X44.792Y-97.536
X44.792Y-99.314
X44.792Y-101.092
X48.475Y-83.82
X59.3Y-107.325
X60.1Y-109.075
X60.9Y-107.325
X61.7Y-109.075
X62.5Y-107.325
X73.9Y-70.0
X75.65Y-60.4
X80.198Y-65.101
X80.198Y-67.387
X80.198Y-69.673
X80.198Y-71.705
X81.3Y-68.403
X81.468Y-66.371
X81.468Y-70.435
X82.3Y-65.103
X82.3Y-71.705
X82.514Y-67.392
X82.603Y-69.371
X83.4Y-66.303
X83.5Y-70.653
X83.67Y-68.38
X84.5Y-65.103
X84.625Y-67.329
X84.7Y-71.753
X84.79Y-69.51
X85.7Y-66.203
X85.7Y-68.403
X85.7Y-70.653
X86.7Y-69.803
X86.8Y-67.303
X86.802Y-65.101
X86.802Y-71.705
X91.35Y-76.4
T5
X59.69Y-100.838
X62.19Y-100.838
X64.69Y-100.838
X67.19Y-100.838
X69.69Y-100.838
T6
X22.211Y-97.79
X22.211Y-100.33
X22.211Y-102.87
X30.733Y-74.676
X30.733Y-77.216
X33.273Y-74.676
X33.273Y-77.216
X35.813Y-74.676
X35.813Y-77.216
X38.353Y-74.676
X38.353Y-77.216
X40.893Y-74.676
X40.893Y-77.216
X41.078Y-107.719
X41.078Y-110.259
X43.618Y-107.719
X43.618Y-110.259
X45.974Y-29.568
X45.974Y-32.068
X45.974Y-34.568
X45.974Y-37.068
X46.158Y-107.719
X46.158Y-110.259
X48.698Y-107.719
X48.698Y-110.259
X49.674Y-29.568
X49.674Y-32.068
X49.674Y-34.568
X49.674Y-37.068
X51.238Y-107.719
X51.238Y-110.259
X53.174Y-29.568
X53.174Y-32.068
X53.174Y-34.568
X53.174Y-37.068
X54.596Y-111.76
X55.674Y-29.568
X55.674Y-32.068
X55.674Y-34.568
X55.674Y-37.068
X58.174Y-29.568
X58.174Y-32.068
X58.174Y-34.568
X58.174Y-37.068
X60.674Y-29.568
X60.674Y-32.068
X60.674Y-34.568
X60.674Y-37.068
X63.174Y-29.568
X63.174Y-32.068
X63.174Y-34.568
X63.174Y-37.068
X65.674Y-29.568
X65.674Y-32.068
X65.674Y-34.568
X65.674Y-37.068
X66.661Y-111.76
X68.174Y-29.568
X68.174Y-32.068
X68.174Y-34.568
X68.174Y-37.068
X70.674Y-29.568
X70.674Y-32.068
X70.674Y-34.568
X70.674Y-37.068
X70.865Y-95.123
X71.754Y-97.282
X73.174Y-29.568
X73.174Y-32.068
X73.174Y-34.568
X73.174Y-37.068
X74.103Y-49.146
X74.103Y-51.686
X74.103Y-54.226
X74.103Y-56.766
X75.674Y-29.568
X75.674Y-32.068
X75.674Y-34.568
X75.674Y-37.068
X77.558Y-44.247
X91.934Y-91.821
X91.934Y-101.092
X94.474Y-91.821
X94.474Y-101.092
X96.525Y-63.5
X96.525Y-66.04
X96.525Y-68.58
X96.525Y-71.12
X96.525Y-73.66
X97.014Y-91.821
X97.014Y-101.092
X99.681Y-90.17
X99.681Y-92.71
X99.681Y-95.25
X99.681Y-97.79
X99.681Y-100.33
X99.681Y-102.87
T7
X39.524Y-38.168
X82.124Y-38.168
T8
X35.424Y-34.318
X86.224Y-34.318
T4
X57.25Y-108.85G85X57.25Y-107.55
G05
X64.55Y-108.85G85X64.55Y-107.55
G05
M30
