%TF.GenerationSoftware,KiCad,Pcbnew,10.0.5-10.0.5~ubuntu24.04.1*%
%TF.CreationDate,2026-08-04T18:33:50-03:00*%
%TF.ProjectId,openems_ecu,6f70656e-656d-4735-9f65-63752e6b6963,R0.6.0*%
%TF.SameCoordinates,Original*%
%TF.FileFunction,Soldermask,Bot*%
%TF.FilePolarity,Negative*%
%FSLAX46Y46*%
G04 Gerber Fmt 4.6, Leading zero omitted, Abs format (unit mm)*
G04 Created by KiCad (PCBNEW 10.0.5-10.0.5~ubuntu24.04.1) date 2026-08-04 18:33:50*
%MOMM*%
%LPD*%
G01*
G04 APERTURE LIST*
G04 Aperture macros list*
%AMRoundRect*
0 Rectangle with rounded corners*
0 $1 Rounding radius*
0 $2 $3 $4 $5 $6 $7 $8 $9 X,Y pos of 4 corners*
0 Add a 4 corners polygon primitive as box body*
4,1,4,$2,$3,$4,$5,$6,$7,$8,$9,$2,$3,0*
0 Add four circle primitives for the rounded corners*
1,1,$1+$1,$2,$3*
1,1,$1+$1,$4,$5*
1,1,$1+$1,$6,$7*
1,1,$1+$1,$8,$9*
0 Add four rect primitives between the rounded corners*
20,1,$1+$1,$2,$3,$4,$5,0*
20,1,$1+$1,$4,$5,$6,$7,0*
20,1,$1+$1,$6,$7,$8,$9,0*
20,1,$1+$1,$8,$9,$2,$3,0*%
G04 Aperture macros list end*
%ADD10RoundRect,0.000076X0.550000X0.550000X-0.550000X0.550000X-0.550000X-0.550000X0.550000X-0.550000X0*%
%ADD11C,1.100152*%
%ADD12O,1.100152X2.400152*%
%ADD13C,0.990752*%
%ADD14C,1.400152*%
%ADD15RoundRect,0.250076X-0.600000X-0.725000X0.600000X-0.725000X0.600000X0.725000X-0.600000X0.725000X0*%
%ADD16O,1.700152X1.950152*%
%ADD17C,4.000152*%
%ADD18C,2.200152*%
%ADD19C,1.600152*%
%ADD20RoundRect,0.000076X-0.800000X0.800000X-0.800000X-0.800000X0.800000X-0.800000X0.800000X0.800000X0*%
%ADD21RoundRect,0.000076X-0.650000X0.400000X-0.650000X-0.400000X0.650000X-0.400000X0.650000X0.400000X0*%
%ADD22O,1.300152X0.800152*%
%ADD23RoundRect,0.000076X0.247487X1.520280X-1.520280X-0.247487X-0.247487X-1.520280X1.520280X0.247487X0*%
%ADD24C,1.000000*%
%ADD25C,2.000152*%
%ADD26RoundRect,0.000076X-0.900000X1.250000X-0.900000X-1.250000X0.900000X-1.250000X0.900000X1.250000X0*%
%ADD27RoundRect,0.000076X1.250000X0.900000X-1.250000X0.900000X-1.250000X-0.900000X1.250000X-0.900000X0*%
%ADD28RoundRect,0.218826X0.026517X-0.335876X0.335876X-0.026517X-0.026517X0.335876X-0.335876X0.026517X0*%
G04 APERTURE END LIST*
D10*
%TO.C,J1*%
X62500000Y-107325000D03*
D11*
X61700000Y-109075000D03*
X60900000Y-107325000D03*
X60100000Y-109075000D03*
X59300000Y-107325000D03*
D12*
X64550000Y-108200000D03*
X57250000Y-108200000D03*
%TD*%
D13*
%TO.C,J7*%
X33060000Y-112900000D03*
X38140000Y-111884000D03*
X38140000Y-113916000D03*
%TD*%
D14*
%TO.C,J3*%
X41275000Y-36322000D03*
%TD*%
%TO.C,J5*%
X30734000Y-30607000D03*
%TD*%
%TO.C,J12*%
X30734000Y-24003000D03*
%TD*%
%TO.C,J13*%
X30734000Y-27559000D03*
%TD*%
D15*
%TO.C,J19*%
X59690000Y-100838000D03*
D16*
X62190000Y-100838000D03*
X64690000Y-100838000D03*
X67190000Y-100838000D03*
X69690000Y-100838000D03*
%TD*%
D17*
%TO.C,U3*%
X35424000Y-34318200D03*
D18*
X39524000Y-38168200D03*
X82124000Y-38168200D03*
D17*
X86224000Y-34318200D03*
D19*
X45974000Y-29568200D03*
X45974000Y-32068200D03*
X45974000Y-34568200D03*
X45974000Y-37068200D03*
X49674000Y-29568200D03*
X49674000Y-32068200D03*
X49674000Y-34568200D03*
X49674000Y-37068200D03*
X53174000Y-29568200D03*
X53174000Y-32068200D03*
X53174000Y-34568200D03*
X53174000Y-37068200D03*
X55674000Y-29568200D03*
X55674000Y-32068200D03*
X55674000Y-34568200D03*
X55674000Y-37068200D03*
X58174000Y-29568200D03*
X58174000Y-32068200D03*
X58174000Y-34568200D03*
X58174000Y-37068200D03*
X60674000Y-29568200D03*
X60674000Y-32068200D03*
X60674000Y-34568200D03*
X60674000Y-37068200D03*
X63174000Y-29568200D03*
X63174000Y-32068200D03*
X63174000Y-34568200D03*
X63174000Y-37068200D03*
X65674000Y-29568200D03*
X65674000Y-32068200D03*
X65674000Y-34568200D03*
X65674000Y-37068200D03*
X68174000Y-29568200D03*
X68174000Y-32068200D03*
X68174000Y-34568200D03*
X68174000Y-37068200D03*
X70674000Y-29568200D03*
X70674000Y-32068200D03*
X70674000Y-34568200D03*
X70674000Y-37068200D03*
X73174000Y-29568200D03*
X73174000Y-32068200D03*
X73174000Y-34568200D03*
X73174000Y-37068200D03*
X75674000Y-29568200D03*
X75674000Y-32068200D03*
X75674000Y-34568200D03*
X75674000Y-37068200D03*
D14*
X40092800Y-90551000D03*
X44791800Y-101092000D03*
X44791800Y-99314000D03*
X44791800Y-97536000D03*
D20*
X70864900Y-95123000D03*
X71753900Y-97282000D03*
D14*
X73900200Y-69999860D03*
X48474800Y-83820000D03*
X44029800Y-87630000D03*
D21*
X69556800Y-87934800D03*
D22*
X69556800Y-86690200D03*
D20*
X74103400Y-49146409D03*
D19*
X74103400Y-51686409D03*
X74103400Y-54226409D03*
X74103400Y-56766409D03*
D20*
X96525250Y-63500000D03*
D19*
X96525250Y-66040000D03*
X96525250Y-68580000D03*
X96525250Y-71120000D03*
X96525250Y-73660000D03*
D20*
X51238320Y-110258860D03*
D19*
X51238320Y-107718860D03*
X48698320Y-110258860D03*
X48698320Y-107718860D03*
X46158320Y-110258860D03*
X46158320Y-107718860D03*
X43618320Y-110258860D03*
X43618320Y-107718860D03*
X41078320Y-110258860D03*
X41078320Y-107718860D03*
D20*
X30732900Y-77216000D03*
D19*
X30732900Y-74676000D03*
X33272900Y-77216000D03*
X33272900Y-74676000D03*
X35812900Y-77216000D03*
X35812900Y-74676000D03*
X38352900Y-77216000D03*
X38352900Y-74676000D03*
X40892900Y-77216000D03*
X40892900Y-74676000D03*
D20*
X77557800Y-44246800D03*
X54596200Y-111760000D03*
X66661200Y-111760000D03*
X22211200Y-97790000D03*
D19*
X22211200Y-100330000D03*
X22211200Y-102870000D03*
D20*
X99681200Y-97790000D03*
D19*
X99681200Y-100330000D03*
X99681200Y-102870000D03*
D20*
X99681200Y-90170000D03*
D19*
X99681200Y-92710000D03*
X99681200Y-95250000D03*
D20*
X97014200Y-101092000D03*
D19*
X94474200Y-101092000D03*
X91934200Y-101092000D03*
D20*
X97014200Y-91821000D03*
D19*
X94474200Y-91821000D03*
X91934200Y-91821000D03*
%TD*%
D23*
%TO.C,D15*%
X92928428Y-27971572D03*
X90100000Y-30800000D03*
%TD*%
%TO.C,D20*%
X90514214Y-24285786D03*
X87685786Y-27114214D03*
%TD*%
D24*
%TO.C,FID5*%
X91084400Y-58648600D03*
%TD*%
%TO.C,FID6*%
X60350000Y-65450000D03*
%TD*%
D25*
%TO.C,TP1*%
X47879000Y-67183000D03*
%TD*%
D26*
%TO.C,D4*%
X41275000Y-29242000D03*
X41275000Y-33242000D03*
%TD*%
D27*
%TO.C,D5*%
X37687000Y-27559000D03*
X33687000Y-27559000D03*
%TD*%
%TO.C,D6*%
X37687000Y-24003000D03*
X33687000Y-24003000D03*
%TD*%
%TO.C,D3*%
X37687000Y-31115000D03*
X33687000Y-31115000D03*
%TD*%
D14*
%TO.C,J17*%
X91350000Y-76400000D03*
%TD*%
%TO.C,J15*%
X75650000Y-60400000D03*
%TD*%
D28*
%TO.C,R21*%
X55186306Y-27513694D03*
X56300000Y-26400000D03*
%TD*%
%TO.C,R80*%
X57286306Y-27613694D03*
X58400000Y-26500000D03*
%TD*%
%TO.C,R33*%
X53086306Y-27413694D03*
X54200000Y-26300000D03*
%TD*%
%TO.C,R81*%
X59286306Y-27913694D03*
X60400000Y-26800000D03*
%TD*%
G36*
X88733670Y-100791757D02*
G01*
X88775400Y-100802170D01*
X89662518Y-101194152D01*
X89693773Y-101213891D01*
X90522334Y-101926795D01*
X90542055Y-101948197D01*
X91034139Y-102624813D01*
X91046641Y-102646122D01*
X91416427Y-103447325D01*
X91425368Y-103474390D01*
X91626539Y-104438519D01*
X91628570Y-104476792D01*
X91567726Y-105085231D01*
X91565434Y-105099647D01*
X91335242Y-106150841D01*
X91319175Y-106190397D01*
X90749050Y-107107754D01*
X90731421Y-107130048D01*
X90056181Y-107809731D01*
X90026531Y-107831867D01*
X89223799Y-108264108D01*
X89210857Y-108270157D01*
X88601016Y-108514093D01*
X88562602Y-108522826D01*
X87643596Y-108584093D01*
X87616524Y-108582978D01*
X86384219Y-108398132D01*
X86338904Y-108382058D01*
X85368889Y-107809997D01*
X85354968Y-107800477D01*
X84910899Y-107450972D01*
X84890436Y-107430671D01*
X84398066Y-106815207D01*
X84386384Y-106797816D01*
X84035191Y-106167416D01*
X84024111Y-106140711D01*
X83778957Y-105282672D01*
X83774109Y-105248057D01*
X83774109Y-104435297D01*
X85942504Y-104435297D01*
X85942504Y-104703302D01*
X85982449Y-104968325D01*
X85982451Y-104968337D01*
X86061443Y-105224424D01*
X86061448Y-105224437D01*
X86177735Y-105465907D01*
X86328711Y-105687346D01*
X86511006Y-105883814D01*
X86720552Y-106050922D01*
X86952657Y-106184928D01*
X86952661Y-106184930D01*
X87202137Y-106282841D01*
X87202140Y-106282842D01*
X87463433Y-106342481D01*
X87730700Y-106362510D01*
X87997966Y-106342481D01*
X88259259Y-106282842D01*
X88259262Y-106282841D01*
X88508738Y-106184930D01*
X88508742Y-106184928D01*
X88740847Y-106050922D01*
X88950393Y-105883814D01*
X89132688Y-105687346D01*
X89283663Y-105465907D01*
X89283664Y-105465907D01*
X89399951Y-105224437D01*
X89399956Y-105224424D01*
X89478948Y-104968337D01*
X89478950Y-104968325D01*
X89518895Y-104703310D01*
X89518896Y-104703305D01*
X89521400Y-104569300D01*
X89518896Y-104435294D01*
X89518895Y-104435289D01*
X89478950Y-104170274D01*
X89478948Y-104170262D01*
X89399956Y-103914175D01*
X89399951Y-103914162D01*
X89283664Y-103672692D01*
X89132688Y-103451253D01*
X88950393Y-103254785D01*
X88740847Y-103087677D01*
X88508742Y-102953671D01*
X88508738Y-102953669D01*
X88259262Y-102855758D01*
X88259259Y-102855757D01*
X87997967Y-102796118D01*
X87730700Y-102776090D01*
X87463432Y-102796118D01*
X87202140Y-102855757D01*
X87202137Y-102855758D01*
X86952661Y-102953669D01*
X86952657Y-102953671D01*
X86720552Y-103087677D01*
X86511006Y-103254785D01*
X86328711Y-103451253D01*
X86177736Y-103672692D01*
X86177735Y-103672692D01*
X86061448Y-103914162D01*
X86061443Y-103914175D01*
X85982451Y-104170262D01*
X85982449Y-104170274D01*
X85942504Y-104435297D01*
X83774109Y-104435297D01*
X83774109Y-104265215D01*
X83777871Y-104234656D01*
X84086411Y-103000495D01*
X84103386Y-102961802D01*
X84715642Y-102031173D01*
X84742193Y-102002035D01*
X85417435Y-101461842D01*
X85433633Y-101450833D01*
X86298242Y-100956770D01*
X86331897Y-100943518D01*
X87374814Y-100698126D01*
X87412868Y-100695113D01*
X88733670Y-100791757D01*
G37*
G36*
X35139670Y-100728257D02*
G01*
X35181400Y-100738670D01*
X36068518Y-101130652D01*
X36099773Y-101150391D01*
X36928334Y-101863295D01*
X36948055Y-101884697D01*
X37440139Y-102561313D01*
X37452641Y-102582622D01*
X37822427Y-103383825D01*
X37831368Y-103410890D01*
X38032539Y-104375019D01*
X38034570Y-104413292D01*
X37973726Y-105021731D01*
X37971434Y-105036147D01*
X37741242Y-106087341D01*
X37725175Y-106126897D01*
X37155050Y-107044254D01*
X37137421Y-107066548D01*
X36462181Y-107746231D01*
X36432531Y-107768367D01*
X35629799Y-108200608D01*
X35616857Y-108206657D01*
X35007016Y-108450593D01*
X34968602Y-108459326D01*
X34049596Y-108520593D01*
X34022524Y-108519478D01*
X32790219Y-108334632D01*
X32744904Y-108318558D01*
X31774889Y-107746497D01*
X31760968Y-107736977D01*
X31316899Y-107387472D01*
X31296436Y-107367171D01*
X30804066Y-106751707D01*
X30792384Y-106734316D01*
X30441191Y-106103916D01*
X30430111Y-106077211D01*
X30184957Y-105219172D01*
X30180109Y-105184557D01*
X30180109Y-104435297D01*
X32272304Y-104435297D01*
X32272304Y-104703302D01*
X32312249Y-104968325D01*
X32312251Y-104968337D01*
X32391243Y-105224424D01*
X32391248Y-105224437D01*
X32507535Y-105465907D01*
X32658511Y-105687346D01*
X32840806Y-105883814D01*
X33050352Y-106050922D01*
X33282457Y-106184928D01*
X33282461Y-106184930D01*
X33531937Y-106282841D01*
X33531940Y-106282842D01*
X33793233Y-106342481D01*
X34060500Y-106362510D01*
X34327766Y-106342481D01*
X34589059Y-106282842D01*
X34589062Y-106282841D01*
X34838538Y-106184930D01*
X34838542Y-106184928D01*
X35070647Y-106050922D01*
X35280193Y-105883814D01*
X35462488Y-105687346D01*
X35613463Y-105465907D01*
X35613464Y-105465907D01*
X35729751Y-105224437D01*
X35729756Y-105224424D01*
X35808748Y-104968337D01*
X35808750Y-104968325D01*
X35848695Y-104703310D01*
X35848696Y-104703305D01*
X35851200Y-104569300D01*
X35848696Y-104435294D01*
X35848695Y-104435289D01*
X35808750Y-104170274D01*
X35808748Y-104170262D01*
X35729756Y-103914175D01*
X35729751Y-103914162D01*
X35613464Y-103672692D01*
X35462488Y-103451253D01*
X35280193Y-103254785D01*
X35070647Y-103087677D01*
X34838542Y-102953671D01*
X34838538Y-102953669D01*
X34589062Y-102855758D01*
X34589059Y-102855757D01*
X34327767Y-102796118D01*
X34060500Y-102776090D01*
X33793232Y-102796118D01*
X33531940Y-102855757D01*
X33531937Y-102855758D01*
X33282461Y-102953669D01*
X33282457Y-102953671D01*
X33050352Y-103087677D01*
X32840806Y-103254785D01*
X32658511Y-103451253D01*
X32507536Y-103672692D01*
X32507535Y-103672692D01*
X32391248Y-103914162D01*
X32391243Y-103914175D01*
X32312251Y-104170262D01*
X32312249Y-104170274D01*
X32272304Y-104435297D01*
X30180109Y-104435297D01*
X30180109Y-104201715D01*
X30183871Y-104171156D01*
X30492411Y-102936995D01*
X30509386Y-102898302D01*
X31121642Y-101967673D01*
X31148193Y-101938535D01*
X31823435Y-101398342D01*
X31839633Y-101387333D01*
X32704242Y-100893270D01*
X32737897Y-100880018D01*
X33780814Y-100634626D01*
X33818868Y-100631613D01*
X35139670Y-100728257D01*
G37*
G36*
X29613941Y-38409849D02*
G01*
X29655670Y-38420262D01*
X30107061Y-38619713D01*
X30143211Y-38643892D01*
X30296165Y-38790131D01*
X30486566Y-38915813D01*
X30486571Y-38915815D01*
X30696358Y-39005484D01*
X30773873Y-39023175D01*
X30828017Y-39050504D01*
X31402605Y-39544887D01*
X31422326Y-39566289D01*
X31914410Y-40242905D01*
X31926912Y-40264214D01*
X32296698Y-41065417D01*
X32305639Y-41092482D01*
X32506810Y-42056611D01*
X32508841Y-42094884D01*
X32447997Y-42703323D01*
X32445705Y-42717739D01*
X32215513Y-43768933D01*
X32199446Y-43808489D01*
X31629321Y-44725846D01*
X31611692Y-44748140D01*
X30936452Y-45427823D01*
X30906802Y-45449959D01*
X30104070Y-45882200D01*
X30091128Y-45888249D01*
X29481287Y-46132185D01*
X29442873Y-46140918D01*
X28523867Y-46202185D01*
X28496795Y-46201070D01*
X27264490Y-46016224D01*
X27219175Y-46000150D01*
X26249160Y-45428089D01*
X26235239Y-45418569D01*
X25791170Y-45069064D01*
X25770707Y-45048763D01*
X25278337Y-44433299D01*
X25266655Y-44415908D01*
X24915462Y-43785508D01*
X24904382Y-43758803D01*
X24659228Y-42900764D01*
X24654380Y-42866149D01*
X24654380Y-42167197D01*
X26773205Y-42167197D01*
X26773205Y-42435202D01*
X26813150Y-42700225D01*
X26813152Y-42700237D01*
X26892144Y-42956324D01*
X26892149Y-42956337D01*
X27008436Y-43197807D01*
X27159412Y-43419246D01*
X27341707Y-43615714D01*
X27551253Y-43782822D01*
X27783358Y-43916828D01*
X27783362Y-43916830D01*
X28032838Y-44014741D01*
X28032841Y-44014742D01*
X28294134Y-44074381D01*
X28561401Y-44094410D01*
X28828667Y-44074381D01*
X29089960Y-44014742D01*
X29089963Y-44014741D01*
X29339439Y-43916830D01*
X29339443Y-43916828D01*
X29571548Y-43782822D01*
X29781094Y-43615714D01*
X29963389Y-43419246D01*
X30114364Y-43197807D01*
X30114365Y-43197807D01*
X30230652Y-42956337D01*
X30230657Y-42956324D01*
X30309649Y-42700237D01*
X30309651Y-42700225D01*
X30349596Y-42435210D01*
X30349597Y-42435205D01*
X30352101Y-42301200D01*
X30349597Y-42167194D01*
X30349596Y-42167189D01*
X30309651Y-41902174D01*
X30309649Y-41902162D01*
X30230657Y-41646075D01*
X30230652Y-41646062D01*
X30114365Y-41404592D01*
X29963389Y-41183153D01*
X29781094Y-40986685D01*
X29571548Y-40819577D01*
X29339443Y-40685571D01*
X29339439Y-40685569D01*
X29089963Y-40587658D01*
X29089960Y-40587657D01*
X28828668Y-40528018D01*
X28561401Y-40507990D01*
X28294133Y-40528018D01*
X28032841Y-40587657D01*
X28032838Y-40587658D01*
X27783362Y-40685569D01*
X27783358Y-40685571D01*
X27551253Y-40819577D01*
X27341707Y-40986685D01*
X27159412Y-41183153D01*
X27008437Y-41404592D01*
X27008436Y-41404592D01*
X26892149Y-41646062D01*
X26892144Y-41646075D01*
X26813152Y-41902162D01*
X26813150Y-41902174D01*
X26773205Y-42167197D01*
X24654380Y-42167197D01*
X24654380Y-41883307D01*
X24658142Y-41852748D01*
X24966682Y-40618587D01*
X24983657Y-40579894D01*
X25595913Y-39649265D01*
X25622464Y-39620127D01*
X26297706Y-39079934D01*
X26313904Y-39068925D01*
X27178513Y-38574862D01*
X27212168Y-38561610D01*
X28255085Y-38316218D01*
X28293139Y-38313205D01*
X29613941Y-38409849D01*
G37*
G36*
X94321670Y-38434757D02*
G01*
X94363400Y-38445170D01*
X95250518Y-38837152D01*
X95281773Y-38856891D01*
X96110334Y-39569795D01*
X96130055Y-39591197D01*
X96622139Y-40267813D01*
X96634641Y-40289122D01*
X97004427Y-41090325D01*
X97013368Y-41117390D01*
X97214539Y-42081519D01*
X97216570Y-42119792D01*
X97155726Y-42728231D01*
X97153434Y-42742647D01*
X96923242Y-43793841D01*
X96907175Y-43833397D01*
X96337050Y-44750754D01*
X96319421Y-44773048D01*
X95644181Y-45452731D01*
X95614531Y-45474867D01*
X94811799Y-45907108D01*
X94798857Y-45913157D01*
X94189016Y-46157093D01*
X94150602Y-46165826D01*
X93231596Y-46227093D01*
X93204524Y-46225978D01*
X91972219Y-46041132D01*
X91926904Y-46025058D01*
X90956889Y-45452997D01*
X90942968Y-45443477D01*
X90498899Y-45093972D01*
X90478436Y-45073671D01*
X89986066Y-44458207D01*
X89974384Y-44440816D01*
X89623191Y-43810416D01*
X89612111Y-43783711D01*
X89366957Y-42925672D01*
X89362109Y-42891057D01*
X89362109Y-42167197D01*
X91441603Y-42167197D01*
X91441603Y-42435202D01*
X91481548Y-42700225D01*
X91481550Y-42700237D01*
X91560542Y-42956324D01*
X91560547Y-42956337D01*
X91676834Y-43197807D01*
X91827810Y-43419246D01*
X92010105Y-43615714D01*
X92219651Y-43782822D01*
X92451756Y-43916828D01*
X92451760Y-43916830D01*
X92701236Y-44014741D01*
X92701239Y-44014742D01*
X92962532Y-44074381D01*
X93229799Y-44094410D01*
X93497065Y-44074381D01*
X93758358Y-44014742D01*
X93758361Y-44014741D01*
X94007837Y-43916830D01*
X94007841Y-43916828D01*
X94239946Y-43782822D01*
X94449492Y-43615714D01*
X94631787Y-43419246D01*
X94782762Y-43197807D01*
X94782763Y-43197807D01*
X94899050Y-42956337D01*
X94899055Y-42956324D01*
X94978047Y-42700237D01*
X94978049Y-42700225D01*
X95017994Y-42435210D01*
X95017995Y-42435205D01*
X95020499Y-42301200D01*
X95017995Y-42167194D01*
X95017994Y-42167189D01*
X94978049Y-41902174D01*
X94978047Y-41902162D01*
X94899055Y-41646075D01*
X94899050Y-41646062D01*
X94782763Y-41404592D01*
X94631787Y-41183153D01*
X94449492Y-40986685D01*
X94239946Y-40819577D01*
X94007841Y-40685571D01*
X94007837Y-40685569D01*
X93758361Y-40587658D01*
X93758358Y-40587657D01*
X93497066Y-40528018D01*
X93229799Y-40507990D01*
X92962531Y-40528018D01*
X92701239Y-40587657D01*
X92701236Y-40587658D01*
X92451760Y-40685569D01*
X92451756Y-40685571D01*
X92219651Y-40819577D01*
X92010105Y-40986685D01*
X91827810Y-41183153D01*
X91676835Y-41404592D01*
X91676834Y-41404592D01*
X91560547Y-41646062D01*
X91560542Y-41646075D01*
X91481550Y-41902162D01*
X91481548Y-41902174D01*
X91441603Y-42167197D01*
X89362109Y-42167197D01*
X89362109Y-41908215D01*
X89365871Y-41877656D01*
X89674411Y-40643495D01*
X89691386Y-40604802D01*
X90303642Y-39674173D01*
X90330193Y-39645035D01*
X91005435Y-39104842D01*
X91021633Y-39093833D01*
X91886242Y-38599770D01*
X91919897Y-38586518D01*
X92962814Y-38341126D01*
X93000868Y-38338113D01*
X94321670Y-38434757D01*
G37*
M02*
